<svg version="1.1" xmlns="http://www.w3.org/2000/svg" viewBox="0 0 228.29801860263478 240.0824855071529" width="228.29801860263478" height="240.0824855071529">
  <!-- svg-source:excalidraw -->
  
  <defs>
    <style class="style-fonts">
      @font-face {
        font-family: "Virgil";
        src: url("https://excalidraw.com/Virgil.woff2");
      }
      @font-face {
        font-family: "Cascadia";
        src: url("https://excalidraw.com/Cascadia.woff2");
      }
      @font-face {
        font-family: "Assistant";
        src: url("https://excalidraw.com/Assistant-Regular.woff2");
      }
    </style>
    
  </defs>
  <g stroke-linecap="round" transform="translate(61.89967726963323 0.9784708913861095) rotate(236.10503114096122 52.82141783469933 118.16947757690025)"><path d="M76.65 12.32 C82.76 17.16, 88.62 30.29, 93.16 41.97 C97.69 53.66, 101.87 68.31, 103.86 82.44 C105.85 96.57, 105.74 112.02, 105.09 126.76 C104.43 141.51, 102.78 157.34, 99.95 170.9 C97.13 184.45, 93.23 198.04, 88.13 208.1 C83.04 218.16, 75.91 226.77, 69.39 231.27 C62.86 235.77, 55.72 236.33, 48.98 235.1 C42.24 233.87, 34.89 230.57, 28.94 223.89 C22.99 217.22, 17.56 206.69, 13.26 195.04 C8.96 183.39, 5.3 168.35, 3.15 154.01 C0.99 139.66, -0.23 123.77, 0.32 108.99 C0.88 94.21, 3.38 78.87, 6.48 65.32 C9.58 51.77, 13.93 37.5, 18.91 27.69 C23.88 17.87, 30 11.04, 36.32 6.44 C42.64 1.83, 49.17 -2.25, 56.84 0.05 C64.5 2.35, 77.05 14.72, 82.3 20.24 C87.54 25.77, 88.57 31.37, 88.29 33.22 M68.94 7.24 C75.56 10.12, 82.49 19.02, 87.63 28.69 C92.78 38.37, 96.66 51.85, 99.79 65.29 C102.93 78.73, 105.78 94.13, 106.44 109.34 C107.09 124.54, 105.78 142.33, 103.71 156.52 C101.63 170.71, 98.63 183.17, 93.97 194.48 C89.31 205.78, 81.83 217.22, 75.73 224.36 C69.62 231.51, 63.69 236.44, 57.34 237.33 C50.99 238.23, 43.96 234.47, 37.63 229.72 C31.31 224.98, 24.85 218.57, 19.38 208.87 C13.92 199.17, 8.03 185.19, 4.84 171.5 C1.66 157.81, 0.64 142.02, 0.26 126.74 C-0.11 111.46, 0.42 94.34, 2.59 79.8 C4.76 65.26, 8.99 50.51, 13.29 39.49 C17.6 28.47, 22.34 20.44, 28.41 13.67 C34.49 6.89, 42.95 0.11, 49.74 -1.15 C56.53 -2.41, 66.15 4.29, 69.18 6.1 C72.21 7.92, 67.96 7.97, 67.91 9.73" stroke="#1e1e1e" stroke-width="4" fill="none"></path></g><g stroke-linecap="round" transform="translate(59.65198638532979 -0.7526719076753352) rotate(306.6269733252176 54.4970229159876 123.28907231700805)"><path d="M43.64 2.35 C49.98 -2.91, 58.18 -1.72, 64.91 1.17 C71.64 4.06, 78.4 11.07, 84.02 19.7 C89.64 28.33, 94.73 39.85, 98.61 52.97 C102.49 66.1, 105.84 82.86, 107.28 98.45 C108.72 114.04, 108.49 131.06, 107.25 146.5 C106.02 161.93, 103.43 178.06, 99.89 191.08 C96.34 204.09, 91.81 215.66, 85.99 224.56 C80.16 233.46, 71.99 241.24, 64.94 244.46 C57.89 247.68, 50.25 247.02, 43.69 243.89 C37.13 240.77, 31.33 234.33, 25.58 225.73 C19.82 217.13, 13.24 205.14, 9.17 192.27 C5.09 179.41, 2.46 163.73, 1.11 148.55 C-0.23 133.37, -0.2 116.77, 1.12 101.22 C2.44 85.66, 5.19 68.36, 9.04 55.21 C12.88 42.06, 18.15 31.39, 24.19 22.33 C30.24 13.27, 41.39 4.1, 45.31 0.85 C49.24 -2.4, 47.44 0.5, 47.74 2.81 M38.48 5.54 C44.44 -0.72, 52.65 -0.83, 59.72 0.48 C66.79 1.79, 74.65 5.94, 80.89 13.4 C87.12 20.86, 93.1 33.28, 97.12 45.23 C101.14 57.18, 103.11 70.31, 104.99 85.11 C106.88 99.91, 108.68 118.08, 108.44 134.04 C108.19 150, 106.58 166.99, 103.5 180.87 C100.42 194.75, 95.42 207.29, 89.94 217.33 C84.47 227.36, 77.17 236.21, 70.64 241.09 C64.11 245.97, 57.89 247.85, 50.79 246.61 C43.68 245.36, 34.41 240.84, 28.01 233.62 C21.62 226.39, 16.81 215.57, 12.41 203.24 C8.01 190.91, 3.52 174.47, 1.61 159.64 C-0.31 144.81, -0.09 129.89, 0.9 114.27 C1.89 98.65, 4.5 80.21, 7.56 65.92 C10.63 51.63, 14.4 38.67, 19.3 28.53 C24.19 18.39, 33.91 8.43, 36.93 5.09 C39.96 1.76, 36.76 6.66, 37.44 8.5" stroke="#1e1e1e" stroke-width="4" fill="none"></path></g><g stroke-linecap="round" transform="translate(52.902534436992255 9.930912559384296) rotate(357.57822686639093 60.04904176588957 110.11033019419216)"><path d="M66.87 1.14 C74.12 0.74, 82.32 6.67, 88.94 13.44 C95.55 20.22, 101.73 30.73, 106.56 41.77 C111.4 52.81, 115.61 66.14, 117.93 79.68 C120.25 93.22, 121.39 109.21, 120.51 123.02 C119.62 136.83, 116.57 150.29, 112.63 162.53 C108.68 174.78, 102.77 187.69, 96.84 196.49 C90.91 205.29, 84.28 211.39, 77.05 215.34 C69.83 219.3, 61.08 221.6, 53.51 220.2 C45.93 218.79, 38.4 213.96, 31.59 206.92 C24.77 199.87, 17.45 189.14, 12.62 177.91 C7.8 166.68, 4.53 153.01, 2.64 139.54 C0.76 126.07, 0.59 110.74, 1.32 97.1 C2.04 83.46, 3.54 69.73, 6.98 57.69 C10.41 45.66, 15.78 33.92, 21.93 24.88 C28.08 15.84, 35.46 7.31, 43.89 3.44 C52.32 -0.43, 67.16 1.2, 72.5 1.65 C77.83 2.1, 76.37 4.39, 75.92 6.14 M83.86 9.72 C90.6 13.44, 95.9 22.86, 101.42 32.5 C106.93 42.13, 113.91 54.49, 116.95 67.52 C119.99 80.56, 120.06 96.35, 119.65 110.7 C119.24 125.05, 117.63 140.49, 114.48 153.63 C111.32 166.77, 105.89 179.6, 100.74 189.54 C95.59 199.48, 90.17 208.02, 83.56 213.27 C76.95 218.52, 69.08 221.09, 61.08 221.04 C53.07 220.98, 42.67 218.76, 35.53 212.94 C28.39 207.13, 23.4 196.36, 18.26 186.15 C13.12 175.93, 7.66 164.56, 4.7 151.63 C1.73 138.71, 0.32 122.78, 0.47 108.61 C0.62 94.45, 2.84 79.48, 5.59 66.67 C8.34 53.85, 11.73 41.66, 16.94 31.73 C22.15 21.8, 29.52 12.29, 36.87 7.09 C44.22 1.89, 53.12 0.41, 61.05 0.52 C68.98 0.63, 81.03 6.15, 84.45 7.74 C87.87 9.32, 82.29 8.14, 81.57 10.03" stroke="#1e1e1e" stroke-width="4" fill="none"></path></g><g stroke-linecap="round" transform="translate(68.85948680631986 77.15847810976663) rotate(0 42.68707879378633 41.896577334642075)"><path d="M7.96 17.52 C7.96 17.52, 7.96 17.52, 7.96 17.52 M7.96 17.52 C7.96 17.52, 7.96 17.52, 7.96 17.52 M2.32 48.4 C18.78 30.69, 34.67 12.66, 43.66 0.85 M2.32 48.4 C9.61 38.15, 18.29 28.48, 43.66 0.85 M8.49 65.68 C30.2 40.83, 49.72 17.06, 60.98 5.31 M8.49 65.68 C25.33 46.75, 40.37 29.61, 60.98 5.31 M20.57 76.18 C30.81 62.29, 43.12 48.64, 75.02 13.54 M20.57 76.18 C40.01 52.89, 61.95 28.91, 75.02 13.54 M36.58 82.15 C52.03 65.59, 65.21 48.04, 83.16 28.57 M36.58 82.15 C52.12 62.87, 68.94 46.29, 83.16 28.57 M61.12 78.31 C68.26 70.15, 75.8 63.07, 82.77 53.4 M61.12 78.31 C68.95 70.4, 74.13 62.46, 82.77 53.4" stroke="#0c8599" stroke-width="2" fill="none"></path><path d="M27.04 2.83 C33.49 -0.68, 41.91 -1.42, 49.55 -0.12 C57.19 1.18, 66.98 5.46, 72.86 10.63 C78.73 15.8, 83.17 23.31, 84.78 30.89 C86.38 38.47, 85.11 48.74, 82.49 56.1 C79.87 63.46, 75.03 70.41, 69.05 75.06 C63.06 79.7, 54.05 83.12, 46.6 83.97 C39.14 84.82, 31.17 83.71, 24.31 80.13 C17.46 76.54, 9.46 69.01, 5.45 62.45 C1.45 55.89, -0.08 48.2, 0.28 40.78 C0.65 33.35, 2.22 24.56, 7.64 17.89 C13.06 11.22, 27.32 3.58, 32.79 0.75 C38.26 -2.07, 40.13 0.07, 40.46 0.95 M61.57 4.1 C68.45 6.84, 75.18 13.61, 78.99 20.18 C82.8 26.74, 84.75 36.09, 84.44 43.49 C84.13 50.88, 81.1 58.63, 77.1 64.54 C73.1 70.46, 67.45 75.94, 60.46 78.99 C53.47 82.04, 42.79 83.85, 35.15 82.85 C27.52 81.85, 20.28 78.06, 14.66 73.02 C9.03 67.97, 3.49 59.95, 1.41 52.57 C-0.67 45.19, 0.03 35.86, 2.16 28.73 C4.28 21.61, 8.39 14.31, 14.17 9.83 C19.94 5.35, 29.1 3.08, 36.8 1.85 C44.5 0.63, 56.25 1.93, 60.35 2.5 C64.44 3.06, 61.71 4.26, 61.36 5.26" stroke="#0c8599" stroke-width="4" fill="none"></path></g></svg>