<svg version="1.1" xmlns="http://www.w3.org/2000/svg" viewBox="0 0 227.64602338997793 240.06294800293472" width="227.64602338997793" height="240.06294800293472">
  <!-- svg-source:excalidraw -->
  
  <defs>
    <style class="style-fonts">
      @font-face {
        font-family: "Virgil";
        src: url("https://excalidraw.com/Virgil.woff2");
      }
      @font-face {
        font-family: "Cascadia";
        src: url("https://excalidraw.com/Cascadia.woff2");
      }
      @font-face {
        font-family: "Assistant";
        src: url("https://excalidraw.com/Assistant-Regular.woff2");
      }
    </style>
    
  </defs>
  <g stroke-linecap="round" transform="translate(72.73037745152396 4.846816524434871) rotate(239.37890232401318 41.092634243465 118.16947757690025)"><path d="M59.6 12.32 C64.36 17.16, 68.95 30.29, 72.51 41.97 C76.08 53.66, 79.45 68.31, 80.98 82.44 C82.5 96.57, 82.2 112.02, 81.66 126.76 C81.13 141.51, 79.92 157.34, 77.77 170.9 C75.63 184.45, 72.74 198.04, 68.78 208.1 C64.83 218.16, 59.13 226.77, 54.03 231.27 C48.93 235.77, 43.42 236.33, 38.17 235.1 C32.92 233.87, 27.15 230.57, 22.53 223.89 C17.91 217.22, 13.77 206.69, 10.45 195.04 C7.12 183.39, 4.27 168.35, 2.57 154.01 C0.88 139.66, -0.15 123.77, 0.29 108.99 C0.72 94.21, 2.78 78.87, 5.2 65.32 C7.62 51.77, 10.96 37.5, 14.8 27.69 C18.64 17.87, 23.32 11.04, 28.22 6.44 C33.12 1.83, 38.25 -2.25, 44.19 0.05 C50.13 2.35, 59.77 14.72, 63.86 20.24 C67.96 25.77, 68.93 31.37, 68.76 33.22 M53.52 7.24 C58.73 10.12, 64.22 19.02, 68.23 28.69 C72.25 38.37, 75.12 51.85, 77.58 65.29 C80.05 78.73, 82.47 94.13, 83.01 109.34 C83.55 124.54, 82.45 142.33, 80.84 156.52 C79.24 170.71, 77.05 183.17, 73.37 194.48 C69.68 205.78, 63.5 217.22, 58.74 224.36 C53.97 231.51, 49.62 236.44, 44.76 237.33 C39.91 238.23, 34.5 234.47, 29.6 229.72 C24.69 224.98, 19.66 218.57, 15.33 208.87 C10.99 199.17, 6.11 185.19, 3.6 171.5 C1.08 157.81, 0.5 142.02, 0.23 126.74 C-0.04 111.46, 0.29 94.34, 1.99 79.8 C3.69 65.26, 7.11 50.51, 10.44 39.49 C13.76 28.47, 17.21 20.44, 21.95 13.67 C26.68 6.89, 33.56 0.11, 38.86 -1.15 C44.16 -2.41, 51.47 4.29, 53.76 6.1 C56.04 7.92, 52.55 7.97, 52.57 9.73" stroke="#ffffff" stroke-width="4" fill="none"></path></g><g stroke-linecap="round" transform="translate(67.85944808869408 -1.0460965390639103) rotate(306.6269733252176 44.69723903235331 123.28907231700805)"><path d="M35.86 2.35 C41.08 -2.91, 47.81 -1.72, 53.31 1.17 C58.81 4.06, 64.3 11.07, 68.87 19.7 C73.44 28.33, 77.56 39.85, 80.73 52.97 C83.9 66.1, 86.71 82.86, 87.89 98.45 C89.08 114.04, 88.82 131.06, 87.82 146.5 C86.82 161.93, 84.74 178.06, 81.87 191.08 C79.01 204.09, 75.44 215.66, 70.65 224.56 C65.85 233.46, 58.94 241.24, 53.12 244.46 C47.29 247.68, 41.02 247.02, 35.69 243.89 C30.36 240.77, 25.83 234.33, 21.12 225.73 C16.42 217.13, 10.82 205.14, 7.45 192.27 C4.08 179.41, 1.99 163.73, 0.9 148.55 C-0.18 133.37, -0.14 116.77, 0.95 101.22 C2.05 85.66, 4.29 68.36, 7.45 55.21 C10.61 42.06, 14.99 31.39, 19.93 22.33 C24.87 13.27, 33.91 4.1, 37.1 0.85 C40.29 -2.4, 38.79 0.5, 39.06 2.81 M31.66 5.54 C36.52 -0.72, 43.27 -0.83, 49.09 0.48 C54.91 1.79, 61.46 5.94, 66.58 13.4 C71.71 20.86, 76.62 33.28, 79.83 45.23 C83.04 57.18, 84.35 70.31, 85.86 85.11 C87.36 99.91, 89.01 118.08, 88.87 134.04 C88.73 150, 87.5 166.99, 84.99 180.87 C82.49 194.75, 78.34 207.29, 73.82 217.33 C69.3 227.36, 63.2 236.21, 57.87 241.09 C52.53 245.97, 47.68 247.85, 41.82 246.61 C35.96 245.36, 28 240.84, 22.71 233.62 C17.43 226.39, 13.69 215.57, 10.1 203.24 C6.51 190.91, 2.68 174.47, 1.14 159.64 C-0.39 144.81, -0.02 129.89, 0.87 114.27 C1.75 98.65, 3.98 80.21, 6.47 65.92 C8.96 51.63, 11.88 38.67, 15.82 28.53 C19.76 18.39, 27.65 8.43, 30.11 5.09 C32.56 1.76, 29.92 6.66, 30.55 8.5" stroke="#ffffff" stroke-width="4" fill="none"></path></g><g stroke-linecap="round" transform="translate(62.79163344528388 9.921143807275257) rotate(357.57822686639093 49.00860735625156 110.11033019419216)"><path d="M54.58 1.14 C60.85 0.85, 68.01 7.34, 73.65 14.88 C79.3 22.42, 84.5 34.18, 88.43 46.38 C92.35 58.58, 95.65 73.41, 97.19 88.08 C98.73 102.75, 99.11 119.96, 97.65 134.39 C96.2 148.82, 92.65 162.69, 88.46 174.65 C84.28 186.61, 78.27 198.74, 72.55 206.15 C66.83 213.56, 60.63 217.59, 54.16 219.1 C47.69 220.61, 39.98 219.76, 33.71 215.21 C27.45 210.66, 21.57 202.11, 16.55 191.79 C11.54 181.47, 6.34 167.2, 3.63 153.27 C0.93 139.35, 0.04 123.12, 0.32 108.22 C0.61 93.33, 2.73 77.17, 5.34 63.9 C7.95 50.63, 11.29 38.25, 15.98 28.61 C20.68 18.97, 26.34 10.58, 33.53 6.05 C40.72 1.51, 54.16 1.36, 59.14 1.38 C64.12 1.4, 63.68 4.27, 63.42 6.18 M31.27 7.09 C37.1 0.23, 44.96 0.46, 51.29 1.11 C57.61 1.76, 63.12 4.75, 69.22 10.96 C75.32 17.18, 83.48 26.91, 87.9 38.39 C92.31 49.87, 94.26 65.19, 95.71 79.86 C97.17 94.53, 97.75 111.41, 96.64 126.39 C95.52 141.37, 92.27 157.02, 89.03 169.74 C85.8 182.46, 82.26 194.43, 77.23 202.71 C72.2 210.99, 65.73 216.83, 58.84 219.42 C51.95 222.02, 42.4 222.28, 35.88 218.28 C29.35 214.28, 24.69 204.86, 19.7 195.42 C14.72 185.98, 9.15 174.75, 5.96 161.65 C2.78 148.54, 0.93 131.79, 0.57 116.77 C0.22 101.76, 1.8 85.47, 3.86 71.58 C5.91 57.69, 8.51 44.21, 12.9 33.43 C17.28 22.65, 27.04 10.74, 30.18 6.91 C33.31 3.08, 31.13 8.75, 31.71 10.46" stroke="#ffffff" stroke-width="4" fill="none"></path></g><g stroke-linecap="round" transform="translate(79.60212013335195 91.84425282412099) rotate(0 32.015309095339944 31.62005836576759)"><path d="M20.4 2.07 C26.19 -0.99, 34.27 -1.3, 40.87 0.69 C47.48 2.68, 56.11 8.29, 60.03 14.02 C63.95 19.75, 65.61 28.09, 64.42 35.06 C63.23 42.03, 58.14 51.06, 52.9 55.82 C47.66 60.58, 39.82 63.43, 32.99 63.63 C26.17 63.83, 17.18 61.09, 11.95 57.01 C6.73 52.93, 3.09 45.97, 1.64 39.17 C0.2 32.38, -0.92 22.59, 3.27 16.23 C7.45 9.88, 21.76 3.63, 26.75 1.05 C31.75 -1.54, 33.33 0.32, 33.23 0.72 M22.28 3.3 C28.26 0.5, 36.59 -1.05, 42.96 1.03 C49.33 3.11, 57.01 9.69, 60.49 15.78 C63.97 21.86, 65.25 30.68, 63.82 37.54 C62.38 44.41, 57.34 52.73, 51.86 56.97 C46.38 61.21, 37.59 63.34, 30.94 62.99 C24.29 62.64, 17.21 59.22, 11.95 54.87 C6.68 50.52, 0.64 43.42, -0.63 36.88 C-1.9 30.35, 0.77 21.64, 4.31 15.68 C7.85 9.72, 17.74 3.51, 20.59 1.15 C23.44 -1.21, 21.3 0.91, 21.39 1.51" stroke="#ffffff" stroke-width="4" fill="none"></path></g></svg>