<svg version="1.1" xmlns="http://www.w3.org/2000/svg" viewBox="0 0 1269.7819812969192 1199.846392266255" width="3809.3459438907576" height="3599.539176798765">
  <!-- svg-source:excalidraw -->
  
  <defs>
    <style class="style-fonts">
      @font-face {
        font-family: "Virgil";
        src: url("https://excalidraw.com/Virgil.woff2");
      }
      @font-face {
        font-family: "Cascadia";
        src: url("https://excalidraw.com/Cascadia.woff2");
      }
      @font-face {
        font-family: "Assistant";
        src: url("https://excalidraw.com/Assistant-Regular.woff2");
      }
    </style>
    
  </defs>
  <g stroke-linecap="round" transform="translate(1053.471894451155 550.7903414282825) rotate(239.37890232401318 41.09263424346523 118.16947757690025)"><path d="M59.6 12.32 C64.36 17.16, 68.95 30.29, 72.51 41.97 C76.08 53.66, 79.45 68.31, 80.98 82.44 C82.5 96.57, 82.2 112.02, 81.66 126.76 C81.13 141.51, 79.92 157.34, 77.77 170.9 C75.63 184.45, 72.74 198.04, 68.78 208.1 C64.83 218.16, 59.13 226.77, 54.03 231.27 C48.93 235.77, 43.42 236.33, 38.17 235.1 C32.92 233.87, 27.15 230.57, 22.53 223.89 C17.91 217.22, 13.77 206.69, 10.45 195.04 C7.12 183.39, 4.27 168.35, 2.57 154.01 C0.88 139.66, -0.15 123.77, 0.29 108.99 C0.72 94.21, 2.78 78.87, 5.2 65.32 C7.62 51.77, 10.96 37.5, 14.8 27.69 C18.64 17.87, 23.32 11.04, 28.22 6.44 C33.12 1.83, 38.25 -2.25, 44.19 0.05 C50.13 2.35, 59.77 14.72, 63.86 20.24 C67.96 25.77, 68.93 31.37, 68.76 33.22 M53.52 7.24 C58.73 10.12, 64.22 19.02, 68.23 28.69 C72.25 38.37, 75.12 51.85, 77.58 65.29 C80.05 78.73, 82.47 94.13, 83.01 109.34 C83.55 124.54, 82.45 142.33, 80.84 156.52 C79.24 170.71, 77.05 183.17, 73.37 194.48 C69.68 205.78, 63.5 217.22, 58.74 224.36 C53.97 231.51, 49.62 236.44, 44.76 237.33 C39.91 238.23, 34.5 234.47, 29.6 229.72 C24.69 224.98, 19.66 218.57, 15.33 208.87 C10.99 199.17, 6.11 185.19, 3.6 171.5 C1.08 157.81, 0.5 142.02, 0.23 126.74 C-0.04 111.46, 0.29 94.34, 1.99 79.8 C3.69 65.26, 7.11 50.51, 10.44 39.49 C13.76 28.47, 17.21 20.44, 21.95 13.67 C26.68 6.89, 33.56 0.11, 38.86 -1.15 C44.16 -2.41, 51.47 4.29, 53.76 6.1 C56.04 7.92, 52.55 7.97, 52.57 9.73" stroke="#ffffff" stroke-width="4" fill="none"></path></g><g stroke-linecap="round" transform="translate(1048.6009650883252 544.8974283647838) rotate(306.6269733252176 44.69723903235331 123.28907231700805)"><path d="M35.86 2.35 C41.08 -2.91, 47.81 -1.72, 53.31 1.17 C58.81 4.06, 64.3 11.07, 68.87 19.7 C73.44 28.33, 77.56 39.85, 80.73 52.97 C83.9 66.1, 86.71 82.86, 87.89 98.45 C89.08 114.04, 88.82 131.06, 87.82 146.5 C86.82 161.93, 84.74 178.06, 81.87 191.08 C79.01 204.09, 75.44 215.66, 70.65 224.56 C65.85 233.46, 58.94 241.24, 53.12 244.46 C47.29 247.68, 41.02 247.02, 35.69 243.89 C30.36 240.77, 25.83 234.33, 21.12 225.73 C16.42 217.13, 10.82 205.14, 7.45 192.27 C4.08 179.41, 1.99 163.73, 0.9 148.55 C-0.18 133.37, -0.14 116.77, 0.95 101.22 C2.05 85.66, 4.29 68.36, 7.45 55.21 C10.61 42.06, 14.99 31.39, 19.93 22.33 C24.87 13.27, 33.91 4.1, 37.1 0.85 C40.29 -2.4, 38.79 0.5, 39.06 2.81 M31.66 5.54 C36.52 -0.72, 43.27 -0.83, 49.09 0.48 C54.91 1.79, 61.46 5.94, 66.58 13.4 C71.71 20.86, 76.62 33.28, 79.83 45.23 C83.04 57.18, 84.35 70.31, 85.86 85.11 C87.36 99.91, 89.01 118.08, 88.87 134.04 C88.73 150, 87.5 166.99, 84.99 180.87 C82.49 194.75, 78.34 207.29, 73.82 217.33 C69.3 227.36, 63.2 236.21, 57.87 241.09 C52.53 245.97, 47.68 247.85, 41.82 246.61 C35.96 245.36, 28 240.84, 22.71 233.62 C17.43 226.39, 13.69 215.57, 10.1 203.24 C6.51 190.91, 2.68 174.47, 1.14 159.64 C-0.39 144.81, -0.02 129.89, 0.87 114.27 C1.75 98.65, 3.98 80.21, 6.47 65.92 C8.96 51.63, 11.88 38.67, 15.82 28.53 C19.76 18.39, 27.65 8.43, 30.11 5.09 C32.56 1.76, 29.92 6.66, 30.55 8.5" stroke="#ffffff" stroke-width="4" fill="none"></path></g><g stroke-linecap="round" transform="translate(1043.533150444915 555.8646687111229) rotate(357.57822686639093 49.00860735625179 110.11033019419216)"><path d="M54.58 1.14 C60.85 0.85, 68.01 7.34, 73.65 14.88 C79.3 22.42, 84.5 34.18, 88.43 46.38 C92.35 58.58, 95.65 73.41, 97.19 88.08 C98.73 102.75, 99.11 119.96, 97.65 134.39 C96.2 148.82, 92.65 162.69, 88.46 174.65 C84.28 186.61, 78.27 198.74, 72.55 206.15 C66.83 213.56, 60.63 217.59, 54.16 219.1 C47.69 220.61, 39.98 219.76, 33.71 215.21 C27.45 210.66, 21.57 202.11, 16.55 191.79 C11.54 181.47, 6.34 167.2, 3.63 153.27 C0.93 139.35, 0.04 123.12, 0.32 108.22 C0.61 93.33, 2.73 77.17, 5.34 63.9 C7.95 50.63, 11.29 38.25, 15.98 28.61 C20.68 18.97, 26.34 10.58, 33.53 6.05 C40.72 1.51, 54.16 1.36, 59.14 1.38 C64.12 1.4, 63.68 4.27, 63.42 6.18 M31.27 7.09 C37.1 0.23, 44.96 0.46, 51.29 1.11 C57.61 1.76, 63.12 4.75, 69.22 10.96 C75.32 17.18, 83.48 26.91, 87.9 38.39 C92.31 49.87, 94.26 65.19, 95.71 79.86 C97.17 94.53, 97.75 111.41, 96.64 126.39 C95.52 141.37, 92.27 157.02, 89.03 169.74 C85.8 182.46, 82.26 194.43, 77.23 202.71 C72.2 210.99, 65.73 216.83, 58.84 219.42 C51.95 222.02, 42.4 222.28, 35.88 218.28 C29.35 214.28, 24.69 204.86, 19.7 195.42 C14.72 185.98, 9.15 174.75, 5.96 161.65 C2.78 148.54, 0.93 131.79, 0.57 116.77 C0.22 101.76, 1.8 85.47, 3.86 71.58 C5.91 57.69, 8.51 44.21, 12.9 33.43 C17.28 22.65, 27.04 10.74, 30.18 6.91 C33.31 3.08, 31.13 8.75, 31.71 10.46" stroke="#ffffff" stroke-width="4" fill="none"></path></g><g stroke-linecap="round" transform="translate(1060.343637132983 637.7877777279687) rotate(0 32.015309095339944 31.62005836576759)"><path d="M20.4 2.07 C26.19 -0.99, 34.27 -1.3, 40.87 0.69 C47.48 2.68, 56.11 8.29, 60.03 14.02 C63.95 19.75, 65.61 28.09, 64.42 35.06 C63.23 42.03, 58.14 51.06, 52.9 55.82 C47.66 60.58, 39.82 63.43, 32.99 63.63 C26.17 63.83, 17.18 61.09, 11.95 57.01 C6.73 52.93, 3.09 45.97, 1.64 39.17 C0.2 32.38, -0.92 22.59, 3.27 16.23 C7.45 9.88, 21.76 3.63, 26.75 1.05 C31.75 -1.54, 33.33 0.32, 33.23 0.72 M22.28 3.3 C28.26 0.5, 36.59 -1.05, 42.96 1.03 C49.33 3.11, 57.01 9.69, 60.49 15.78 C63.97 21.86, 65.25 30.68, 63.82 37.54 C62.38 44.41, 57.34 52.73, 51.86 56.97 C46.38 61.21, 37.59 63.34, 30.94 62.99 C24.29 62.64, 17.21 59.22, 11.95 54.87 C6.68 50.52, 0.64 43.42, -0.63 36.88 C-1.9 30.35, 0.77 21.64, 4.31 15.68 C7.85 9.72, 17.74 3.51, 20.59 1.15 C23.44 -1.21, 21.3 0.91, 21.39 1.51" stroke="#ffffff" stroke-width="4" fill="none"></path></g><g stroke-linecap="round"><g transform="translate(25.317060033751204 708.7618124711062) rotate(350.2932483617408 3.162005836576782 -122.52772616734948)"><path d="M0.32 -1.19 C1.13 -41.98, 4.18 -203.44, 5.21 -244.12 M-0.96 0.8 C0.17 -40.37, 6.2 -204.94, 7.34 -245.75" stroke="#ffffff" stroke-width="4" fill="none"></path></g><g transform="translate(25.317060033751204 708.7618124711062) rotate(350.2932483617408 3.162005836576782 -122.52772616734948)"><path d="M15.12 -221.99 C10.43 -231.68, 11.41 -237.33, 7.34 -245.75 M15.12 -221.99 C13.53 -228.54, 9.72 -235.84, 7.34 -245.75" stroke="#ffffff" stroke-width="4" fill="none"></path></g><g transform="translate(25.317060033751204 708.7618124711062) rotate(350.2932483617408 3.162005836576782 -122.52772616734948)"><path d="M-1.98 -222.55 C-1 -232.1, 5.63 -237.57, 7.34 -245.75 M-1.98 -222.55 C1.3 -228.94, 2.35 -236.08, 7.34 -245.75" stroke="#ffffff" stroke-width="4" fill="none"></path></g></g><mask></mask><g stroke-linecap="round"><g transform="translate(45.87536875525484 671.1085885571865) rotate(350.2932483617408 207.11138229577773 3.9525072957209773)"><path d="M-1.11 0.94 C67.91 2.42, 345.05 6.55, 414.44 7.72 M0.51 0.39 C69.36 2.16, 344.52 7.68, 413.6 9.15" stroke="#ffffff" stroke-width="4" fill="none"></path></g><g transform="translate(45.87536875525484 671.1085885571865) rotate(350.2932483617408 207.11138229577773 3.9525072957209773)"><path d="M389.94 17.22 C399.32 15.15, 405.18 13.82, 413.6 9.15 M389.94 17.22 C396.22 14.4, 403.28 11.53, 413.6 9.15" stroke="#ffffff" stroke-width="4" fill="none"></path></g><g transform="translate(45.87536875525484 671.1085885571865) rotate(350.2932483617408 207.11138229577773 3.9525072957209773)"><path d="M390.29 0.12 C399.39 3.65, 405.13 7.91, 413.6 9.15 M390.29 0.12 C396.61 2.45, 403.56 4.73, 413.6 9.15" stroke="#ffffff" stroke-width="4" fill="none"></path></g></g><mask></mask><g stroke-linecap="round"><g transform="translate(72.12272926838295 660.0504685199743) rotate(350.2932483617408 33.59631201362822 -27.667551070046613)"><path d="M0.21 -0.19 C11.76 -9.57, 56.86 -46.17, 68.19 -55.32 M-1.13 -1.33 C10.44 -10.59, 56.25 -45.06, 67.76 -53.78" stroke="#ffffff" stroke-width="4" fill="none"></path></g></g><mask></mask><g stroke-linecap="round"><g transform="translate(137.406863227151 592.5098421427979) rotate(350.2932483617408 35.572565661488625 22.924542315181554)"><path d="M1 0.01 C12.98 7.73, 60.59 38.52, 72.13 46.09 M0.06 -1.03 C11.96 6.32, 59.6 36.16, 71.7 44.09" stroke="#ffffff" stroke-width="4" fill="none"></path></g></g><mask></mask><g stroke-linecap="round"><g transform="translate(201.19605756440887 618.4857444588964) rotate(350.2932483617408 82.60740248056777 -65.6116211089678)"><path d="M0.98 0.24 C28.2 -21.7, 137.08 -109.57, 164.28 -131.64 M0.04 -0.68 C27.54 -22.46, 138.75 -108.54, 166.51 -130.32" stroke="#ffffff" stroke-width="4" fill="none"></path></g><g transform="translate(201.19605756440887 618.4857444588964) rotate(350.2932483617408 82.60740248056777 -65.6116211089678)"><path d="M153.23 -109.14 C158.71 -118.91, 162.71 -127.16, 166.51 -130.32 M153.23 -109.14 C156.82 -114.5, 158.62 -117.72, 166.51 -130.32" stroke="#ffffff" stroke-width="4" fill="none"></path></g><g transform="translate(201.19605756440887 618.4857444588964) rotate(350.2932483617408 82.60740248056777 -65.6116211089678)"><path d="M142.72 -122.63 C152.23 -127.32, 160.25 -130.4, 166.51 -130.32 M142.72 -122.63 C148.71 -125.07, 152.83 -125.3, 166.51 -130.32" stroke="#ffffff" stroke-width="4" fill="none"></path></g></g><mask></mask><g stroke-linecap="round" transform="translate(268.9327198119063 494.2053546872777) rotate(350.2932483617408 2.371504377432302 1.976253647860517)"><path d="M2.22 0.28 C2.7 0.15, 2.97 0, 3.42 0.18 C3.87 0.35, 4.69 0.9, 4.91 1.32 C5.14 1.75, 5 2.38, 4.78 2.74 C4.55 3.1, 4.02 3.29, 3.55 3.49 C3.07 3.68, 2.47 3.92, 1.93 3.9 C1.4 3.88, 0.61 3.69, 0.33 3.36 C0.04 3.04, 0.22 2.42, 0.21 1.95 C0.21 1.47, -0.03 0.84, 0.28 0.51 C0.6 0.19, 1.76 0.11, 2.1 -0.01 C2.43 -0.13, 2.3 -0.21, 2.3 -0.21 M1.6 -0.37 C2.02 -0.44, 3.17 0.38, 3.71 0.72 C4.26 1.05, 4.71 1.36, 4.86 1.67 C5.01 1.97, 4.88 2.17, 4.6 2.56 C4.31 2.94, 3.62 3.74, 3.13 3.98 C2.65 4.22, 2.1 4.17, 1.67 4 C1.24 3.82, 0.79 3.26, 0.56 2.96 C0.33 2.65, 0.28 2.6, 0.3 2.18 C0.31 1.76, 0.38 0.75, 0.64 0.43 C0.89 0.11, 1.5 0.3, 1.82 0.24 C2.13 0.17, 2.51 -0.05, 2.51 0.02" stroke="#ffffff" stroke-width="4" fill="none"></path></g><g stroke-linecap="round" transform="translate(343.0835177497952 557.3089232803555) rotate(350.2932483617408 2.371504377432302 1.976253647860517)"><path d="M2.38 -0.12 C2.88 -0.16, 3.91 0.21, 4.33 0.54 C4.76 0.86, 4.93 1.44, 4.94 1.83 C4.95 2.22, 4.69 2.53, 4.38 2.88 C4.06 3.22, 3.57 3.7, 3.04 3.88 C2.51 4.05, 1.62 4.11, 1.19 3.94 C0.76 3.76, 0.67 3.29, 0.43 2.85 C0.2 2.42, -0.34 1.74, -0.24 1.32 C-0.14 0.9, 0.53 0.59, 1.04 0.33 C1.54 0.06, 2.54 -0.17, 2.8 -0.25 C3.05 -0.33, 2.66 -0.28, 2.58 -0.16 M2.75 0.43 C3.34 0.57, 4 0.72, 4.34 0.93 C4.67 1.15, 4.83 1.3, 4.76 1.72 C4.69 2.13, 4.25 3.05, 3.91 3.43 C3.56 3.8, 3.12 3.97, 2.69 3.99 C2.27 4, 1.72 3.66, 1.35 3.5 C0.98 3.34, 0.69 3.41, 0.49 3.02 C0.28 2.63, 0.07 1.59, 0.13 1.17 C0.2 0.76, 0.36 0.73, 0.86 0.53 C1.36 0.34, 2.87 -0.01, 3.13 -0.02 C3.39 -0.03, 2.59 0.5, 2.44 0.48" stroke="#ffffff" stroke-width="4" fill="none"></path></g><g stroke-linecap="round" transform="translate(280.91287681098765 606.4386680087773) rotate(350.2932483617408 2.371504377432302 1.976253647860517)"><path d="M2.96 -0.03 C3.51 0.03, 4.02 0.38, 4.32 0.66 C4.63 0.94, 4.8 1.23, 4.8 1.65 C4.8 2.07, 4.66 2.76, 4.31 3.17 C3.96 3.57, 3.18 3.97, 2.71 4.07 C2.24 4.17, 1.97 4.02, 1.49 3.77 C1.02 3.52, 0.09 3, -0.14 2.59 C-0.37 2.19, -0.1 1.78, 0.13 1.36 C0.37 0.93, 0.85 0.31, 1.28 0.05 C1.71 -0.21, 2.49 -0.23, 2.69 -0.19 C2.9 -0.14, 2.47 0.31, 2.51 0.33 M2.3 0.32 C2.76 0.15, 3.34 -0.07, 3.67 0.16 C4 0.38, 4.16 1.2, 4.28 1.65 C4.39 2.09, 4.48 2.51, 4.35 2.82 C4.22 3.13, 3.88 3.26, 3.51 3.49 C3.15 3.71, 2.65 4.26, 2.15 4.17 C1.65 4.08, 0.91 3.29, 0.52 2.95 C0.12 2.6, -0.31 2.49, -0.22 2.1 C-0.12 1.71, 0.75 0.88, 1.09 0.6 C1.44 0.33, 1.76 0.59, 1.85 0.44 C1.94 0.3, 1.57 -0.24, 1.64 -0.26" stroke="#ffffff" stroke-width="4" fill="none"></path></g><g stroke-linecap="round" transform="translate(246.76194364370986 552.1316137376516) rotate(350.2932483617408 2.371504377432302 1.976253647860517)"><path d="M2.43 0.03 C2.87 -0.06, 3.46 -0.09, 3.84 0.15 C4.23 0.4, 4.65 1.03, 4.73 1.5 C4.81 1.98, 4.52 2.64, 4.32 3.03 C4.12 3.41, 4.02 3.71, 3.53 3.83 C3.04 3.95, 1.89 3.86, 1.37 3.73 C0.86 3.6, 0.62 3.41, 0.42 3.04 C0.22 2.66, 0.16 1.94, 0.2 1.49 C0.25 1.04, 0.39 0.54, 0.69 0.33 C0.99 0.12, 1.67 0.35, 1.98 0.26 C2.29 0.16, 2.54 -0.25, 2.55 -0.25 M2.72 -0.14 C3.11 -0.11, 3.48 0.56, 3.78 0.92 C4.08 1.27, 4.44 1.65, 4.53 1.99 C4.61 2.33, 4.52 2.59, 4.29 2.95 C4.06 3.32, 3.66 4.09, 3.16 4.18 C2.66 4.27, 1.82 3.7, 1.29 3.49 C0.76 3.29, 0.07 3.29, -0.05 2.93 C-0.16 2.57, 0.43 1.7, 0.59 1.33 C0.74 0.96, 0.62 1, 0.9 0.73 C1.18 0.46, 1.94 -0.2, 2.27 -0.3 C2.59 -0.39, 2.82 0.08, 2.86 0.16" stroke="#ffffff" stroke-width="4" fill="none"></path></g><g stroke-linecap="round" transform="translate(197.26327827271416 586.2620337205517) rotate(350.2932483617408 2.371504377432302 1.976253647860517)"><path d="M2.38 -0.23 C2.84 -0.27, 3.55 0.09, 3.91 0.43 C4.27 0.76, 4.39 1.34, 4.52 1.76 C4.65 2.18, 4.93 2.65, 4.66 2.97 C4.39 3.29, 3.41 3.53, 2.9 3.68 C2.4 3.82, 2.03 3.97, 1.63 3.82 C1.24 3.66, 0.81 3.13, 0.53 2.74 C0.25 2.35, -0.02 1.79, -0.02 1.46 C-0.02 1.13, 0.08 1.04, 0.52 0.74 C0.96 0.45, 2.34 -0.18, 2.62 -0.29 C2.89 -0.4, 2.16 -0.01, 2.17 0.1 M2.26 0.27 C2.7 0.33, 3.44 0.47, 3.86 0.69 C4.28 0.91, 4.67 1.14, 4.79 1.59 C4.91 2.05, 4.89 3.06, 4.59 3.4 C4.29 3.75, 3.56 3.57, 2.98 3.66 C2.4 3.76, 1.5 4.12, 1.12 3.97 C0.73 3.82, 0.88 3.1, 0.68 2.75 C0.47 2.4, -0.11 2.32, -0.12 1.86 C-0.14 1.41, 0.12 0.31, 0.61 0.02 C1.09 -0.27, 2.47 0.11, 2.78 0.11 C3.08 0.11, 2.45 -0.02, 2.44 0.01" stroke="#ffffff" stroke-width="4" fill="none"></path></g><g stroke-linecap="round" transform="translate(236.02777786789147 625.3442237767331) rotate(350.2932483617408 2.371504377432302 1.976253647860517)"><path d="M2.45 -0.01 C2.89 0.04, 3.32 0.36, 3.74 0.64 C4.15 0.93, 4.87 1.33, 4.92 1.69 C4.98 2.06, 4.38 2.49, 4.09 2.84 C3.8 3.19, 3.58 3.69, 3.18 3.81 C2.79 3.93, 2.21 3.74, 1.72 3.56 C1.24 3.38, 0.58 3.02, 0.26 2.73 C-0.07 2.45, -0.39 2.3, -0.24 1.87 C-0.1 1.44, 0.7 0.46, 1.11 0.16 C1.52 -0.14, 1.91 0.05, 2.19 0.06 C2.47 0.07, 2.71 0.17, 2.78 0.2 M2.04 0.09 C2.58 -0.04, 3.36 -0.13, 3.85 0.16 C4.34 0.44, 4.87 1.39, 4.98 1.8 C5.09 2.22, 4.83 2.28, 4.52 2.65 C4.2 3.01, 3.47 3.81, 3.08 4.01 C2.68 4.21, 2.63 3.92, 2.15 3.83 C1.66 3.74, 0.6 3.88, 0.17 3.48 C-0.26 3.08, -0.54 1.89, -0.42 1.42 C-0.29 0.94, 0.5 0.87, 0.92 0.63 C1.33 0.39, 1.84 0.05, 2.08 -0.03 C2.31 -0.11, 2.29 0.19, 2.33 0.15" stroke="#ffffff" stroke-width="4" fill="none"></path></g><g stroke-linecap="round" transform="translate(171.73481403641836 633.935870151773) rotate(350.2932483617408 2.371504377432302 1.976253647860517)"><path d="M1.92 0.18 C2.42 0.12, 3.49 0.18, 3.89 0.36 C4.29 0.55, 4.2 0.87, 4.32 1.27 C4.43 1.66, 4.69 2.36, 4.57 2.73 C4.46 3.1, 4.09 3.32, 3.62 3.48 C3.16 3.64, 2.35 3.7, 1.78 3.69 C1.2 3.68, 0.44 3.76, 0.18 3.41 C-0.07 3.06, 0.21 2.03, 0.25 1.57 C0.28 1.12, 0.02 0.92, 0.39 0.68 C0.75 0.45, 2.09 0.27, 2.42 0.16 C2.76 0.06, 2.46 0.09, 2.4 0.06 M2.63 -0.23 C3.2 -0.19, 3.99 0.55, 4.34 0.85 C4.7 1.15, 4.81 1.16, 4.77 1.58 C4.72 1.99, 4.31 2.95, 4.1 3.32 C3.88 3.7, 3.95 3.7, 3.46 3.85 C2.97 3.99, 1.77 4.42, 1.16 4.19 C0.54 3.97, -0.06 2.93, -0.21 2.49 C-0.36 2.05, 0.07 1.93, 0.24 1.56 C0.42 1.2, 0.44 0.56, 0.84 0.32 C1.24 0.08, 2.35 0.24, 2.66 0.11 C2.96 -0.01, 2.67 -0.44, 2.65 -0.42" stroke="#ffffff" stroke-width="4" fill="none"></path></g><g stroke-linecap="round" transform="translate(143.86869125085377 621.058868298913) rotate(350.2932483617408 2.371504377432302 1.976253647860517)"><path d="M2.57 0.04 C3.03 -0.04, 3.2 0.05, 3.56 0.31 C3.92 0.57, 4.55 1.2, 4.73 1.59 C4.91 1.99, 4.88 2.36, 4.62 2.69 C4.35 3.03, 3.7 3.38, 3.14 3.62 C2.59 3.85, 1.72 4.25, 1.29 4.09 C0.86 3.94, 0.82 3.08, 0.57 2.68 C0.31 2.28, -0.32 2.05, -0.23 1.7 C-0.13 1.36, 0.65 0.91, 1.12 0.62 C1.59 0.34, 2.4 0.15, 2.6 0.02 C2.8 -0.12, 2.34 -0.2, 2.33 -0.2 M2.73 0.27 C3.21 0.26, 3.68 0, 3.98 0.27 C4.27 0.54, 4.35 1.45, 4.5 1.9 C4.65 2.35, 5.13 2.58, 4.86 2.98 C4.6 3.37, 3.54 4.19, 2.91 4.28 C2.27 4.37, 1.47 3.71, 1.06 3.5 C0.65 3.28, 0.65 3.34, 0.45 3.01 C0.25 2.69, -0.21 1.95, -0.12 1.54 C-0.04 1.13, 0.54 0.87, 0.98 0.53 C1.42 0.2, 2.27 -0.39, 2.52 -0.47 C2.76 -0.55, 2.39 -0.01, 2.45 0.06" stroke="#ffffff" stroke-width="4" fill="none"></path></g><g stroke-linecap="round" transform="translate(155.8434296672517 564.4756950316503) rotate(350.2932483617408 2.371504377432302 1.976253647860517)"><path d="M2.25 -0.14 C2.7 -0.14, 3.62 0.27, 4.07 0.54 C4.51 0.82, 4.89 1.14, 4.92 1.54 C4.95 1.93, 4.64 2.46, 4.27 2.89 C3.9 3.33, 3.15 4.04, 2.71 4.14 C2.27 4.24, 2.08 3.69, 1.62 3.48 C1.16 3.27, 0.18 3.19, -0.03 2.88 C-0.24 2.57, 0.15 2.04, 0.36 1.63 C0.56 1.21, 0.85 0.69, 1.21 0.38 C1.57 0.07, 2.24 -0.15, 2.5 -0.23 C2.77 -0.31, 2.79 -0.17, 2.81 -0.09 M2.21 -0.22 C2.6 -0.29, 3.04 0.3, 3.53 0.58 C4.01 0.86, 5.01 1, 5.14 1.44 C5.27 1.89, 4.67 2.92, 4.3 3.25 C3.93 3.59, 3.32 3.33, 2.92 3.45 C2.53 3.58, 2.35 4.05, 1.9 3.98 C1.46 3.91, 0.55 3.41, 0.25 3.06 C-0.06 2.71, 0 2.39, 0.09 1.9 C0.18 1.4, 0.43 0.41, 0.79 0.1 C1.14 -0.21, 1.89 0.07, 2.19 0.03 C2.5 -0.01, 2.68 -0.21, 2.64 -0.16" stroke="#ffffff" stroke-width="4" fill="none"></path></g><g stroke-linecap="round" transform="translate(100.16251983644906 581.2180070969388) rotate(350.2932483617408 2.371504377432302 1.976253647860517)"><path d="M2.44 -0.03 C3.01 -0.07, 3.75 -0.02, 4.12 0.23 C4.49 0.47, 4.67 0.95, 4.67 1.46 C4.66 1.96, 4.33 2.9, 4.12 3.25 C3.9 3.6, 3.86 3.45, 3.38 3.55 C2.9 3.66, 1.72 3.96, 1.26 3.88 C0.79 3.8, 0.74 3.46, 0.57 3.09 C0.41 2.71, 0.22 2.09, 0.25 1.61 C0.28 1.13, 0.38 0.49, 0.78 0.2 C1.18 -0.09, 2.36 -0.12, 2.66 -0.14 C2.97 -0.16, 2.67 -0.01, 2.61 0.08 M2.37 0.22 C2.92 0.27, 4.16 0.21, 4.52 0.55 C4.88 0.88, 4.63 1.86, 4.52 2.24 C4.41 2.61, 4.11 2.5, 3.88 2.8 C3.65 3.09, 3.59 3.83, 3.14 3.98 C2.69 4.14, 1.67 3.91, 1.19 3.73 C0.72 3.55, 0.47 3.37, 0.3 2.91 C0.13 2.46, 0.04 1.41, 0.16 0.99 C0.28 0.57, 0.55 0.57, 1.03 0.38 C1.51 0.18, 2.82 -0.16, 3.04 -0.2 C3.26 -0.24, 2.35 0.1, 2.34 0.15" stroke="#ffffff" stroke-width="4" fill="none"></path></g><g stroke-linecap="round" transform="translate(74.99287798867181 621.6126187184188) rotate(350.2932483617408 2.371504377432302 1.976253647860517)"><path d="M2.39 -0.26 C2.86 -0.34, 3.38 -0.17, 3.71 0.16 C4.05 0.5, 4.21 1.35, 4.39 1.75 C4.56 2.15, 4.96 2.2, 4.75 2.55 C4.53 2.9, 3.54 3.59, 3.08 3.84 C2.62 4.09, 2.41 4.16, 2 4.03 C1.59 3.91, 0.96 3.52, 0.61 3.1 C0.26 2.68, -0.14 1.98, -0.09 1.53 C-0.04 1.09, 0.5 0.66, 0.9 0.41 C1.29 0.16, 2.09 0.07, 2.29 0.04 C2.49 0.01, 2.08 0.21, 2.1 0.24 M2.66 -0.03 C3.14 -0.05, 3.28 0.6, 3.54 0.8 C3.8 1, 4.05 0.81, 4.23 1.17 C4.42 1.52, 4.85 2.5, 4.67 2.93 C4.5 3.36, 3.65 3.56, 3.18 3.74 C2.7 3.92, 2.26 4.17, 1.81 3.99 C1.36 3.8, 0.79 2.98, 0.49 2.62 C0.2 2.26, -0.09 2.18, 0.03 1.8 C0.14 1.43, 0.85 0.64, 1.17 0.36 C1.49 0.07, 1.71 0.18, 1.95 0.1 C2.19 0.03, 2.49 -0.16, 2.61 -0.1" stroke="#ffffff" stroke-width="4" fill="none"></path></g><g stroke-linecap="round" transform="translate(113.16270635434239 643.1529047535116) rotate(350.2932483617408 2.371504377432302 1.976253647860517)"><path d="M2.29 -0.21 C2.69 -0.16, 3.14 0.44, 3.58 0.7 C4.03 0.95, 4.84 0.93, 4.94 1.31 C5.04 1.7, 4.42 2.55, 4.18 3 C3.94 3.44, 3.89 3.83, 3.49 3.98 C3.1 4.12, 2.34 4.06, 1.8 3.86 C1.26 3.65, 0.5 3.14, 0.23 2.75 C-0.03 2.36, 0.1 1.89, 0.2 1.52 C0.31 1.15, 0.54 0.74, 0.88 0.52 C1.21 0.29, 1.93 0.27, 2.22 0.2 C2.5 0.12, 2.59 0.08, 2.6 0.06 M2.33 0.43 C2.66 0.39, 3.16 0, 3.59 0.24 C4.01 0.48, 4.8 1.4, 4.89 1.87 C4.99 2.34, 4.46 2.69, 4.16 3.05 C3.86 3.4, 3.55 3.94, 3.1 3.98 C2.65 4.03, 1.96 3.5, 1.48 3.31 C1.01 3.12, 0.41 3.2, 0.25 2.86 C0.09 2.52, 0.45 1.69, 0.53 1.29 C0.61 0.89, 0.34 0.71, 0.74 0.47 C1.15 0.24, 2.58 -0.11, 2.95 -0.14 C3.32 -0.17, 3.08 0.18, 2.96 0.32" stroke="#ffffff" stroke-width="4" fill="none"></path></g><g stroke-linecap="round" transform="translate(163.60455597179407 586.4056260112111) rotate(350.2932483617408 2.371504377432302 1.976253647860517)"><path d="M1.78 0.27 C2.3 0.18, 3.46 -0.18, 3.89 0.02 C4.32 0.21, 4.22 0.96, 4.37 1.44 C4.53 1.92, 4.96 2.5, 4.84 2.89 C4.72 3.27, 4.19 3.62, 3.67 3.75 C3.16 3.87, 2.26 3.79, 1.75 3.67 C1.25 3.55, 0.95 3.33, 0.66 3.04 C0.38 2.75, 0.09 2.29, 0.06 1.92 C0.03 1.56, 0.09 1.15, 0.46 0.84 C0.83 0.52, 2.04 0.19, 2.3 0.03 C2.56 -0.12, 2.02 -0.18, 2.02 -0.1 M1.91 -0.32 C2.45 -0.4, 3.6 0.23, 4.04 0.54 C4.47 0.86, 4.45 1.15, 4.53 1.57 C4.61 1.99, 4.72 2.75, 4.52 3.05 C4.31 3.35, 3.78 3.22, 3.29 3.35 C2.8 3.49, 2.02 3.96, 1.6 3.86 C1.18 3.77, 1.09 3.13, 0.79 2.78 C0.49 2.43, -0.28 2.16, -0.21 1.75 C-0.13 1.35, 0.74 0.58, 1.24 0.33 C1.73 0.09, 2.63 0.24, 2.76 0.28 C2.9 0.31, 2.04 0.52, 2.04 0.54" stroke="#ffffff" stroke-width="4" fill="none"></path></g><g stroke-linecap="round" transform="translate(236.84788300806758 573.877031616543) rotate(350.2932483617408 2.371504377432302 1.976253647860517)"><path d="M2.36 -0.28 C2.84 -0.38, 3.01 0.09, 3.44 0.4 C3.86 0.71, 4.71 1.18, 4.93 1.58 C5.15 1.98, 5.01 2.47, 4.74 2.79 C4.47 3.11, 3.77 3.35, 3.31 3.51 C2.85 3.67, 2.44 3.81, 1.98 3.75 C1.51 3.7, 0.87 3.46, 0.51 3.17 C0.16 2.89, -0.21 2.46, -0.16 2.04 C-0.1 1.61, 0.48 0.99, 0.84 0.63 C1.2 0.26, 1.75 -0.09, 2 -0.14 C2.25 -0.18, 2.31 0.33, 2.33 0.36 M2.87 0.12 C3.4 0.2, 3.64 0.3, 3.97 0.62 C4.29 0.94, 4.76 1.67, 4.82 2.02 C4.88 2.37, 4.64 2.41, 4.32 2.73 C3.99 3.05, 3.31 3.8, 2.87 3.93 C2.44 4.06, 2.2 3.7, 1.71 3.51 C1.22 3.33, 0.13 3.19, -0.07 2.81 C-0.27 2.43, 0.26 1.59, 0.53 1.22 C0.8 0.84, 1.23 0.69, 1.54 0.58 C1.86 0.46, 2.14 0.57, 2.41 0.52 C2.67 0.46, 3.01 0.27, 3.12 0.25" stroke="#ffffff" stroke-width="4" fill="none"></path></g><g stroke-linecap="round" transform="translate(286.2234692727852 510.89627823285974) rotate(350.2932483617408 2.371504377432302 1.976253647860517)"><path d="M2.41 0.08 C2.9 0.18, 3.97 0.49, 4.39 0.79 C4.82 1.1, 4.99 1.54, 4.95 1.9 C4.91 2.26, 4.47 2.62, 4.15 2.94 C3.84 3.25, 3.54 3.62, 3.07 3.76 C2.6 3.9, 1.85 3.9, 1.34 3.77 C0.83 3.63, 0.2 3.33, 0.02 2.94 C-0.15 2.54, 0.13 1.87, 0.29 1.41 C0.44 0.95, 0.51 0.35, 0.94 0.17 C1.36 -0.01, 2.55 0.37, 2.85 0.33 C3.14 0.29, 2.68 -0.01, 2.7 -0.08 M1.95 -0.03 C2.41 -0.09, 3.31 0.28, 3.77 0.44 C4.24 0.61, 4.6 0.57, 4.73 0.96 C4.86 1.35, 4.7 2.37, 4.55 2.8 C4.41 3.23, 4.37 3.35, 3.87 3.55 C3.37 3.74, 2.06 4.08, 1.56 3.99 C1.06 3.9, 1.05 3.31, 0.87 2.99 C0.68 2.68, 0.51 2.43, 0.43 2.12 C0.34 1.8, 0.01 1.42, 0.36 1.1 C0.71 0.78, 2.18 0.34, 2.54 0.2 C2.9 0.06, 2.51 0.22, 2.52 0.25" stroke="#ffffff" stroke-width="4" fill="none"></path></g><g stroke-linecap="round" transform="translate(298.13687925355725 561.789312347918) rotate(350.2932483617408 2.371504377432302 1.976253647860517)"><path d="M2.31 0.18 C2.86 0.09, 3.45 0.15, 3.82 0.31 C4.19 0.47, 4.36 0.74, 4.52 1.12 C4.67 1.49, 4.91 2.12, 4.75 2.56 C4.59 3, 4.06 3.49, 3.55 3.75 C3.05 4.01, 2.21 4.2, 1.73 4.11 C1.25 4.02, 1.01 3.61, 0.69 3.22 C0.38 2.83, -0.16 2.15, -0.15 1.77 C-0.14 1.4, 0.37 1.29, 0.74 0.98 C1.11 0.66, 1.79 0.07, 2.08 -0.13 C2.37 -0.33, 2.5 -0.32, 2.47 -0.24 M2.53 0.11 C3.05 0.02, 3.67 -0.23, 4.03 0.03 C4.4 0.3, 4.6 1.26, 4.73 1.72 C4.87 2.18, 5.15 2.44, 4.84 2.81 C4.53 3.19, 3.36 3.81, 2.87 3.95 C2.38 4.09, 2.26 3.79, 1.9 3.67 C1.54 3.54, 1.06 3.45, 0.7 3.19 C0.34 2.92, -0.35 2.5, -0.25 2.07 C-0.15 1.64, 0.81 0.92, 1.32 0.61 C1.84 0.3, 2.58 0.27, 2.84 0.2 C3.11 0.13, 3.01 0.17, 2.92 0.19" stroke="#ffffff" stroke-width="4" fill="none"></path></g><g stroke-linecap="round"><g transform="translate(82.97301706454618 779.3700483929703) rotate(25.748176511675208 20.157787208176842 139.91875826852163)"><path d="M-0.52 0.47 C5.9 47.05, 32.51 233.8, 39.3 280.35 M1.41 -0.32 C8.12 45.81, 35.15 231.59, 41.48 278.5" stroke="#ffffff" stroke-width="4" fill="none"></path></g></g><mask></mask><g stroke-linecap="round"><g transform="translate(200.72246778806402 818.0838266977979) rotate(25.748176511675208 20.157787208176842 139.91875826852163)"><path d="M0.83 -0.39 C7.48 46.39, 33.36 233.25, 39.79 280.09 M-0.19 -1.65 C6.26 44.81, 31.57 231.36, 38.57 278.1" stroke="#ffffff" stroke-width="4" fill="none"></path></g></g><mask></mask><g stroke-linecap="round"><g transform="translate(317.6181553182423 860.7559073584296) rotate(25.748176511675208 20.157787208176842 139.91875826852163)"><path d="M-1.07 -0.02 C5.61 46.86, 32.5 233.87, 39.51 280.57 M0.57 -1.08 C7.67 45.52, 35.13 232.31, 41.8 278.84" stroke="#ffffff" stroke-width="4" fill="none"></path></g></g><mask></mask><g stroke-linecap="round"><g transform="translate(420.8255919800704 894.6762604513597) rotate(25.748176511675208 20.157787208176842 139.91875826852163)"><path d="M0.32 -0.19 C6.87 46.42, 33.49 232.79, 40.27 279.39 M-0.96 -1.34 C5.33 45.47, 32.37 233.72, 39.3 280.69" stroke="#ffffff" stroke-width="4" fill="none"></path></g></g><mask></mask><g stroke-linecap="round"><g transform="translate(518.2002590118354 864.1130809695359) rotate(25.748176511675208 -224.10716366737825 30.829556906623452)"><path d="M0.64 -0.57 C-73.77 9.43, -372.62 50.43, -447.53 61 M-0.48 1.74 C-74.89 12.41, -373.22 52.3, -448.12 62.2" stroke="#ffffff" stroke-width="4" fill="none"></path></g></g><mask></mask><g stroke-linecap="round" transform="translate(129.64358952580642 34.514406775582756) rotate(386.61827214255595 27.272300340474203 27.272300340474487)"><path d="M28.35 -0.38 C33.94 -0.34, 40.57 3.46, 45.01 7.43 C49.46 11.39, 54.26 17.78, 55.01 23.4 C55.76 29.02, 52.82 36.13, 49.52 41.14 C46.21 46.16, 40.46 51.6, 35.17 53.47 C29.88 55.33, 23.19 54.52, 17.76 52.34 C12.32 50.17, 5.38 45.66, 2.55 40.41 C-0.28 35.16, -0.48 26.65, 0.76 20.84 C2 15.03, 5.14 9.14, 10 5.55 C14.86 1.96, 26.36 0.13, 29.94 -0.72 C33.52 -1.56, 31.54 -0.09, 31.47 0.5 M28.44 0.2 C34.18 0.31, 41.69 2.81, 46.22 6.85 C50.74 10.9, 55.06 18.27, 55.58 24.49 C56.11 30.7, 52.82 39.34, 49.37 44.15 C45.91 48.96, 40.38 51.9, 34.84 53.33 C29.29 54.76, 21.45 54.98, 16.08 52.74 C10.72 50.51, 5.18 45.09, 2.64 39.91 C0.1 34.73, -0.54 27.57, 0.84 21.66 C2.22 15.76, 5.88 8.04, 10.93 4.48 C15.97 0.92, 27.78 1.03, 31.11 0.28 C34.45 -0.48, 31.39 -0.47, 30.94 -0.03" stroke="#ffffff" stroke-width="4" fill="none"></path></g><g stroke-linecap="round" transform="translate(220.1991977278467 121.30536806823704) rotate(386.61827214255595 27.667551070046557 28.06280179961874)"><path d="M32.77 1.08 C38.16 1.64, 43.98 4.45, 47.79 8.91 C51.6 13.36, 55.56 21.65, 55.64 27.81 C55.72 33.98, 51.97 41.1, 48.28 45.89 C44.58 50.68, 39.28 55.53, 33.46 56.57 C27.64 57.61, 18.6 55.17, 13.34 52.13 C8.07 49.08, 3.97 43.79, 1.85 38.3 C-0.27 32.82, -1.27 24.82, 0.62 19.2 C2.51 13.57, 7.51 7.51, 13.2 4.56 C18.9 1.6, 31.02 1.94, 34.81 1.48 C38.61 1.03, 36.13 1.64, 35.98 1.84 M40.24 1.49 C45.22 3.64, 49.07 11.64, 51.48 17.48 C53.9 23.32, 56.12 30.98, 54.75 36.53 C53.38 42.07, 48.39 47.29, 43.28 50.76 C38.18 54.23, 30.08 57.99, 24.12 57.36 C18.16 56.72, 11.66 51.49, 7.51 46.97 C3.37 42.44, -0.11 36.06, -0.76 30.23 C-1.41 24.39, -0.03 16.86, 3.61 11.95 C7.25 7.04, 15.33 2.43, 21.06 0.78 C26.78 -0.87, 34.84 1.55, 37.95 2.06 C41.07 2.58, 39.78 3.14, 39.72 3.86" stroke="#ffffff" stroke-width="4" fill="none"></path></g><g stroke-linecap="round" transform="translate(98.99802289019999 105.36733271760914) rotate(386.61827214255595 27.272300340474203 27.272300340474487)"><path d="M26 -0.68 C31.67 -1.3, 39.7 1.52, 44.22 5.27 C48.74 9.02, 51.88 16, 53.11 21.83 C54.34 27.66, 54.19 35.06, 51.61 40.24 C49.04 45.43, 43.16 50.62, 37.66 52.93 C32.16 55.24, 24.18 55.92, 18.6 54.1 C13.02 52.28, 7.37 47.08, 4.16 42.01 C0.95 36.95, -1.48 29.37, -0.66 23.71 C0.17 18.05, 3.86 11.93, 9.13 8.04 C14.41 4.16, 26.59 1.45, 30.99 0.39 C35.39 -0.68, 35.75 1.27, 35.51 1.67 M41.24 3.7 C46.25 5.94, 49.43 11.97, 51.67 17.38 C53.92 22.79, 56.4 30.51, 54.69 36.17 C52.99 41.83, 46.75 48.11, 41.45 51.33 C36.14 54.56, 28.36 56.67, 22.85 55.53 C17.34 54.39, 12.22 49.28, 8.39 44.51 C4.57 39.74, 0.43 32.36, -0.09 26.92 C-0.6 21.49, 1.5 16.02, 5.31 11.88 C9.13 7.74, 16.78 3.49, 22.79 2.08 C28.81 0.68, 38.79 3.22, 41.41 3.45 C44.04 3.69, 39.01 3.41, 38.55 3.51" stroke="#ffffff" stroke-width="4" fill="none"></path></g><g stroke-linecap="round" transform="translate(66.40693126183305 177.45578253082707) rotate(386.61827214255595 27.272300340474203 27.272300340474487)"><path d="M15.93 2.38 C20.84 -0.04, 28.87 0.24, 34.6 1.95 C40.34 3.66, 47.22 7.76, 50.35 12.66 C53.48 17.57, 53.99 25.48, 53.39 31.36 C52.8 37.24, 50.8 44.02, 46.78 47.95 C42.75 51.89, 35.32 54.68, 29.26 54.97 C23.2 55.26, 15.15 53.31, 10.41 49.71 C5.67 46.11, 2.02 39.26, 0.8 33.36 C-0.42 27.45, 0.32 19.59, 3.1 14.29 C5.87 9, 14.7 3.82, 17.44 1.59 C20.18 -0.64, 19.29 0.65, 19.53 0.9 M31.8 -0.91 C37.69 -0.06, 45.1 5.72, 48.87 10.32 C52.63 14.93, 54.53 20.82, 54.39 26.7 C54.25 32.58, 51.63 41.23, 48.01 45.6 C44.4 49.98, 38.34 52.06, 32.7 52.95 C27.07 53.85, 19.18 53.51, 14.18 50.98 C9.17 48.45, 4.92 43.17, 2.68 37.76 C0.44 32.34, -1.29 24.14, 0.74 18.48 C2.77 12.82, 9.6 6.93, 14.84 3.8 C20.08 0.68, 29.62 0.32, 32.18 -0.29 C34.75 -0.89, 30.43 -0.32, 30.23 0.17" stroke="#ffffff" stroke-width="4" fill="none"></path></g><g stroke-linecap="round" transform="translate(36.295096895314146 244.59721114759515) rotate(386.61827214255595 27.272300340474203 27.272300340474487)"><path d="M22.24 0.59 C27.87 -0.52, 37.12 1.66, 42.17 4.51 C47.22 7.37, 50.67 12.42, 52.52 17.71 C54.37 23.01, 55.26 30.81, 53.25 36.27 C51.23 41.73, 45.78 47.62, 40.43 50.49 C35.09 53.36, 26.76 54.6, 21.16 53.51 C15.56 52.41, 10.35 48.34, 6.84 43.92 C3.33 39.49, 0.02 32.61, 0.1 26.93 C0.18 21.25, 2.75 14.27, 7.31 9.83 C11.86 5.39, 23.13 1.75, 27.44 0.3 C31.76 -1.15, 32.94 0.67, 33.2 1.14 M40.41 3.09 C45.83 5.13, 50.51 9.91, 52.55 15.3 C54.6 20.7, 54.11 29.82, 52.69 35.46 C51.27 41.11, 48.62 46.04, 44.01 49.16 C39.39 52.28, 31.1 54.49, 25.03 54.17 C18.95 53.84, 11.47 51.59, 7.53 47.23 C3.59 42.86, 1.94 34.08, 1.37 27.97 C0.81 21.86, 0.82 14.9, 4.13 10.57 C7.44 6.24, 15.35 3.34, 21.22 1.99 C27.08 0.65, 36.46 2.43, 39.32 2.49 C42.18 2.56, 38.35 2.13, 38.38 2.37" stroke="#ffffff" stroke-width="4" fill="none"></path></g><g stroke-linecap="round" transform="translate(189.37079462420752 198.69830249452667) rotate(386.61827214255595 27.667551070046557 28.06280179961874)"><path d="M27.48 0.22 C33.19 -0.12, 40.28 3.57, 44.84 7.16 C49.41 10.75, 53.78 16.09, 54.9 21.74 C56.02 27.4, 54.33 35.69, 51.57 41.09 C48.82 46.49, 43.93 52.03, 38.37 54.15 C32.8 56.27, 23.95 55.73, 18.2 53.81 C12.45 51.9, 6.83 47.8, 3.85 42.65 C0.87 37.51, -0.56 28.89, 0.33 22.96 C1.22 17.02, 4.34 10.99, 9.19 7.05 C14.04 3.1, 25.36 0.18, 29.41 -0.73 C33.45 -1.64, 33.5 0.98, 33.45 1.58 M26.37 -0.53 C31.78 -0.83, 39.86 2, 44.62 6.02 C49.38 10.03, 53.72 17.33, 54.95 23.55 C56.19 29.77, 54.96 38, 52.02 43.35 C49.08 48.71, 43.16 53.79, 37.31 55.68 C31.47 57.58, 22.43 56.74, 16.94 54.73 C11.45 52.72, 7.24 48.87, 4.39 43.62 C1.54 38.36, -1.25 29.35, -0.16 23.19 C0.94 17.03, 6.5 10.32, 10.95 6.66 C15.4 2.99, 23.73 2.2, 26.55 1.22 C29.37 0.23, 27.54 0.35, 27.89 0.77" stroke="#ffffff" stroke-width="4" fill="none"></path></g><g stroke-linecap="round" transform="translate(157.84224182234584 268.6666003664089) rotate(386.61827214255595 27.667551070046557 28.06280179961874)"><path d="M24.79 -0.23 C30.45 -1.51, 38.42 0.43, 43.38 3.79 C48.33 7.15, 53.04 14.05, 54.53 19.93 C56.02 25.8, 54.82 33.56, 52.31 39.03 C49.8 44.51, 44.56 49.97, 39.49 52.77 C34.41 55.57, 27.61 56.96, 21.87 55.82 C16.13 54.68, 8.56 50.82, 5.05 45.93 C1.55 41.03, 0.47 32.6, 0.85 26.44 C1.22 20.29, 3.03 13.53, 7.3 9.02 C11.56 4.5, 22.74 0.59, 26.44 -0.65 C30.15 -1.89, 29.55 1.09, 29.53 1.58 M27.27 0.48 C32.74 0.04, 40.12 2.66, 44.51 6.28 C48.9 9.9, 52.54 16.35, 53.63 22.21 C54.72 28.07, 53.89 35.95, 51.05 41.46 C48.21 46.98, 42.24 53.05, 36.58 55.3 C30.93 57.56, 22.66 57.09, 17.12 55 C11.59 52.91, 6.03 48.02, 3.36 42.77 C0.69 37.51, -0.19 29.41, 1.09 23.48 C2.37 17.55, 6.78 11.14, 11.05 7.2 C15.32 3.27, 23.93 0.8, 26.71 -0.13 C29.49 -1.06, 27.38 1.27, 27.71 1.62" stroke="#ffffff" stroke-width="4" fill="none"></path></g><g stroke-linecap="round" transform="translate(321.2614155021097 170.18543789522178) rotate(386.61827214255595 27.667551070046557 28.06280179961874)"><path d="M24.15 0.82 C29.74 -0.19, 37.08 1.98, 41.93 5.03 C46.78 8.07, 51.41 13.43, 53.23 19.09 C55.05 24.74, 54.91 33.2, 52.87 38.95 C50.83 44.7, 46.21 50.89, 41 53.59 C35.78 56.3, 27.21 56.57, 21.57 55.16 C15.92 53.75, 10.84 49.84, 7.12 45.12 C3.4 40.41, -0.66 32.64, -0.76 26.88 C-0.86 21.12, 2.07 14.91, 6.53 10.57 C10.99 6.22, 22.6 2.3, 26 0.79 C29.4 -0.72, 26.97 1.2, 26.93 1.5 M41.01 3.52 C46.31 5.64, 50.77 11.41, 53.09 16.79 C55.42 22.17, 56.78 30.2, 54.98 35.82 C53.18 41.45, 47.05 47.24, 42.27 50.53 C37.49 53.81, 31.82 55.89, 26.31 55.53 C20.79 55.17, 13.44 52.65, 9.17 48.39 C4.9 44.12, 1.54 35.96, 0.68 29.94 C-0.17 23.92, 0.81 16.9, 4.06 12.28 C7.32 7.66, 14.51 3.6, 20.2 2.24 C25.9 0.87, 34.86 3.91, 38.23 4.1 C41.6 4.29, 40.41 2.94, 40.4 3.36" stroke="#ffffff" stroke-width="4" fill="none"></path></g><g stroke-linecap="round" transform="translate(287.96196465607545 243.68732233599923) rotate(386.61827214255595 27.667551070046557 28.06280179961874)"><path d="M19.66 0.42 C25.04 -1.6, 32.79 -0.48, 38.21 1.86 C43.63 4.2, 49.36 9.29, 52.19 14.49 C55.02 19.68, 56.54 26.93, 55.2 33.01 C53.86 39.09, 48.96 46.99, 44.14 50.96 C39.32 54.93, 32.21 57.22, 26.28 56.82 C20.35 56.42, 12.91 52.54, 8.57 48.54 C4.24 44.54, 0.94 38.83, 0.28 32.81 C-0.38 26.79, 0.58 18, 4.63 12.44 C8.68 6.89, 20.53 1.49, 24.59 -0.53 C28.65 -2.55, 28.91 -0.27, 28.97 0.31 M20.46 1.22 C25.48 -0.99, 32.99 -1.31, 38.13 1.19 C43.27 3.69, 48.67 10.88, 51.29 16.24 C53.91 21.59, 55.05 27.84, 53.85 33.34 C52.64 38.84, 48.63 45.23, 44.06 49.24 C39.49 53.26, 32.2 57.65, 26.44 57.42 C20.67 57.2, 13.86 52.43, 9.46 47.91 C5.07 43.39, 0.69 36.05, 0.08 30.3 C-0.54 24.54, 2.58 18.06, 5.79 13.37 C8.99 8.69, 17.16 4.13, 19.3 2.19 C21.45 0.25, 18.24 1.55, 18.65 1.73" stroke="#ffffff" stroke-width="4" fill="none"></path></g><g stroke-linecap="round" transform="translate(258.5568476033345 311.1829305616018) rotate(386.61827214255595 27.667551070046557 28.06280179961874)"><path d="M36.75 1.55 C42.11 3.17, 49.01 8.82, 51.92 14.22 C54.82 19.63, 55.39 28.17, 54.18 33.98 C52.96 39.78, 49.02 45.23, 44.64 49.05 C40.26 52.87, 33.6 56.77, 27.91 56.89 C22.22 57.01, 15.09 53.74, 10.5 49.78 C5.91 45.82, 1.52 39.1, 0.4 33.12 C-0.72 27.15, 0.77 19.1, 3.79 13.94 C6.81 8.78, 12.19 3.72, 18.53 2.16 C24.88 0.61, 37.46 3.73, 41.86 4.61 C46.26 5.49, 45.13 7.16, 44.94 7.45 M24.21 0.88 C29.69 -0.4, 37.71 0.02, 42.78 3.32 C47.84 6.63, 52.82 14.98, 54.59 20.71 C56.36 26.44, 55.63 32.49, 53.4 37.72 C51.17 42.95, 46.68 49.11, 41.21 52.09 C35.74 55.07, 26.31 56.7, 20.57 55.6 C14.84 54.51, 10.02 50.46, 6.81 45.53 C3.61 40.6, 1.46 32.25, 1.34 26.03 C1.23 19.8, 2.38 12.38, 6.13 8.2 C9.88 4.02, 21.05 2.31, 23.83 0.93 C26.62 -0.45, 23.02 -0.28, 22.85 -0.11" stroke="#ffffff" stroke-width="4" fill="none"></path></g><g stroke-linecap="round"><g transform="translate(170.84948213745793 93.56834945223437) rotate(386.61827214255595 31.224807636195237 13.833775535023335)"><path d="M-0.7 0.83 C9.9 5.4, 52.69 22, 63.07 26.67 M1.14 0.22 C11.68 4.97, 51.96 23.2, 62.44 27.69" stroke="#ffffff" stroke-width="4" fill="none"></path></g></g><mask></mask><g stroke-linecap="round"><g transform="translate(153.54665419916864 93.020487696163) rotate(386.61827214255595 33.59631201362777 53.75409922180495)"><path d="M1.06 0.18 C12.28 18.27, 56.51 89.55, 67.34 107.5 M0.15 -0.77 C11.23 17.62, 55.11 91.29, 66.48 109.04" stroke="#ffffff" stroke-width="4" fill="none"></path></g></g><mask></mask><g stroke-linecap="round"><g transform="translate(133.84222013371345 88.65702104960849) rotate(386.61827214255595 37.54881930934903 92.09341999029817)"><path d="M-0.34 0.5 C12.21 31.21, 62.25 152.63, 74.84 183.3 M1.68 -0.29 C14.08 30.64, 61.62 153.32, 73.75 184.37" stroke="#ffffff" stroke-width="4" fill="none"></path></g></g><mask></mask><g stroke-linecap="round"><g transform="translate(140.8433327660182 167.9062551146722) rotate(386.61827214255595 31.224807636195237 13.833775535023335)"><path d="M-0.2 -0.14 C10.21 4.24, 52.58 22.68, 62.85 27.16 M-1.76 -1.26 C8.49 3.2, 51.19 23.63, 62.11 28.44" stroke="#ffffff" stroke-width="4" fill="none"></path></g></g><mask></mask><g stroke-linecap="round"><g transform="translate(125.18506120466918 167.67282684279056) rotate(386.61827214255595 32.805810554483514 50.98734411480024)"><path d="M0.4 -0.5 C11.2 16.36, 53.9 84, 64.58 101.04 M-0.85 -1.82 C10.33 15.18, 55.48 84.62, 66.75 102.09" stroke="#ffffff" stroke-width="4" fill="none"></path></g></g><mask></mask><g stroke-linecap="round"><g transform="translate(155.2503764522753 171.48279801805592) rotate(386.61827214255595 28.853303258762935 -21.738790126465233)"><path d="M-1.03 -0.93 C8.33 -8.13, 46.72 -36.51, 56.59 -43.68 M0.63 1.19 C10.31 -5.77, 49.21 -34.9, 58.71 -42.25" stroke="#ffffff" stroke-width="4" fill="none"></path></g></g><mask></mask><g stroke-linecap="round"><g transform="translate(109.36676874173645 237.49449226274652) rotate(386.61827214255595 31.224807636195237 13.833775535023335)"><path d="M0.58 0.41 C10.71 5.36, 51.08 24.01, 61.26 28.55 M-0.58 -0.42 C9.85 4.3, 52.56 21.99, 63.35 26.88" stroke="#ffffff" stroke-width="4" fill="none"></path></g></g><mask></mask><g stroke-linecap="round"><g transform="translate(125.9499907818481 242.45113521765649) rotate(386.61827214255595 28.45805252919058 -20.55303793774892)"><path d="M-1.19 0.88 C8.08 -6.05, 46.37 -34.01, 56.16 -41.14 M0.39 0.29 C9.99 -6.47, 49.01 -32.73, 58.47 -39.62" stroke="#ffffff" stroke-width="4" fill="none"></path></g></g><mask></mask><g stroke-linecap="round"><g transform="translate(138.7975047851619 245.14344354414615) rotate(386.61827214255595 30.829556906623566 -54.14934995137702)"><path d="M-0.76 -0.03 C9.83 -18.36, 52.08 -90.87, 62.31 -109.09 M1.05 -1.09 C11.63 -19.36, 51.39 -90.06, 61.71 -107.96" stroke="#ffffff" stroke-width="4" fill="none"></path></g></g><mask></mask><g stroke-linecap="round"><g transform="translate(98.25500156750604 291.0746930453744) rotate(386.61827214255595 30.03905544747886 -10.671769698446553)"><path d="M-1.06 -1.14 C8.88 -4.52, 48.75 -17.16, 58.92 -20.46 M0.58 0.88 C10.94 -2.81, 51.27 -18.13, 61.03 -22.11" stroke="#ffffff" stroke-width="4" fill="none"></path></g></g><mask></mask><g stroke-linecap="round"><g transform="translate(113.69039021244271 296.4048197596978) rotate(386.61827214255595 29.248553988334606 -42.291828064214144)"><path d="M-1.16 0.89 C8.75 -12.95, 48.36 -69.93, 58.36 -84.14 M0.44 0.31 C10.26 -13.79, 47.71 -72.15, 57.34 -86.03" stroke="#ffffff" stroke-width="4" fill="none"></path></g></g><mask></mask><g stroke-linecap="round"><g transform="translate(128.39227228519167 298.69810594761725) rotate(386.61827214255595 29.643804717907187 -81.02639956227944)"><path d="M-0.14 0.44 C9.99 -26.69, 49.86 -135, 59.6 -161.89 M-1.67 -0.37 C8.43 -27.36, 48.43 -133.22, 58.82 -160.26" stroke="#ffffff" stroke-width="4" fill="none"></path></g></g><mask></mask><g stroke-linecap="round"><g transform="translate(253.30248725634647 182.52767735088705) rotate(386.61827214255595 29.643804717906733 27.2723003404746)"><path d="M0.83 0.88 C10.8 10.21, 50.66 46.49, 60.31 55.59 M-0.19 0.3 C9.67 9.35, 50.25 45.13, 59.9 54.01" stroke="#ffffff" stroke-width="4" fill="none"></path></g></g><mask></mask><g stroke-linecap="round"><g transform="translate(239.3266360075354 182.5565084368161) rotate(386.61827214255595 32.410559824911616 60.078110894958456)"><path d="M1.02 1.04 C11.59 21.07, 53.66 101.37, 64.26 121.07 M0.1 0.55 C10.39 20.17, 52.4 99.5, 63.02 119.42" stroke="#ffffff" stroke-width="4" fill="none"></path></g></g><mask></mask><g stroke-linecap="round"><g transform="translate(265.3568896056172 185.42702521472233) rotate(386.61827214255595 28.458052529191036 -1.581002918288391)"><path d="M-0.56 0.91 C8.73 0.06, 47.1 -3.36, 56.76 -4.06 M1.35 0.34 C10.38 0.14, 46.47 -2.6, 55.73 -3" stroke="#ffffff" stroke-width="4" fill="none"></path></g></g><mask></mask><g stroke-linecap="round"><g transform="translate(221.33753606709797 251.30684775724865) rotate(386.61827214255595 30.03905544747886 29.64380471790713)"><path d="M-0.16 -0.9 C10.03 8.81, 50.71 49.03, 60.57 59.15 M-1.7 1.24 C8.42 11.06, 49.37 51.2, 59.88 60.62" stroke="#ffffff" stroke-width="4" fill="none"></path></g></g><mask></mask><g stroke-linecap="round"><g transform="translate(237.05354329913143 255.68200065545003) rotate(386.61827214255595 26.086548151758052 -3.162005836576725)"><path d="M0.49 -0.14 C9.04 -0.95, 42.44 -4.65, 51.13 -5.79 M-0.71 -1.25 C8.22 -2.35, 44.5 -6.84, 53.29 -7.63" stroke="#ffffff" stroke-width="4" fill="none"></path></g></g><mask></mask><g stroke-linecap="round"><g transform="translate(248.64721812596144 259.2578250794006) rotate(386.61827214255595 30.829556906623566 -34.3868134727723)"><path d="M-1.04 0.54 C9.22 -11.01, 51.49 -57.81, 62.1 -69.4 M0.61 -0.23 C10.71 -11.61, 51.09 -56.93, 61.38 -68.19" stroke="#ffffff" stroke-width="4" fill="none"></path></g></g><mask></mask><g stroke-linecap="round"><g transform="translate(210.22840187606653 304.38356385681584) rotate(386.61827214255595 26.87704961090185 5.138259484437242)"><path d="M0.44 -0.63 C9.73 0.96, 45.75 8.41, 54.72 10.05 M-0.79 1.66 C8.52 3.38, 45.18 10.08, 54.28 11.47" stroke="#ffffff" stroke-width="4" fill="none"></path></g></g><mask></mask><g stroke-linecap="round"><g transform="translate(225.00017373587707 309.74018225158056) rotate(386.61827214255595 25.69129742218547 -24.50554523346983)"><path d="M0.97 -0.22 C9.55 -8.46, 43.41 -41.82, 51.93 -50.06 M0.02 -1.39 C8.45 -9.46, 42.65 -41.19, 51.27 -49.08" stroke="#ffffff" stroke-width="4" fill="none"></path></g></g><mask></mask><g stroke-linecap="round"><g transform="translate(238.54068563786814 313.3437480157716) rotate(386.61827214255595 29.643804717907187 -61.65911381324673)"><path d="M0.55 -1.05 C10.39 -21.68, 50.06 -103.55, 60 -124 M-0.62 1.01 C9.03 -19.45, 49.34 -102.21, 59.43 -122.82" stroke="#ffffff" stroke-width="4" fill="none"></path></g></g><mask></mask><g stroke-linecap="round"><g transform="translate(132.2096850005173 884.4735506793346) rotate(25.748176511675208 13.438524805451152 86.55990977628886)"><path d="M0.57 -1.18 C4.97 6.22, 23.66 14.76, 27.54 43.68 C31.42 72.6, 24.65 150.96, 23.88 172.34 M-0.58 0.82 C3.61 7.95, 22.98 13.35, 26.94 42.09 C30.91 70.82, 23.9 151.52, 23.2 173.25" stroke="#ffffff" stroke-width="4" fill="none"></path></g></g><mask></mask><g stroke-linecap="round"><g transform="translate(158.9655906293783 828.0089951752842) rotate(25.748176511675208 16.600530642027934 -5.53351021400934)"><path d="M0.47 -0.75 C5.11 0.17, 21.35 7.59, 26.95 5.1 C32.54 2.6, 32.99 -12.28, 34.05 -15.73 M-0.74 1.47 C3.9 2.6, 20.7 9.59, 26.45 6.4 C32.19 3.22, 32.53 -13.61, 33.74 -17.61" stroke="#ffffff" stroke-width="4" fill="none"></path></g></g><mask></mask><g stroke-linecap="round"><g transform="translate(195.84470456097824 830.9040329946808) rotate(25.748176511675208 15.01952772373943 -10.276518968874456)"><path d="M1.12 0.7 C2.36 -2.54, 3.3 -14.91, 8.3 -18.57 C13.29 -22.24, 27.3 -20.95, 31.09 -21.29 M0.25 0.02 C1.29 -3.13, 2.45 -13.85, 7.55 -17.24 C12.66 -20.64, 26.83 -19.98, 30.87 -20.35" stroke="#ffffff" stroke-width="4" fill="none"></path></g></g><mask></mask><g stroke-linecap="round" transform="translate(1153.958887509059 10.000000000000057) rotate(39.41374287817306 32.015309095339944 32.01530909533972)"><path d="M42.31 2.54 C47.93 4.3, 54.59 9.58, 58.24 14.74 C61.88 19.9, 64.22 27.48, 64.17 33.49 C64.13 39.49, 61.85 45.93, 57.97 50.77 C54.08 55.62, 47.01 60.78, 40.87 62.58 C34.73 64.37, 27.09 63.7, 21.13 61.54 C15.17 59.38, 8.47 54.54, 5.11 49.59 C1.76 44.65, 0.85 38.15, 0.99 31.86 C1.14 25.57, 2.47 17.05, 5.96 11.88 C9.45 6.7, 14.89 2.02, 21.92 0.8 C28.94 -0.43, 42.98 3.15, 48.11 4.54 C53.23 5.93, 52.89 8.57, 52.68 9.12 M45.99 1.73 C51.56 3.5, 57.56 9.75, 60.34 15.31 C63.13 20.86, 63.48 28.73, 62.71 35.06 C61.93 41.39, 59.77 48.72, 55.67 53.28 C51.58 57.83, 44.25 61.29, 38.14 62.41 C32.02 63.52, 24.67 62.41, 18.98 59.96 C13.3 57.51, 7.34 53.1, 4.02 47.7 C0.69 42.3, -1.82 33.93, -0.95 27.53 C-0.08 21.14, 4.66 13.69, 9.26 9.35 C13.85 5, 20.72 2.54, 26.61 1.45 C32.49 0.35, 41.34 2.56, 44.56 2.78 C47.78 2.99, 46.18 2.3, 45.91 2.76" stroke="#ffffff" stroke-width="4" fill="none"></path></g><g stroke-linecap="round" transform="translate(1148.8039928502599 181.24162204394645) rotate(39.41374287817306 32.015309095339944 32.01530909533972)"><path d="M24.75 0.64 C30.5 -1.07, 38.24 -0.29, 43.93 2.23 C49.62 4.76, 55.45 10.24, 58.86 15.81 C62.28 21.38, 65.03 29.61, 64.42 35.67 C63.81 41.73, 59.58 47.44, 55.18 52.19 C50.79 56.93, 43.91 62.52, 38.05 64.14 C32.19 65.76, 25.74 64.52, 20.03 61.91 C14.31 59.3, 7.17 53.85, 3.77 48.49 C0.37 43.13, -0.99 36.15, -0.37 29.73 C0.24 23.31, 2.35 14.75, 7.47 9.97 C12.6 5.19, 25.62 2.53, 30.36 1.03 C35.1 -0.47, 35.75 0.78, 35.91 0.98 M28.38 1.25 C34.34 0.25, 43.72 0.9, 49.21 3.71 C54.7 6.52, 58.83 12.36, 61.32 18.1 C63.81 23.85, 65.42 31.84, 64.15 38.17 C62.89 44.51, 58.71 51.83, 53.74 56.12 C48.77 60.41, 40.84 63.48, 34.33 63.93 C27.82 64.39, 20.11 61.84, 14.67 58.84 C9.24 55.83, 3.9 51.47, 1.72 45.88 C-0.47 40.29, 0.04 31.82, 1.57 25.3 C3.09 18.78, 6.24 10.9, 10.86 6.78 C15.48 2.66, 26.24 1.56, 29.28 0.56 C32.32 -0.45, 29.19 0.12, 29.09 0.76" stroke="#ffffff" stroke-width="4" fill="none"></path></g><g stroke-linecap="round" transform="translate(1034.1937316736803 43.05625258214684) rotate(39.41374287817306 32.015309095339944 32.01530909533972)"><path d="M19.6 2.73 C24.77 -0.2, 31.86 -0.65, 37.77 0.52 C43.69 1.7, 50.67 5.15, 55.07 9.79 C59.47 14.43, 63.46 22, 64.17 28.37 C64.89 34.74, 62.45 42.66, 59.37 48.02 C56.29 53.39, 51.38 58.03, 45.69 60.56 C40.01 63.09, 31.7 64.3, 25.28 63.22 C18.87 62.15, 11.49 58.82, 7.19 54.13 C2.9 49.44, -0.09 41.5, -0.49 35.1 C-0.9 28.7, 0.97 21.21, 4.79 15.75 C8.61 10.3, 19.21 4.58, 22.45 2.38 C25.69 0.18, 24.08 2.03, 24.23 2.53 M40.48 -0.16 C46.04 0.95, 51.71 5.65, 55.44 10.52 C59.17 15.39, 62.3 22.53, 62.85 29.05 C63.4 35.58, 62.05 44.3, 58.74 49.67 C55.43 55.04, 48.79 58.93, 42.98 61.27 C37.16 63.62, 29.74 65.34, 23.85 63.75 C17.96 62.16, 11.44 56.65, 7.62 51.71 C3.8 46.77, 1.17 40.29, 0.93 34.13 C0.7 27.98, 3.05 19.97, 6.21 14.77 C9.37 9.56, 14.26 5.1, 19.87 2.88 C25.47 0.66, 36.27 1.48, 39.84 1.45 C43.41 1.42, 41.3 2.43, 41.28 2.71" stroke="#ffffff" stroke-width="4" fill="none"></path></g><g stroke-linecap="round"><g transform="translate(1147.2454195606674 34.62304110398031) rotate(39.41374287817306 -20.948288667321094 21.343539396893163)"><path d="M0.5 0.48 C-6.28 7.56, -34.44 36.13, -41.57 43.32 M-0.69 -0.31 C-7.53 6.34, -35.26 34.52, -42.35 41.52" stroke="#ffffff" stroke-width="4" fill="none"></path></g></g><mask></mask><g stroke-linecap="round"><g transform="translate(1153.871175762834 83.92498552343483) rotate(39.41374287817306 30.43430617705144 42.6870787937863)"><path d="M0.35 0.69 C10.62 14.89, 51.83 71.49, 61.77 85.41 M-0.93 0.01 C9.25 14.4, 50.74 72.82, 61.29 86.97" stroke="#ffffff" stroke-width="4" fill="none"></path></g></g><mask></mask><g stroke-linecap="round" transform="translate(857.3536129459453 39.54403488691844) rotate(59.21651335502365 18.294462340194286 18.294462340194173)"><path d="M17.74 -0.36 C21.51 -0.72, 26.94 1.1, 29.99 3.74 C33.03 6.39, 35.24 11.51, 36 15.5 C36.75 19.5, 36.37 24.31, 34.51 27.72 C32.64 31.12, 28.52 34.57, 24.8 35.95 C21.08 37.33, 15.91 37.33, 12.19 35.99 C8.47 34.64, 4.49 31.43, 2.47 27.88 C0.46 24.34, -0.58 18.68, 0.12 14.73 C0.82 10.79, 3.52 6.72, 6.67 4.19 C9.83 1.66, 16.81 0.12, 19.07 -0.45 C21.32 -1.02, 20.18 0.33, 20.21 0.77 M20.29 -0.57 C23.92 -0.54, 28.32 2.17, 31.11 4.97 C33.91 7.78, 36.62 12.27, 37.08 16.24 C37.54 20.22, 36.17 25.48, 33.86 28.81 C31.56 32.14, 27.25 35.09, 23.25 36.22 C19.26 37.34, 13.49 37.38, 9.88 35.58 C6.27 33.77, 3.05 28.94, 1.6 25.4 C0.14 21.85, 0.02 17.98, 1.16 14.31 C2.29 10.64, 5.2 5.78, 8.42 3.36 C11.65 0.93, 18.57 0.32, 20.53 -0.25 C22.49 -0.83, 20.23 -0.39, 20.21 -0.08" stroke="#ffffff" stroke-width="4" fill="none"></path></g><g stroke-linecap="round" transform="translate(821.4313967505045 130.6118927153776) rotate(59.21651335502365 18.294462340194286 18.294462340194187)"><path d="M20.14 -0.39 C23.89 -0.11, 28.32 3.06, 31.11 6.01 C33.89 8.95, 36.5 13.39, 36.87 17.3 C37.23 21.21, 35.63 26.29, 33.3 29.49 C30.96 32.69, 26.69 35.56, 22.86 36.5 C19.03 37.44, 13.88 37, 10.31 35.13 C6.75 33.27, 3.03 28.99, 1.46 25.33 C-0.11 21.67, -0.2 16.94, 0.89 13.17 C1.99 9.4, 4.7 4.82, 8.06 2.7 C11.42 0.59, 18.83 0.79, 21.04 0.49 C23.26 0.2, 21.44 0.66, 21.36 0.96 M17.98 -0.37 C21.73 -0.61, 27.32 1.15, 30.46 3.71 C33.6 6.26, 36.18 10.98, 36.85 14.95 C37.51 18.92, 36.58 23.99, 34.45 27.52 C32.32 31.04, 27.77 34.88, 24.05 36.11 C20.32 37.34, 15.6 36.2, 12.11 34.91 C8.62 33.62, 4.96 31.61, 3.09 28.36 C1.22 25.1, 0.22 19.4, 0.88 15.36 C1.54 11.32, 4.11 6.74, 7.04 4.09 C9.96 1.45, 16.49 0.16, 18.46 -0.51 C20.42 -1.19, 18.79 -0.36, 18.81 0.05" stroke="#ffffff" stroke-width="4" fill="none"></path></g><g stroke-linecap="round" transform="translate(766.4936765056714 35.47025186935167) rotate(59.21651335502365 18.294462340194286 18.294462340194173)"><path d="M14.76 0.76 C18.44 0.01, 24.24 0.82, 27.72 2.77 C31.2 4.73, 34.32 8.78, 35.63 12.48 C36.94 16.18, 36.94 21.3, 35.58 24.97 C34.22 28.64, 30.89 32.66, 27.47 34.48 C24.04 36.29, 18.85 36.61, 15.03 35.85 C11.2 35.1, 7.02 32.95, 4.52 29.95 C2.03 26.96, 0.03 21.73, 0.05 17.89 C0.07 14.05, 2.05 9.8, 4.65 6.92 C7.26 4.04, 13.82 1.61, 15.7 0.6 C17.59 -0.41, 15.99 0.58, 15.98 0.87 M14.99 -0.03 C18.7 -0.97, 23.99 0.21, 27.4 2.15 C30.81 4.09, 34.17 7.9, 35.44 11.64 C36.71 15.38, 36.27 21, 35.02 24.58 C33.76 28.16, 31.03 31.04, 27.92 33.13 C24.81 35.23, 20.11 37.57, 16.35 37.15 C12.59 36.74, 7.99 33.7, 5.38 30.62 C2.77 27.54, 0.87 22.69, 0.67 18.68 C0.48 14.67, 1.79 9.66, 4.21 6.57 C6.62 3.47, 13.35 1.04, 15.15 0.1 C16.94 -0.84, 15.1 0.51, 15 0.91" stroke="#ffffff" stroke-width="4" fill="none"></path></g><g stroke-linecap="round"><g transform="translate(845.9371506722873 34.26140112426725) rotate(59.21651335502365 -16.71345942190578 22.81161353530385)"><path d="M-0.85 0 C-6.7 7.67, -29.34 37.17, -34.58 44.9 M0.9 -1.05 C-4.64 6.86, -26.91 38.47, -32.48 46.06" stroke="#ffffff" stroke-width="4" fill="none"></path></g></g><mask></mask><g stroke-linecap="round"><g transform="translate(841.1985137231923 78.77844425870998) rotate(59.21651335502365 17.391032101172414 24.392616453592254)"><path d="M-1.16 -0.72 C4.97 7.54, 29.78 41.25, 35.91 49.57 M0.44 1.51 C6.58 9.44, 29.74 40.27, 35.55 47.86" stroke="#ffffff" stroke-width="4" fill="none"></path></g></g><mask></mask><g stroke-linecap="round" transform="translate(944.0953885158433 170.83423060942374) rotate(39.41374287817306 18.294462340194286 18.29446234019418)"><path d="M15.68 0.35 C19.3 -0.43, 24.06 0.62, 27.43 2.63 C30.8 4.63, 34.53 8.64, 35.89 12.37 C37.26 16.11, 37.09 21.44, 35.6 25.05 C34.12 28.66, 30.45 32.1, 26.98 34.02 C23.51 35.95, 18.57 37.3, 14.79 36.6 C11.01 35.9, 6.75 32.89, 4.3 29.82 C1.85 26.75, 0.03 22.15, 0.08 18.16 C0.13 14.18, 1.88 8.98, 4.62 5.9 C7.36 2.82, 14.55 0.67, 16.53 -0.32 C18.5 -1.31, 16.56 -0.37, 16.48 -0.05 M18.18 -0.02 C22.01 -0.24, 26.71 1.49, 29.74 3.83 C32.77 6.18, 35.61 10.22, 36.35 14.06 C37.09 17.9, 36.18 23.34, 34.19 26.88 C32.19 30.43, 28.04 33.87, 24.37 35.34 C20.69 36.81, 15.83 36.96, 12.15 35.7 C8.48 34.44, 4.25 31.12, 2.3 27.78 C0.34 24.45, -0.33 19.56, 0.44 15.7 C1.2 11.84, 3.83 7.19, 6.87 4.63 C9.91 2.07, 16.8 1.1, 18.67 0.35 C20.55 -0.41, 18.11 -0.23, 18.11 0.11" stroke="#ffffff" stroke-width="4" fill="none"></path></g><g stroke-linecap="round" transform="translate(941.1497344251015 268.686586063107) rotate(39.41374287817306 18.294462340194286 18.29446234019418)"><path d="M16.38 0.06 C20.08 -0.52, 25.77 1.03, 29.08 3.31 C32.38 5.58, 35.27 9.98, 36.21 13.72 C37.15 17.46, 36.42 22.15, 34.73 25.74 C33.03 29.32, 29.54 33.52, 26.05 35.23 C22.56 36.94, 17.59 37.04, 13.81 36.01 C10.03 34.97, 5.66 32.3, 3.39 29.02 C1.11 25.74, -0.23 20.36, 0.18 16.34 C0.58 12.32, 3.02 7.7, 5.82 4.9 C8.62 2.1, 15.03 0.35, 16.96 -0.45 C18.89 -1.26, 17.35 -0.24, 17.4 0.06 M13.92 0.3 C17.46 -0.93, 23 -0.55, 26.5 1.18 C30 2.91, 33.45 6.98, 34.92 10.68 C36.4 14.39, 36.46 19.58, 35.34 23.4 C34.23 27.22, 31.47 31.42, 28.24 33.61 C25.01 35.8, 19.78 36.93, 15.96 36.52 C12.13 36.11, 7.84 34, 5.29 31.18 C2.73 28.36, 0.8 23.5, 0.64 19.6 C0.47 15.71, 2.03 11.03, 4.28 7.81 C6.52 4.59, 12.37 1.32, 14.11 0.26 C15.86 -0.79, 14.8 1.2, 14.75 1.47" stroke="#ffffff" stroke-width="4" fill="none"></path></g><g stroke-linecap="round" transform="translate(853.4538391797573 198.95586354008907) rotate(39.41374287817306 18.294462340194286 18.29446234019418)"><path d="M19.75 0.04 C23.58 0.07, 28.41 2.56, 31.17 5.22 C33.93 7.88, 35.93 12.06, 36.33 15.99 C36.72 19.92, 35.65 25.47, 33.54 28.79 C31.44 32.11, 27.44 34.81, 23.69 35.89 C19.94 36.97, 14.64 36.92, 11.03 35.28 C7.41 33.64, 3.68 29.68, 2 26.05 C0.33 22.42, 0.11 17.35, 0.98 13.52 C1.86 9.69, 4.09 5.36, 7.25 3.07 C10.42 0.78, 17.71 0.28, 19.98 -0.21 C22.26 -0.71, 20.97 -0.28, 20.9 0.1 M18.28 -0.71 C21.98 -0.98, 26.92 1.34, 29.84 3.95 C32.75 6.56, 35.09 11.06, 35.78 14.97 C36.47 18.89, 35.89 24.02, 33.99 27.44 C32.08 30.85, 27.94 34.1, 24.33 35.48 C20.73 36.87, 15.9 37.07, 12.37 35.77 C8.83 34.46, 5.01 31.03, 3.11 27.67 C1.21 24.3, 0.41 19.51, 0.99 15.58 C1.57 11.65, 3.62 6.6, 6.6 4.1 C9.58 1.6, 17.05 1.29, 18.88 0.59 C20.71 -0.1, 17.67 -0.35, 17.57 -0.07" stroke="#ffffff" stroke-width="4" fill="none"></path></g><g stroke-linecap="round"><g transform="translate(934.9433452957674 181.19489263177059) rotate(39.41374287817306 -16.71345942190578 22.81161353530385)"><path d="M0.31 -0.77 C-5.2 6.87, -27.82 38.49, -33.44 46.32 M-0.99 1.44 C-6.62 8.69, -28.86 37.44, -34.4 44.56" stroke="#ffffff" stroke-width="4" fill="none"></path></g></g><mask></mask><g stroke-linecap="round"><g transform="translate(944.3153600600817 212.6481368581992) rotate(39.41374287817306 17.391032101172414 24.392616453592247)"><path d="M-0.01 0.7 C5.73 9.05, 28.91 41.41, 34.78 49.36 M-1.48 0.01 C4.08 8.08, 27.81 39.29, 33.83 47.55" stroke="#ffffff" stroke-width="4" fill="none"></path></g></g><mask></mask><g stroke-linecap="round" transform="translate(1045.4207100052804 305.26425622994174) rotate(39.41374287817306 18.294462340194286 18.29446234019418)"><path d="M22.6 0.4 C26.31 0.87, 30.56 3.63, 32.9 6.67 C35.25 9.71, 36.82 14.71, 36.68 18.65 C36.55 22.59, 34.77 27.34, 32.09 30.31 C29.4 33.29, 24.48 35.89, 20.56 36.51 C16.63 37.14, 11.91 36.15, 8.56 34.06 C5.21 31.96, 1.62 27.74, 0.45 23.94 C-0.72 20.15, -0.01 14.92, 1.52 11.29 C3.05 7.66, 6.07 3.95, 9.62 2.15 C13.18 0.35, 20.56 0.63, 22.85 0.46 C25.15 0.3, 23.44 0.91, 23.39 1.15 M17.59 0.64 C21.28 0.31, 27.22 1.24, 30.33 3.59 C33.44 5.93, 35.6 10.8, 36.27 14.69 C36.94 18.58, 36.31 23.57, 34.35 26.91 C32.4 30.25, 28.29 33.38, 24.54 34.73 C20.79 36.09, 15.61 36.2, 11.86 35.03 C8.11 33.86, 3.97 30.98, 2.03 27.73 C0.09 24.47, -0.55 19.47, 0.21 15.49 C0.98 11.52, 3.74 6.5, 6.61 3.88 C9.48 1.25, 15.5 0.23, 17.44 -0.24 C19.39 -0.71, 18.12 0.79, 18.27 1.06" stroke="#ffffff" stroke-width="4" fill="none"></path></g><g stroke-linecap="round" transform="translate(1042.475055914536 403.1166116836247) rotate(39.41374287817306 18.294462340194286 18.29446234019418)"><path d="M19.21 -0.36 C22.88 -0.49, 27.81 1.81, 30.71 4.47 C33.61 7.13, 36.17 11.66, 36.63 15.61 C37.09 19.56, 35.62 24.77, 33.49 28.17 C31.36 31.57, 27.6 34.8, 23.83 35.98 C20.07 37.16, 14.5 36.79, 10.91 35.23 C7.32 33.68, 4.05 30.13, 2.28 26.66 C0.52 23.19, -0.46 18.24, 0.33 14.41 C1.11 10.58, 3.76 6.07, 7 3.68 C10.24 1.28, 17.41 0.63, 19.75 0.04 C22.09 -0.56, 21.02 -0.29, 21.03 0.09 M17.52 -0.56 C21.31 -1.19, 26.01 0.92, 29.12 3.28 C32.24 5.63, 35.31 9.83, 36.21 13.57 C37.12 17.31, 36.36 22.22, 34.54 25.71 C32.72 29.21, 28.97 32.83, 25.32 34.55 C21.67 36.26, 16.37 36.99, 12.65 36.01 C8.94 35.03, 5.09 32.04, 3.03 28.66 C0.97 25.29, -0.03 19.75, 0.3 15.77 C0.62 11.8, 2.14 7.32, 4.96 4.81 C7.79 2.31, 15.19 1.54, 17.25 0.73 C19.3 -0.07, 17.34 -0.31, 17.3 -0.03" stroke="#ffffff" stroke-width="4" fill="none"></path></g><g stroke-linecap="round" transform="translate(954.7791606691931 333.385889160607) rotate(39.41374287817306 18.294462340194286 18.29446234019418)"><path d="M18.39 -0.3 C22.11 -0.51, 27.31 1.45, 30.25 4.04 C33.19 6.62, 35.39 11.26, 36.04 15.21 C36.68 19.15, 36.11 24.31, 34.12 27.69 C32.13 31.07, 27.77 34.21, 24.12 35.49 C20.48 36.77, 15.86 36.69, 12.23 35.35 C8.61 34.02, 4.37 30.86, 2.36 27.47 C0.35 24.07, -0.48 18.86, 0.17 14.99 C0.81 11.12, 3 6.81, 6.22 4.24 C9.44 1.67, 17.1 0.11, 19.49 -0.44 C21.88 -1, 20.63 0.61, 20.58 0.93 M22.17 0.13 C25.81 0.73, 30.53 3.66, 32.9 6.69 C35.28 9.72, 36.66 14.42, 36.43 18.31 C36.2 22.21, 34.21 27.05, 31.52 30.09 C28.83 33.14, 24.1 35.93, 20.27 36.58 C16.43 37.23, 11.69 36.2, 8.49 34 C5.29 31.79, 2.36 27.18, 1.05 23.37 C-0.25 19.56, -0.82 14.55, 0.66 11.12 C2.13 7.69, 6.28 4.66, 9.9 2.8 C13.51 0.94, 20.33 0.23, 22.33 -0.02 C24.33 -0.27, 22.1 1.05, 21.91 1.32" stroke="#ffffff" stroke-width="4" fill="none"></path></g><g stroke-linecap="round"><g transform="translate(1036.3107539009052 315.5534781425596) rotate(39.41374287817306 -16.71345942190578 22.81161353530385)"><path d="M0 0.44 C-5.76 7.89, -28.64 38.26, -34.33 45.88 M-1.46 -0.37 C-6.86 7.2, -27.06 36.48, -32.09 43.89" stroke="#ffffff" stroke-width="4" fill="none"></path></g></g><mask></mask><g stroke-linecap="round"><g transform="translate(1045.630656984919 347.8672346669529) rotate(39.41374287817306 17.391032101172414 24.39261645359225)"><path d="M-0.9 0.25 C4.78 8.39, 28.22 41.3, 34.07 49.28 M0.83 -0.66 C6.9 7.08, 31.02 39.12, 36.41 47.42" stroke="#ffffff" stroke-width="4" fill="none"></path></g></g><mask></mask><g stroke-linecap="round" transform="translate(1179.1178154912122 361.3029266502258) rotate(370.9315571311332 18.294462340194286 18.294462340194176)"><path d="M16.42 0.02 C20.07 -0.56, 25.49 1.2, 28.7 3.51 C31.91 5.83, 34.59 10.12, 35.69 13.93 C36.78 17.73, 36.9 22.89, 35.26 26.35 C33.62 29.81, 29.53 33.05, 25.85 34.69 C22.17 36.34, 17.01 37.21, 13.18 36.21 C9.34 35.21, 5.12 31.99, 2.85 28.7 C0.58 25.41, -0.85 20.4, -0.42 16.48 C0.01 12.55, 2.39 7.96, 5.44 5.15 C8.49 2.34, 15.78 0.43, 17.87 -0.38 C19.95 -1.19, 17.95 -0.1, 17.95 0.28 M20.48 0.19 C24.2 0.48, 29.35 2.76, 32.06 5.7 C34.77 8.65, 36.71 13.99, 36.74 17.88 C36.78 21.76, 34.54 26.06, 32.28 29.03 C30.02 32, 26.92 34.67, 23.17 35.69 C19.42 36.72, 13.27 36.99, 9.78 35.19 C6.3 33.39, 3.86 28.7, 2.24 24.91 C0.63 21.11, -0.88 16.2, 0.08 12.44 C1.05 8.68, 4.76 4.52, 8.02 2.36 C11.29 0.19, 17.75 -0.26, 19.67 -0.57 C21.6 -0.88, 19.51 0.14, 19.58 0.48" stroke="#ffffff" stroke-width="4" fill="none"></path></g><g stroke-linecap="round" transform="translate(1223.1930566165306 448.7165037741553) rotate(370.9315571311332 18.294462340194286 18.294462340194173)"><path d="M20.71 0.41 C24.43 0.76, 28.86 3.5, 31.57 6.42 C34.27 9.34, 36.77 14.13, 36.93 17.95 C37.09 21.76, 35.06 26.25, 32.53 29.33 C30 32.41, 25.61 35.56, 21.74 36.4 C17.87 37.24, 12.77 36.25, 9.29 34.34 C5.81 32.43, 2.27 28.59, 0.88 24.94 C-0.5 21.3, -0.36 16.22, 0.99 12.47 C2.35 8.72, 5.62 4.48, 9 2.43 C12.38 0.39, 19.02 0.46, 21.28 0.2 C23.54 -0.07, 22.52 0.46, 22.54 0.84 M15.28 0.38 C18.89 -0.46, 24.09 1.14, 27.31 3.01 C30.53 4.88, 33.13 8.11, 34.61 11.58 C36.09 15.05, 37.38 20.01, 36.17 23.82 C34.97 27.63, 30.71 32.48, 27.38 34.46 C24.04 36.43, 20.11 36.45, 16.19 35.65 C12.27 34.85, 6.58 32.58, 3.86 29.63 C1.14 26.69, -0.06 21.87, -0.14 17.96 C-0.21 14.04, 1.03 9.08, 3.4 6.14 C5.76 3.2, 12.15 1.34, 14.05 0.35 C15.96 -0.64, 14.61 -0.14, 14.81 0.21" stroke="#ffffff" stroke-width="4" fill="none"></path></g><g stroke-linecap="round" transform="translate(1112.8578262796732 429.24651011783624) rotate(370.9315571311332 18.294462340194286 18.29446234019418)"><path d="M17.51 0.44 C21.29 0.12, 26.93 2, 30.01 4.33 C33.08 6.67, 35.32 10.64, 35.97 14.45 C36.63 18.27, 35.85 23.77, 33.94 27.22 C32.04 30.67, 28.19 33.79, 24.54 35.15 C20.89 36.51, 15.66 36.62, 12.05 35.37 C8.43 34.11, 4.74 30.99, 2.85 27.63 C0.95 24.28, 0.16 19.08, 0.67 15.23 C1.19 11.39, 2.92 7.07, 5.95 4.54 C8.97 2.01, 16.61 0.69, 18.83 0.06 C21.04 -0.56, 19.36 0.47, 19.23 0.79 M18.97 0.75 C22.48 0.59, 26.68 2.07, 29.67 4.48 C32.67 6.89, 36.31 11.23, 36.95 15.21 C37.59 19.19, 35.53 25.08, 33.51 28.36 C31.48 31.65, 28.57 33.88, 24.81 34.92 C21.04 35.96, 14.72 36.05, 10.93 34.61 C7.14 33.18, 3.94 29.76, 2.08 26.32 C0.21 22.87, -0.97 17.69, -0.28 13.96 C0.41 10.24, 3.03 6.39, 6.21 3.98 C9.38 1.57, 16.64 0.07, 18.76 -0.49 C20.87 -1.05, 18.84 0.25, 18.88 0.62" stroke="#ffffff" stroke-width="4" fill="none"></path></g><g stroke-linecap="round"><g transform="translate(1182.4734967341428 391.1345666642373) rotate(370.9315571311332 -16.71345942190578 22.81161353530385)"><path d="M-0.14 -0.08 C-5.72 7.5, -27.46 37.24, -32.84 45 M-1.67 -1.17 C-7.41 6.61, -28.32 38.58, -33.48 46.21" stroke="#ffffff" stroke-width="4" fill="none"></path></g></g><mask></mask><g stroke-linecap="round"><g transform="translate(1202.5172294596305 398.1520798327718) rotate(370.9315571311332 17.391032101172414 24.392616453592247)"><path d="M0.59 -0.63 C6.58 7.66, 29.97 41.51, 35.82 49.64 M-0.56 1.66 C5.38 9.62, 29.43 40.05, 35.42 47.97" stroke="#ffffff" stroke-width="4" fill="none"></path></g></g><mask></mask><g stroke-linecap="round"><g transform="translate(1021.7938075967754 19.595744047118387) rotate(39.41374287817306 -56.52085432880972 39.12982222763742)"><path d="M-0.55 0.86 C-19.47 13.77, -94.3 64.83, -113.01 77.58 M1.36 0.26 C-17.76 13.31, -94.8 65.78, -113.95 78.77" stroke="#ffffff" stroke-width="4" fill="none"></path></g></g><mask></mask><g stroke-linecap="round"><g transform="translate(1026.981133899464 89.21479951071453) rotate(39.41374287817306 -10.276518968874143 51.38259484437236)"><path d="M-0.82 -0.24 C-4.1 16.61, -17.41 84.74, -20.58 101.8 M0.95 -1.41 C-2.42 15.5, -18.01 85.41, -21.55 102.82" stroke="#ffffff" stroke-width="4" fill="none"></path></g></g><mask></mask><g stroke-linecap="round"><g transform="translate(1121.0529844295447 217.3644684580536) rotate(39.41374287817306 -4.743008754864832 55.335102140093255)"><path d="M-0.21 1.13 C-1.58 19.36, -7.55 92.19, -9.08 110.47 M-1.79 0.68 C-3.19 19.61, -8.43 93.32, -9.82 111.9" stroke="#ffffff" stroke-width="4" fill="none"></path></g></g><mask></mask><g stroke-linecap="round"><g transform="translate(1148.2976606226107 262.22143360824754) rotate(39.41374287817306 43.08232952335834 38.73457149806518)"><path d="M0.39 0.03 C14.48 12.89, 71.52 65.39, 85.7 78.2 M-0.86 -0.99 C12.92 12.05, 70.31 63.31, 84.51 76.46" stroke="#ffffff" stroke-width="4" fill="none"></path></g></g><mask></mask><g stroke-linecap="round" transform="translate(815.3679451106532 923.829990040864) rotate(379.047571560905 29.195260992775957 61.10636021743761)"><path d="M14.6 0 C21.06 1.27, 28.98 0.22, 43.79 0 M43.79 0 C52.72 1.83, 59.07 5, 58.39 14.6 M58.39 14.6 C58.59 43.9, 59.4 73.47, 58.39 107.62 M58.39 107.62 C56.42 117.23, 52.99 122.47, 43.79 122.21 M43.79 122.21 C35.24 120.44, 27.16 123.79, 14.6 122.21 M14.6 122.21 C6.3 123.41, 0.06 115.72, 0 107.62 M0 107.62 C-1.52 73.4, 0.23 42.12, 0 14.6 M0 14.6 C-1.2 6.82, 5.65 1.33, 14.6 0" stroke="#ffffff" stroke-width="4.5" fill="none" stroke-dasharray="8 12"></path></g><g stroke-linecap="round" transform="translate(887.9735052385167 976.724492166664) rotate(379.047571560905 29.195260992775957 45.490290384092475)"><path d="M14.6 0 C24.06 0.2, 35.31 1.61, 43.79 0 M43.79 0 C54.2 0.14, 58.61 3.4, 58.39 14.6 M58.39 14.6 C60.35 35.39, 56.69 53.99, 58.39 76.38 M58.39 76.38 C57.85 86.38, 53.52 89.32, 43.79 90.98 M43.79 90.98 C35.88 92.3, 27.66 91.92, 14.6 90.98 M14.6 90.98 C4.92 89.35, 1.04 86.53, 0 76.38 M0 76.38 C0.83 51.9, -0.79 29.29, 0 14.6 M0 14.6 C0.78 6.2, 5.94 1.73, 14.6 0" stroke="#ffffff" stroke-width="4.5" fill="none" stroke-dasharray="8 12"></path></g><g stroke-linecap="round" transform="translate(957.7673878096357 1030.842433575667) rotate(379.047571560905 29.195260992775957 30.553180108718834)"><path d="M14.6 0 C24.7 1.77, 37.09 0.08, 43.79 0 M43.79 0 C53.74 -1.47, 58.78 5.75, 58.39 14.6 M58.39 14.6 C56.69 24.68, 58.12 35.25, 58.39 46.51 M58.39 46.51 C58.39 54.58, 53.54 61.3, 43.79 61.11 M43.79 61.11 C39.06 62.54, 31.5 59.71, 14.6 61.11 M14.6 61.11 C5.91 61.52, 1.94 54.92, 0 46.51 M0 46.51 C-1.27 41.2, 0.71 33.32, 0 14.6 M0 14.6 C1.08 6.59, 2.96 0.29, 14.6 0" stroke="#ffffff" stroke-width="4.5" fill="none" stroke-dasharray="8 12"></path></g><g stroke-linecap="round" transform="translate(1038.288962783588 1003.4714529140446) rotate(379.047571560905 29.195260992775957 57.71156242757996)"><path d="M14.6 0 C24.65 -0.13, 33.55 -1.74, 43.79 0 M43.79 0 C53.92 0.88, 58.78 6.56, 58.39 14.6 M58.39 14.6 C57 45.19, 57.54 73.61, 58.39 100.83 M58.39 100.83 C58.41 110.76, 51.75 116.3, 43.79 115.42 M43.79 115.42 C32.79 113.97, 22.72 116.02, 14.6 115.42 M14.6 115.42 C6.8 114.1, -1.45 110.98, 0 100.83 M0 100.83 C1.3 76.14, 1.59 50.51, 0 14.6 M0 14.6 C-1.9 5.15, 4.74 0.81, 14.6 0" stroke="#ffffff" stroke-width="4.5" fill="none" stroke-dasharray="8 12"></path></g><g stroke-linecap="round" transform="translate(1131.1272223613032 924.9846645745042) rotate(379.047571560905 29.195260992775957 108.63352927544469)"><path d="M14.6 0 C26.24 -1.49, 37.85 0.86, 43.79 0 M43.79 0 C53.91 1.69, 59.43 2.9, 58.39 14.6 M58.39 14.6 C57.88 68.27, 57.9 125.45, 58.39 202.67 M58.39 202.67 C56.62 213.27, 55.1 218.7, 43.79 217.27 M43.79 217.27 C34.33 217.45, 24.71 215.71, 14.6 217.27 M14.6 217.27 C3.42 217.69, 0.04 211.2, 0 202.67 M0 202.67 C0.34 129.59, -2.64 53.34, 0 14.6 M0 14.6 C-0.13 5.67, 4.87 0.82, 14.6 0" stroke="#ffffff" stroke-width="4.5" fill="none" stroke-dasharray="8 12"></path></g><g stroke-linecap="round"><g transform="translate(737.9324352529056 1110.5790165629894) rotate(379.047571560905 237.63584529003538 0.6789595579715524)"><path d="M-0.88 0.24 C78.4 0.48, 396.27 1.3, 475.8 1.59 M0.86 -0.68 C80.02 -0.84, 395.93 -0.52, 475.13 -0.41" stroke="#ffffff" stroke-width="4" fill="none"></path></g><g transform="translate(737.9324352529056 1110.5790165629894) rotate(379.047571560905 237.63584529003538 0.6789595579715524)"><path d="M451.63 8.12 C459.23 6.55, 466.43 4.75, 475.13 -0.41 M451.63 8.12 C459.71 5.26, 468.25 1.3, 475.13 -0.41" stroke="#ffffff" stroke-width="4" fill="none"></path></g><g transform="translate(737.9324352529056 1110.5790165629894) rotate(379.047571560905 237.63584529003538 0.6789595579715524)"><path d="M451.65 -8.98 C459.26 -5.3, 466.46 -1.86, 475.13 -0.41 M451.65 -8.98 C459.55 -5.82, 468.08 -3.77, 475.13 -0.41" stroke="#ffffff" stroke-width="4" fill="none"></path></g></g><mask></mask><g stroke-linecap="round"><g transform="translate(806.6011470792919 1043.4252996952666) rotate(379.047571560905 -0.4908511249541334 -158.1105231312655)"><path d="M0.53 0.23 C0.68 -52.41, 0.48 -262.85, 0.03 -315.6 M-0.65 -0.69 C-0.49 -53.7, -0.51 -265.01, -0.38 -317.4" stroke="#ffffff" stroke-width="4" fill="none"></path></g><g transform="translate(806.6011470792919 1043.4252996952666) rotate(379.047571560905 -0.4908511249541334 -158.1105231312655)"><path d="M8.14 -293.89 C6.56 -297.49, 5.27 -306.47, -0.38 -317.4 M8.14 -293.89 C5.7 -301.63, 3.2 -307.61, -0.38 -317.4" stroke="#ffffff" stroke-width="4" fill="none"></path></g><g transform="translate(806.6011470792919 1043.4252996952666) rotate(379.047571560905 -0.4908511249541334 -158.1105231312655)"><path d="M-8.96 -293.91 C-6.67 -297.58, -4.08 -306.56, -0.38 -317.4 M-8.96 -293.91 C-6.37 -301.66, -3.84 -307.64, -0.38 -317.4" stroke="#ffffff" stroke-width="4" fill="none"></path></g></g><mask></mask><g stroke-linecap="round"><g transform="translate(500.98996201820773 490.88749172383825) rotate(338.92052760499416 170.31563895393697 -3.544813084967444)"><path d="M0.7 -1.09 C25.32 -2.1, 91.4 -4.57, 148.04 -5.48 C204.68 -6.4, 308.51 -6.16, 340.54 -6.61 M-0.39 0.95 C24.15 0.06, 91.03 -2.6, 147.72 -4.2 C204.4 -5.81, 307.63 -8.13, 339.73 -8.69" stroke="#ffffff" stroke-width="4" fill="none"></path></g></g><mask></mask><g stroke-linecap="round"><g transform="translate(566.859878871087 493.04181136853254) rotate(338.92052760499416 138.11041409892255 -11.352212456089958)"><path d="M1.18 -0.49 C13.57 -1.96, 29.24 -6.01, 75.02 -9.89 C120.8 -13.77, 242.33 -21.61, 275.86 -23.76 M0.34 -1.79 C12.5 -3.53, 28.26 -8.23, 74.02 -11.76 C119.79 -15.29, 241.18 -21.33, 274.91 -23" stroke="#ffffff" stroke-width="4" fill="none"></path></g></g><mask></mask><g stroke-linecap="round"><g transform="translate(494.54228797346013 504.4098828851846) rotate(0 7.682898679046502 13.567442694472447)"><path d="M-0.09 0.48 C2.22 4.91, 12.44 21.65, 15.01 26.08 M-1.59 -0.31 C0.42 4.28, 11.18 22.3, 13.87 27.06" stroke="#ffffff" stroke-width="4" fill="none"></path></g></g><mask></mask><g stroke-linecap="round"><g transform="translate(507.55470526093313 506.370678314285) rotate(0 1.4595369773503535 13.194040992370688)"><path d="M-0.16 -0.48 C0.33 3.87, 2.45 21.77, 2.9 26.34 M0.75 0.46 C1.17 4.88, 1.97 22.74, 2.46 27.02" stroke="#ffffff" stroke-width="4" fill="none"></path></g></g><mask></mask><g stroke-linecap="round"><g transform="translate(509.2131561779861 506.18497632600076) rotate(0 6.845163584988768 11.038597319240608)"><path d="M-0.02 -0.04 C2.23 3.81, 11.15 18.94, 13.34 22.62 M-0.69 -0.54 C1.75 3.21, 11.91 18.07, 14.39 21.93" stroke="#ffffff" stroke-width="4" fill="none"></path></g></g><mask></mask><g stroke-linecap="round"><g transform="translate(521.4165071515354 492.7056573078704) rotate(0 0.9605126121673493 17.923795885659615)"><path d="M-0.35 0.54 C-0.48 3.54, -1.23 12.12, -0.8 17.95 C-0.37 23.78, 1.78 32.53, 2.23 35.54 M0.47 0.35 C0.5 3.44, -0.09 12.7, 0.15 18.64 C0.39 24.58, 1.63 32.99, 1.91 35.98" stroke="#ffffff" stroke-width="4" fill="none"></path></g></g><mask></mask><g stroke-linecap="round"><g transform="translate(531.4089336729726 490.07927121124897) rotate(0 2.4552748496214463 16.181254609184762)"><path d="M-0.55 -0.01 C0.34 5.24, 4.1 26.64, 4.97 32.05 M0.17 -0.49 C1.02 5.06, 3.9 26.98, 4.57 32.59" stroke="#ffffff" stroke-width="4" fill="none"></path></g></g><mask></mask><g stroke-linecap="round"><g transform="translate(544.395635763186 484.0343914678036) rotate(0 -6.30720608003503 2.386714761447436)"><path d="M0.06 -0.31 C-0.86 0.04, -3.88 1.18, -6.06 2.12 C-8.23 3.05, -11.93 4.91, -12.99 5.31 M-0.57 0.72 C-1.54 0.9, -4.74 0.58, -6.62 1.21 C-8.51 1.85, -10.93 3.9, -11.87 4.52" stroke="#ffffff" stroke-width="4" fill="none"></path></g></g><mask></mask><g stroke-linecap="round"><g transform="translate(545.7124779012197 504.86908126041135) rotate(0 -5.759562596616888 1.3696537591483917)"><path d="M-0.26 0.12 C-2.25 0.72, -10.05 2.88, -11.9 3.27 M0.61 -0.29 C-1.22 0.19, -8.82 2.04, -10.86 2.58" stroke="#ffffff" stroke-width="4" fill="none"></path></g></g><mask></mask><g stroke-linecap="round"><g transform="translate(553.5347642395759 512.8887561425204) rotate(0 -8.248907277295302 4.730269078064197)"><path d="M-0.38 0.54 C-1.81 1.01, -6.09 1.42, -8.81 2.95 C-11.54 4.47, -15.48 8.59, -16.75 9.69 M0.43 0.33 C-1.04 0.87, -6.23 2.12, -9.17 3.52 C-12.11 4.92, -16.05 7.64, -17.23 8.74" stroke="#ffffff" stroke-width="4" fill="none"></path></g></g><mask></mask><g stroke-linecap="round"><g transform="translate(566.0108247344019 474.1474652549074) rotate(0 1.08613527524858 17.923795885659615)"><path d="M0.15 -0.25 C0.44 2.78, 1.04 12.67, 1.39 18.7 C1.74 24.73, 2.08 32.99, 2.26 35.93 M-0.44 0.81 C-0.21 3.9, 0.43 11.89, 0.83 17.85 C1.23 23.81, 1.63 33.64, 1.96 36.56" stroke="#ffffff" stroke-width="4" fill="none"></path></g></g><mask></mask><g stroke-linecap="round"><g transform="translate(566.2308732971551 474.3249271296415) rotate(0 7.682898679046048 15.434451204981244)"><path d="M-0.55 0.49 C1.99 5.76, 12.79 25.81, 15.56 31.04 M1.36 -0.3 C3.73 5.24, 12.32 27.61, 14.71 32.67" stroke="#ffffff" stroke-width="4" fill="none"></path></g></g><mask></mask><g stroke-linecap="round"><g transform="translate(578.7568046169135 469.85721287543555) rotate(0 1.584004211383899 17.674861417591785)"><path d="M0.09 0.08 C0.43 3.09, 1.22 12.49, 1.77 18.32 C2.32 24.15, 3.18 32.27, 3.37 35.07 M-0.53 -0.36 C-0.21 2.49, 0.9 11.61, 1.51 17.59 C2.12 23.57, 2.9 32.54, 3.13 35.52" stroke="#ffffff" stroke-width="4" fill="none"></path></g></g><mask></mask><g stroke-linecap="round"><g transform="translate(585.7888107479052 468.4041507027926) rotate(0 2.4552748496214463 16.181254609184762)"><path d="M0.34 0.45 C0.62 3.9, 1.06 15.49, 1.78 20.77 C2.5 26.05, 4.1 30.17, 4.65 32.13 M-0.16 0.21 C0.06 3.72, 0.73 15.93, 1.45 21.33 C2.17 26.73, 3.54 30.64, 4.17 32.61" stroke="#ffffff" stroke-width="4" fill="none"></path></g></g><mask></mask><g stroke-linecap="round"><g transform="translate(600.3573594871277 464.5826201696587) rotate(0 -6.765962033902042 1.7750401562916949)"><path d="M0.21 -0.28 C-2.15 0.2, -11.53 2.65, -13.79 3.32 M-0.35 0.77 C-2.83 1.28, -12.14 3.56, -14.35 3.9" stroke="#ffffff" stroke-width="4" fill="none"></path></g></g><mask></mask><g stroke-linecap="round"><g transform="translate(600.7935134497498 480.3443834192056) rotate(0 -6.110141833415582 2.7944424255230587)"><path d="M-0.26 -0.23 C-1.25 0.16, -3.79 1.07, -5.73 2.06 C-7.68 3.06, -10.79 5.11, -11.92 5.76 M0.61 -0.83 C-0.45 -0.58, -3.96 0.26, -6.08 1.2 C-8.2 2.13, -11.04 4.14, -12.11 4.78" stroke="#ffffff" stroke-width="4" fill="none"></path></g></g><mask></mask><g stroke-linecap="round"><g transform="translate(602.729398723035 495.7568136993029) rotate(0 -5.81712283474576 2.4551821573573704)"><path d="M0.16 0.19 C-1.69 1.07, -9.32 4.23, -11.33 5.08 M-0.43 -0.19 C-2.29 0.54, -9.61 3.43, -11.61 4.21" stroke="#ffffff" stroke-width="4" fill="none"></path></g></g><mask></mask><g stroke-linecap="round"><g transform="translate(603.1888313743088 460.3351230631585) rotate(0 2.4552748496214463 16.181254609184762)"><path d="M0.3 0.17 C0.72 3.16, 2 12.65, 2.69 18.11 C3.38 23.56, 4.07 30.52, 4.43 32.89 M-0.21 -0.21 C0.38 2.61, 2.83 11.96, 3.78 17.35 C4.73 22.73, 5.31 29.51, 5.49 32.1" stroke="#ffffff" stroke-width="4" fill="none"></path></g></g><mask></mask><g stroke-linecap="round"><g transform="translate(615.563858859367 456.81942983260245) rotate(0 -6.001368777457401 1.6221215050027524)"><path d="M-0.28 0.4 C-2.41 1, -10.52 3.3, -12.49 3.77 M0.58 0.13 C-1.41 0.58, -9.32 2.46, -11.5 3.08" stroke="#ffffff" stroke-width="4" fill="none"></path></g></g><mask></mask><g stroke-linecap="round"><g transform="translate(615.9786991270348 473.7449427451886) rotate(0 -3.9957285826817497 1.5561510546270938)"><path d="M-0.31 0.34 C-0.81 0.37, -1.87 -0.02, -3.16 0.42 C-4.44 0.87, -7.17 2.53, -8.02 3.01 M0.17 0.21 C-0.36 0.27, -2.07 0.35, -3.47 0.87 C-4.88 1.39, -7.46 3.04, -8.26 3.35" stroke="#ffffff" stroke-width="4" fill="none"></path></g></g><mask></mask><g stroke-linecap="round"><g transform="translate(621.4123117420004 488.91874937610953) rotate(0 -5.910357391229809 1.5040352404120654)"><path d="M-0.1 -0.02 C-2 0.37, -9.85 2.29, -11.87 2.86 M-0.82 -0.5 C-2.75 0.2, -10.61 2.98, -12.32 3.48" stroke="#ffffff" stroke-width="4" fill="none"></path></g></g><mask></mask><g stroke-linecap="round"><g transform="translate(622.66806449971 452.50234717197014) rotate(356.14744815337014 1.586629610538921 17.704156520406066)"><path d="M-0.05 -0.15 C0.43 5.81, 2.16 29.93, 2.78 35.77 M-0.74 -0.71 C-0.08 5.11, 3.1 29, 3.8 34.99" stroke="#ffffff" stroke-width="4" fill="none"></path></g></g><mask></mask><g stroke-linecap="round"><g transform="translate(622.5667031362768 452.41969214256994) rotate(356.14744815337014 6.250294813395385 10.855050883227904)"><path d="M-0.4 0.36 C1.29 1.71, 7.91 4.35, 10.07 7.97 C12.24 11.59, 12.09 19.81, 12.58 22.08 M0.4 0.07 C2.06 1.49, 7.9 4.89, 9.88 8.41 C11.85 11.93, 11.96 18.93, 12.27 21.21" stroke="#ffffff" stroke-width="4" fill="none"></path></g></g><mask></mask><g stroke-linecap="round"><g transform="translate(653.1657820240325 440.5708268375272) rotate(0 1.08613527524858 17.923795885659622)"><path d="M0.46 -0.5 C0.76 2.73, 1.02 13.69, 1.39 19.73 C1.77 25.78, 2.5 33.14, 2.71 35.75 M0.03 0.43 C0.3 3.48, 0.57 12.98, 1 18.96 C1.44 24.94, 2.59 33.52, 2.64 36.31" stroke="#ffffff" stroke-width="4" fill="none"></path></g></g><mask></mask><g stroke-linecap="round"><g transform="translate(654.0685038090228 440.3949456954422) rotate(0 8.927571019385141 14.18977886464205)"><path d="M0.17 0.81 C1.93 3.71, 8.41 11.88, 11.53 16.31 C14.66 20.74, 17.72 25.19, 18.92 27.4 M-1.19 0.19 C0.42 3.37, 7.89 13.07, 11.2 17.74 C14.52 22.41, 17.35 26.55, 18.71 28.2" stroke="#ffffff" stroke-width="4" fill="none"></path></g></g><mask></mask><g stroke-linecap="round"><g transform="translate(655.4028540865124 461.948531858259) rotate(0 4.169364708841158 -1.5606570231556347)"><path d="M0.35 -0.06 C1.78 -0.67, 7.28 -2.96, 8.65 -3.41 M0.1 -0.4 C1.51 -0.99, 7.14 -2.63, 8.54 -3.11" stroke="#ffffff" stroke-width="4" fill="none"></path></g></g><mask></mask><g stroke-linecap="round"><g transform="translate(671.8356469136693 433.30903511369104) rotate(0 1.08613527524858 17.923795885659615)"><path d="M0.49 -0.45 C0.79 2.91, 2.03 13.99, 2.33 20.1 C2.63 26.2, 2.35 33.57, 2.28 36.19 M0.08 0.51 C0.29 3.74, 1.78 13.62, 2.1 19.41 C2.42 25.21, 2.02 32.48, 1.99 35.29" stroke="#ffffff" stroke-width="4" fill="none"></path></g></g><mask></mask><g stroke-linecap="round"><g transform="translate(672.3046299444909 433.48649698842513) rotate(0 7.682898679046048 15.434451204981237)"><path d="M0.85 1.19 C2 4.21, 5.61 12.17, 7.94 17.1 C10.27 22.03, 13.39 28.33, 14.83 30.76 M-0.16 0.77 C0.75 3.53, 4.79 10.15, 7.11 15.36 C9.44 20.57, 12.68 29.65, 13.78 32.02" stroke="#ffffff" stroke-width="4" fill="none"></path></g></g><mask></mask><g stroke-linecap="round"><g transform="translate(684.5816267961823 429.01878273421926) rotate(0 1.1651366643552592 18.093728964620517)"><path d="M0.11 0.34 C0.04 2.94, -0.5 10.11, -0.04 16.15 C0.42 22.19, 2.45 33.22, 2.87 36.57 M-0.5 0.04 C-0.7 2.96, -1.15 10.88, -0.6 16.82 C-0.05 22.77, 2.26 32.37, 2.8 35.71" stroke="#ffffff" stroke-width="4" fill="none"></path></g></g><mask></mask><g stroke-linecap="round"><g transform="translate(723.0202497130072 414.54755287227863) rotate(0 2.4552748496214463 16.181254609184762)"><path d="M-0.25 -0.05 C0.65 5.35, 4.57 27.33, 5.45 32.75 M0.63 -0.55 C1.49 4.67, 4.61 26.37, 5.3 31.98" stroke="#ffffff" stroke-width="4" fill="none"></path></g></g><mask></mask><g stroke-linecap="round"><g transform="translate(723.7730205301746 415.0481679437631) rotate(0 6.196322266026527 8.837687801183534)"><path d="M0.54 0.39 C2.68 1.54, 12.04 3.96, 12.55 6.88 C13.06 9.8, 5.07 16.14, 3.63 17.92 M0.16 0.11 C2.25 1.09, 11.66 3.16, 12.2 5.97 C12.74 8.78, 4.98 14.98, 3.39 16.98" stroke="#ffffff" stroke-width="4" fill="none"></path></g></g><mask></mask><g stroke-linecap="round"><g transform="translate(726.8958296248115 434.1083958330338) rotate(0 5.741197481786003 3.812757170330592)"><path d="M0.16 0.11 C2.02 1.36, 9.72 6.64, 11.69 7.87 M-0.42 -0.31 C1.33 0.74, 9.32 5.64, 11.37 7.03" stroke="#ffffff" stroke-width="4" fill="none"></path></g></g><mask></mask><g stroke-linecap="round"><g transform="translate(742.3071988004199 406.0562456765351) rotate(0 1.08613527524858 17.923795885659615)"><path d="M0.21 0.24 C0.63 6.18, 2.36 29.76, 2.67 35.71 M-0.35 -0.11 C0.03 5.9, 2.17 30.22, 2.49 36.33" stroke="#ffffff" stroke-width="4" fill="none"></path></g></g><mask></mask><g stroke-linecap="round"><g transform="translate(742.784827823265 407.0662153174633) rotate(0 8.927571019385141 14.18977886464205)"><path d="M1.08 -0.31 C3.93 4.36, 14.62 23.6, 17.54 28.52 M0.19 -1.52 C2.81 3.32, 13.42 25.32, 16.42 30.14" stroke="#ffffff" stroke-width="4" fill="none"></path></g></g><mask></mask><g stroke-linecap="round"><g transform="translate(744.238433560321 428.3812905611476) rotate(0 4.322283360130086 -1.8664943257335054)"><path d="M-0.09 0.04 C1.33 -0.52, 7.37 -2.8, 8.86 -3.47 M0.5 -0.24 C1.87 -0.9, 7.31 -3.39, 8.69 -3.97" stroke="#ffffff" stroke-width="4" fill="none"></path></g></g><mask></mask><g stroke-linecap="round"><g transform="translate(766.6159497863232 399.75353241265975) rotate(0 -3.381813725969778 9.6407977010075)"><path d="M0.33 0.4 C-0.82 2, -7.1 6.53, -7.07 9.64 C-7.03 12.75, -0.82 17.38, 0.53 19.06 M-0.16 0.13 C-1.35 1.78, -7.38 6.91, -7.33 10.14 C-7.28 13.38, -1.32 18.11, 0.13 19.55" stroke="#ffffff" stroke-width="4" fill="none"></path></g></g><mask></mask><g stroke-linecap="round"><g transform="translate(767.5401128237154 419.1972739193364) rotate(0 1.7459308685897668 8.17761518763708)"><path d="M0.33 -0.38 C1.09 0.75, 5.08 4.32, 4.85 7.19 C4.62 10.06, 0.01 15.37, -1.03 16.82 M-0.16 0.61 C0.49 1.78, 4.53 5.21, 4.37 7.78 C4.2 10.34, -0.23 14.6, -1.15 15.99" stroke="#ffffff" stroke-width="4" fill="none"></path></g></g><mask></mask><g stroke-linecap="round"><g transform="translate(774.6396062893391 398.41352133618483) rotate(0 2.4552748496214463 16.181254609184762)"><path d="M-0.1 -0.22 C0.73 5.32, 4.49 27.48, 5.34 32.82 M-0.82 -0.81 C-0.05 4.62, 4.21 26.59, 5.14 32.1" stroke="#ffffff" stroke-width="4" fill="none"></path></g></g><mask></mask><g stroke-linecap="round"><g transform="translate(784.2620980511961 398.03868922367394) rotate(0 -4.319263613278963 0.09293499211339906)"><path d="M0.28 0.3 C-1.14 0.3, -7.1 -0.16, -8.57 -0.13 M-0.01 0.14 C-1.46 0.19, -7.37 0.19, -8.82 0.16" stroke="#ffffff" stroke-width="4" fill="none"></path></g></g><mask></mask><g stroke-linecap="round"><g transform="translate(787.7198013072752 411.6741448724578) rotate(0 -4.383294735016534 1.2167351078594564)"><path d="M0.06 -0.32 C-1.43 0.09, -7.23 2.26, -8.67 2.74 M-0.33 0.29 C-1.88 0.76, -7.5 1.82, -8.89 2.27" stroke="#ffffff" stroke-width="4" fill="none"></path></g></g><mask></mask><g stroke-linecap="round"><g transform="translate(794.6307840890527 420.52263521887954) rotate(0 -6.95823168353877 5.121698648485726)"><path d="M0.15 0.47 C-2.13 2.28, -11.19 8.69, -13.6 10.39 M-0.43 0.24 C-2.77 1.92, -11.75 7.91, -13.87 9.5" stroke="#ffffff" stroke-width="4" fill="none"></path></g></g><mask></mask><g stroke-linecap="round"><g transform="translate(792.1013426213863 392.06090436141113) rotate(0 2.4552748496214463 16.181254609184762)"><path d="M0.32 0.15 C1.04 5.53, 3.85 27.38, 4.53 32.78 M-0.19 -0.25 C0.7 5.22, 4.63 26.72, 5.57 32.03" stroke="#ffffff" stroke-width="4" fill="none"></path></g></g><mask></mask><g stroke-linecap="round"><g transform="translate(792.8541134385537 392.5615194328956) rotate(0 6.196322266026755 8.837687801183534)"><path d="M-0.38 0.42 C1.55 1.4, 11.22 3.25, 11.88 6.06 C12.54 8.87, 4.91 15.42, 3.59 17.26 M0.43 0.16 C2.49 0.96, 12.37 2.29, 12.85 5.2 C13.34 8.12, 5.03 15.62, 3.33 17.65" stroke="#ffffff" stroke-width="4" fill="none"></path></g></g><mask></mask><g stroke-linecap="round"><g transform="translate(795.9769225331906 411.62174732216636) rotate(0 6.8116280408085 4.730269078064204)"><path d="M-0.51 0.21 C1.85 1.65, 11.35 7.6, 13.8 9.05 M0.23 -0.16 C2.56 1.3, 11.15 7.97, 13.46 9.54" stroke="#ffffff" stroke-width="4" fill="none"></path></g></g><mask></mask><g stroke-linecap="round"><g transform="translate(636.2179723865188 471.1646189619362) rotate(356.14744815337014 -4.508796555572189 8.333388843626068)"><path d="M0.17 -0.41 C0.1 1.32, 0.59 7.74, -0.95 10.62 C-2.48 13.49, -7.77 15.81, -9.04 16.83 M-0.4 0.56 C-0.46 2.33, 0.4 8.49, -1.1 11.04 C-2.6 13.59, -8.21 14.81, -9.4 15.84" stroke="#ffffff" stroke-width="4" fill="none"></path></g></g><mask></mask><g stroke-linecap="round"><g transform="translate(704.1906331992254 421.13548773697823) rotate(0 2.4552748496214463 16.181254609184762)"><path d="M0.53 -0.54 C0.76 3.06, 0.75 15.72, 1.55 21.21 C2.35 26.7, 4.87 30.61, 5.35 32.39 M0.14 0.37 C0.28 3.84, 0.26 14.89, 1.11 20.33 C1.95 25.77, 4.69 31.04, 5.22 33.01" stroke="#ffffff" stroke-width="4" fill="none"></path></g></g><mask></mask><g stroke-linecap="round"><g transform="translate(717.759181938447 416.31395720384427) rotate(0 -6.765962033902042 1.7750401562916949)"><path d="M-0.02 0.16 C-2.29 0.85, -10.76 3.09, -13.09 3.58 M-0.7 -0.23 C-3.05 0.59, -11.26 3.69, -13.3 4.3" stroke="#ffffff" stroke-width="4" fill="none"></path></g></g><mask></mask><g stroke-linecap="round"><g transform="translate(719.1953359010695 433.0757204533912) rotate(0 -6.110141833415582 2.7944424255230587)"><path d="M0.44 0.03 C-0.62 0.24, -4.29 0.51, -6.37 1.4 C-8.46 2.3, -11.17 4.66, -12.06 5.39 M0 -0.43 C-0.89 -0.18, -3.33 0.81, -5.39 1.86 C-7.44 2.91, -11.06 5.13, -12.33 5.88" stroke="#ffffff" stroke-width="4" fill="none"></path></g></g><mask></mask><g stroke-linecap="round"><g transform="translate(721.1312211743543 448.4881507334885) rotate(0 -5.81712283474576 2.4551821573573704)"><path d="M-0.48 -0.47 C-2.47 0.31, -9.7 3.78, -11.48 4.71 M0.27 0.47 C-1.81 1.32, -9.91 4.69, -11.83 5.3" stroke="#ffffff" stroke-width="4" fill="none"></path></g></g><mask></mask><g stroke-linecap="round"><g transform="translate(810.9982056810286 386.4299524536421) rotate(0 2.4362987111455823 11.388378927550995)"><path d="M0.16 -0.2 C1.13 3.7, 4.54 19.11, 5.37 22.96 M-0.43 -0.78 C0.56 2.99, 4.31 18.03, 5.19 22.08" stroke="#ffffff" stroke-width="4" fill="none"></path></g></g><mask></mask><g stroke-linecap="round"><g transform="translate(818.001206819672 417.08585672933134) rotate(0 0.15351819132183664 -0.025523671569217754)"><path d="M0.32 0.12 C0.38 0.14, 0.41 0.06, 0.45 0.01 M0.05 -0.13 C0.07 -0.21, 0.18 -0.63, 0.24 -0.58" stroke="#ffffff" stroke-width="4" fill="none"></path></g></g><mask></mask><g stroke-linecap="round"><g transform="translate(822.399768200763 381.9882654738048) rotate(0 2.4362987111455823 11.388378927550995)"><path d="M0.22 0.09 C1 3.83, 4.5 18.78, 5.21 22.6 M-0.33 -0.33 C0.37 3.46, 3.96 19.48, 4.95 23.21" stroke="#ffffff" stroke-width="4" fill="none"></path></g></g><mask></mask><g stroke-linecap="round"><g transform="translate(828.6034383724068 412.7209780036101) rotate(0 0.15351819132183664 -0.025523671569217754)"><path d="M0.22 -0.12 C0.2 -0.11, 0.06 0.06, 0.06 0.08 M-0.1 -0.48 C-0.01 -0.59, 0.72 -0.63, 0.73 -0.47" stroke="#ffffff" stroke-width="4" fill="none"></path></g></g><mask></mask></svg>