<svg version="1.1" xmlns="http://www.w3.org/2000/svg" viewBox="0 0 314.8570442607829 304.18527456233596" width="314.8570442607829" height="304.18527456233596">
  <!-- svg-source:excalidraw -->
  
  <defs>
    <style class="style-fonts">
      @font-face {
        font-family: "Virgil";
        src: url("https://excalidraw.com/Virgil.woff2");
      }
      @font-face {
        font-family: "Cascadia";
        src: url("https://excalidraw.com/Cascadia.woff2");
      }
      @font-face {
        font-family: "Assistant";
        src: url("https://excalidraw.com/Assistant-Regular.woff2");
      }
    </style>
    
  </defs>
  <g stroke-linecap="round" transform="translate(10 10) rotate(0 27.272300340474203 27.272300340474487)"><path d="M28.35 -0.38 C33.94 -0.34, 40.57 3.46, 45.01 7.43 C49.46 11.39, 54.26 17.78, 55.01 23.4 C55.76 29.02, 52.82 36.13, 49.52 41.14 C46.21 46.16, 40.46 51.6, 35.17 53.47 C29.88 55.33, 23.19 54.52, 17.76 52.34 C12.32 50.17, 5.38 45.66, 2.55 40.41 C-0.28 35.16, -0.48 26.65, 0.76 20.84 C2 15.03, 5.14 9.14, 10 5.55 C14.86 1.96, 26.36 0.13, 29.94 -0.72 C33.52 -1.56, 31.54 -0.09, 31.47 0.5 M28.44 0.2 C34.18 0.31, 41.69 2.81, 46.22 6.85 C50.74 10.9, 55.06 18.27, 55.58 24.49 C56.11 30.7, 52.82 39.34, 49.37 44.15 C45.91 48.96, 40.38 51.9, 34.84 53.33 C29.29 54.76, 21.45 54.98, 16.08 52.74 C10.72 50.51, 5.18 45.09, 2.64 39.91 C0.1 34.73, -0.54 27.57, 0.84 21.66 C2.22 15.76, 5.88 8.04, 10.93 4.48 C15.97 0.92, 27.78 1.03, 31.11 0.28 C34.45 -0.48, 31.39 -0.47, 30.94 -0.03" stroke="#ffffff" stroke-width="4" fill="none"></path></g><g stroke-linecap="round" transform="translate(130.1562217899159 46.75831785020489) rotate(0 27.667551070046557 28.06280179961874)"><path d="M32.77 1.08 C38.16 1.64, 43.98 4.45, 47.79 8.91 C51.6 13.36, 55.56 21.65, 55.64 27.81 C55.72 33.98, 51.97 41.1, 48.28 45.89 C44.58 50.68, 39.28 55.53, 33.46 56.57 C27.64 57.61, 18.6 55.17, 13.34 52.13 C8.07 49.08, 3.97 43.79, 1.85 38.3 C-0.27 32.82, -1.27 24.82, 0.62 19.2 C2.51 13.57, 7.51 7.51, 13.2 4.56 C18.9 1.6, 31.02 1.94, 34.81 1.48 C38.61 1.03, 36.13 1.64, 35.98 1.84 M40.24 1.49 C45.22 3.64, 49.07 11.64, 51.48 17.48 C53.9 23.32, 56.12 30.98, 54.75 36.53 C53.38 42.07, 48.39 47.29, 43.28 50.76 C38.18 54.23, 30.08 57.99, 24.12 57.36 C18.16 56.72, 11.66 51.49, 7.51 46.97 C3.37 42.44, -0.11 36.06, -0.76 30.23 C-1.41 24.39, -0.03 16.86, 3.61 11.95 C7.25 7.04, 15.33 2.43, 21.06 0.78 C26.78 -0.87, 34.84 1.55, 37.95 2.06 C41.07 2.58, 39.78 3.14, 39.72 3.86" stroke="#ffffff" stroke-width="4" fill="none"></path></g><g stroke-linecap="round" transform="translate(14.347758025293842 87.07389226655857) rotate(0 27.272300340474203 27.272300340474487)"><path d="M26 -0.68 C31.67 -1.3, 39.7 1.52, 44.22 5.27 C48.74 9.02, 51.88 16, 53.11 21.83 C54.34 27.66, 54.19 35.06, 51.61 40.24 C49.04 45.43, 43.16 50.62, 37.66 52.93 C32.16 55.24, 24.18 55.92, 18.6 54.1 C13.02 52.28, 7.37 47.08, 4.16 42.01 C0.95 36.95, -1.48 29.37, -0.66 23.71 C0.17 18.05, 3.86 11.93, 9.13 8.04 C14.41 4.16, 26.59 1.45, 30.99 0.39 C35.39 -0.68, 35.75 1.27, 35.51 1.67 M41.24 3.7 C46.25 5.94, 49.43 11.97, 51.67 17.38 C53.92 22.79, 56.4 30.51, 54.69 36.17 C52.99 41.83, 46.75 48.11, 41.45 51.33 C36.14 54.56, 28.36 56.67, 22.85 55.53 C17.34 54.39, 12.22 49.28, 8.39 44.51 C4.57 39.74, 0.43 32.36, -0.09 26.92 C-0.6 21.49, 1.5 16.02, 5.31 11.88 C9.13 7.74, 16.78 3.49, 22.79 2.08 C28.81 0.68, 38.79 3.22, 41.41 3.45 C44.04 3.69, 39.01 3.41, 38.55 3.51" stroke="#ffffff" stroke-width="4" fill="none"></path></g><g stroke-linecap="round" transform="translate(17.509763861869942 166.12403818097766) rotate(0 27.272300340474203 27.272300340474487)"><path d="M15.93 2.38 C20.84 -0.04, 28.87 0.24, 34.6 1.95 C40.34 3.66, 47.22 7.76, 50.35 12.66 C53.48 17.57, 53.99 25.48, 53.39 31.36 C52.8 37.24, 50.8 44.02, 46.78 47.95 C42.75 51.89, 35.32 54.68, 29.26 54.97 C23.2 55.26, 15.15 53.31, 10.41 49.71 C5.67 46.11, 2.02 39.26, 0.8 33.36 C-0.42 27.45, 0.32 19.59, 3.1 14.29 C5.87 9, 14.7 3.82, 17.44 1.59 C20.18 -0.64, 19.29 0.65, 19.53 0.9 M31.8 -0.91 C37.69 -0.06, 45.1 5.72, 48.87 10.32 C52.63 14.93, 54.53 20.82, 54.39 26.7 C54.25 32.58, 51.63 41.23, 48.01 45.6 C44.4 49.98, 38.34 52.06, 32.7 52.95 C27.07 53.85, 19.18 53.51, 14.18 50.98 C9.17 48.45, 4.92 43.17, 2.68 37.76 C0.44 32.34, -1.29 24.14, 0.74 18.48 C2.77 12.82, 9.6 6.93, 14.84 3.8 C20.08 0.68, 29.62 0.32, 32.18 -0.29 C34.75 -0.89, 30.43 -0.32, 30.23 0.17" stroke="#ffffff" stroke-width="4" fill="none"></path></g><g stroke-linecap="round" transform="translate(20.671769698446496 239.640673881387) rotate(0 27.272300340474203 27.272300340474487)"><path d="M22.24 0.59 C27.87 -0.52, 37.12 1.66, 42.17 4.51 C47.22 7.37, 50.67 12.42, 52.52 17.71 C54.37 23.01, 55.26 30.81, 53.25 36.27 C51.23 41.73, 45.78 47.62, 40.43 50.49 C35.09 53.36, 26.76 54.6, 21.16 53.51 C15.56 52.41, 10.35 48.34, 6.84 43.92 C3.33 39.49, 0.02 32.61, 0.1 26.93 C0.18 21.25, 2.75 14.27, 7.31 9.83 C11.86 5.39, 23.13 1.75, 27.44 0.3 C31.76 -1.15, 32.94 0.67, 33.2 1.14 M40.41 3.09 C45.83 5.13, 50.51 9.91, 52.55 15.3 C54.6 20.7, 54.11 29.82, 52.69 35.46 C51.27 41.11, 48.62 46.04, 44.01 49.16 C39.39 52.28, 31.1 54.49, 25.03 54.17 C18.95 53.84, 11.47 51.59, 7.53 47.23 C3.59 42.86, 1.94 34.08, 1.37 27.97 C0.81 21.86, 0.82 14.9, 4.13 10.57 C7.44 6.24, 15.35 3.34, 21.22 1.99 C27.08 0.65, 36.46 2.43, 39.32 2.49 C42.18 2.56, 38.35 2.13, 38.38 2.37" stroke="#ffffff" stroke-width="4" fill="none"></path></g><g stroke-linecap="round" transform="translate(137.27073492221507 129.760971060345) rotate(0 27.667551070046557 28.06280179961874)"><path d="M27.48 0.22 C33.19 -0.12, 40.28 3.57, 44.84 7.16 C49.41 10.75, 53.78 16.09, 54.9 21.74 C56.02 27.4, 54.33 35.69, 51.57 41.09 C48.82 46.49, 43.93 52.03, 38.37 54.15 C32.8 56.27, 23.95 55.73, 18.2 53.81 C12.45 51.9, 6.83 47.8, 3.85 42.65 C0.87 37.51, -0.56 28.89, 0.33 22.96 C1.22 17.02, 4.34 10.99, 9.19 7.05 C14.04 3.1, 25.36 0.18, 29.41 -0.73 C33.45 -1.64, 33.5 0.98, 33.45 1.58 M26.37 -0.53 C31.78 -0.83, 39.86 2, 44.62 6.02 C49.38 10.03, 53.72 17.33, 54.95 23.55 C56.19 29.77, 54.96 38, 52.02 43.35 C49.08 48.71, 43.16 53.79, 37.31 55.68 C31.47 57.58, 22.43 56.74, 16.94 54.73 C11.45 52.72, 7.24 48.87, 4.39 43.62 C1.54 38.36, -1.25 29.35, -0.16 23.19 C0.94 17.03, 6.5 10.32, 10.95 6.66 C15.4 2.99, 23.73 2.2, 26.55 1.22 C29.37 0.23, 27.54 0.35, 27.89 0.77" stroke="#ffffff" stroke-width="4" fill="none"></path></g><g stroke-linecap="round" transform="translate(140.43274075879162 206.43961259733123) rotate(0 27.667551070046557 28.06280179961874)"><path d="M24.79 -0.23 C30.45 -1.51, 38.42 0.43, 43.38 3.79 C48.33 7.15, 53.04 14.05, 54.53 19.93 C56.02 25.8, 54.82 33.56, 52.31 39.03 C49.8 44.51, 44.56 49.97, 39.49 52.77 C34.41 55.57, 27.61 56.96, 21.87 55.82 C16.13 54.68, 8.56 50.82, 5.05 45.93 C1.55 41.03, 0.47 32.6, 0.85 26.44 C1.22 20.29, 3.03 13.53, 7.3 9.02 C11.56 4.5, 22.74 0.59, 26.44 -0.65 C30.15 -1.89, 29.55 1.09, 29.53 1.58 M27.27 0.48 C32.74 0.04, 40.12 2.66, 44.51 6.28 C48.9 9.9, 52.54 16.35, 53.63 22.21 C54.72 28.07, 53.89 35.95, 51.05 41.46 C48.21 46.98, 42.24 53.05, 36.58 55.3 C30.93 57.56, 22.66 57.09, 17.12 55 C11.59 52.91, 6.03 48.02, 3.36 42.77 C0.69 37.51, -0.19 29.41, 1.09 23.48 C2.37 17.55, 6.78 11.14, 11.05 7.2 C15.32 3.27, 23.93 0.8, 26.71 -0.13 C29.49 -1.06, 27.38 1.27, 27.71 1.62" stroke="#ffffff" stroke-width="4" fill="none"></path></g><g stroke-linecap="round" transform="translate(242.40742898839198 45.1773149319165) rotate(0 27.667551070046557 28.06280179961874)"><path d="M24.15 0.82 C29.74 -0.19, 37.08 1.98, 41.93 5.03 C46.78 8.07, 51.41 13.43, 53.23 19.09 C55.05 24.74, 54.91 33.2, 52.87 38.95 C50.83 44.7, 46.21 50.89, 41 53.59 C35.78 56.3, 27.21 56.57, 21.57 55.16 C15.92 53.75, 10.84 49.84, 7.12 45.12 C3.4 40.41, -0.66 32.64, -0.76 26.88 C-0.86 21.12, 2.07 14.91, 6.53 10.57 C10.99 6.22, 22.6 2.3, 26 0.79 C29.4 -0.72, 26.97 1.2, 26.93 1.5 M41.01 3.52 C46.31 5.64, 50.77 11.41, 53.09 16.79 C55.42 22.17, 56.78 30.2, 54.98 35.82 C53.18 41.45, 47.05 47.24, 42.27 50.53 C37.49 53.81, 31.82 55.89, 26.31 55.53 C20.79 55.17, 13.44 52.65, 9.17 48.39 C4.9 44.12, 1.54 35.96, 0.68 29.94 C-0.17 23.92, 0.81 16.9, 4.06 12.28 C7.32 7.66, 14.51 3.6, 20.2 2.24 C25.9 0.87, 34.86 3.91, 38.23 4.1 C41.6 4.29, 40.41 2.94, 40.4 3.36" stroke="#ffffff" stroke-width="4" fill="none"></path></g><g stroke-linecap="round" transform="translate(245.56943482496808 125.80846376462387) rotate(0 27.667551070046557 28.06280179961874)"><path d="M19.66 0.42 C25.04 -1.6, 32.79 -0.48, 38.21 1.86 C43.63 4.2, 49.36 9.29, 52.19 14.49 C55.02 19.68, 56.54 26.93, 55.2 33.01 C53.86 39.09, 48.96 46.99, 44.14 50.96 C39.32 54.93, 32.21 57.22, 26.28 56.82 C20.35 56.42, 12.91 52.54, 8.57 48.54 C4.24 44.54, 0.94 38.83, 0.28 32.81 C-0.38 26.79, 0.58 18, 4.63 12.44 C8.68 6.89, 20.53 1.49, 24.59 -0.53 C28.65 -2.55, 28.91 -0.27, 28.97 0.31 M20.46 1.22 C25.48 -0.99, 32.99 -1.31, 38.13 1.19 C43.27 3.69, 48.67 10.88, 51.29 16.24 C53.91 21.59, 55.05 27.84, 53.85 33.34 C52.64 38.84, 48.63 45.23, 44.06 49.24 C39.49 53.26, 32.2 57.65, 26.44 57.42 C20.67 57.2, 13.86 52.43, 9.46 47.91 C5.07 43.39, 0.69 36.05, 0.08 30.3 C-0.54 24.54, 2.58 18.06, 5.79 13.37 C8.99 8.69, 17.16 4.13, 19.3 2.19 C21.45 0.25, 18.24 1.55, 18.65 1.73" stroke="#ffffff" stroke-width="4" fill="none"></path></g><g stroke-linecap="round" transform="translate(249.5219421206898 199.32509946503365) rotate(0 27.667551070046557 28.06280179961874)"><path d="M36.75 1.55 C42.11 3.17, 49.01 8.82, 51.92 14.22 C54.82 19.63, 55.39 28.17, 54.18 33.98 C52.96 39.78, 49.02 45.23, 44.64 49.05 C40.26 52.87, 33.6 56.77, 27.91 56.89 C22.22 57.01, 15.09 53.74, 10.5 49.78 C5.91 45.82, 1.52 39.1, 0.4 33.12 C-0.72 27.15, 0.77 19.1, 3.79 13.94 C6.81 8.78, 12.19 3.72, 18.53 2.16 C24.88 0.61, 37.46 3.73, 41.86 4.61 C46.26 5.49, 45.13 7.16, 44.94 7.45 M24.21 0.88 C29.69 -0.4, 37.71 0.02, 42.78 3.32 C47.84 6.63, 52.82 14.98, 54.59 20.71 C56.36 26.44, 55.63 32.49, 53.4 37.72 C51.17 42.95, 46.68 49.11, 41.21 52.09 C35.74 55.07, 26.31 56.7, 20.57 55.6 C14.84 54.51, 10.02 50.46, 6.81 45.53 C3.61 40.6, 1.46 32.25, 1.34 26.03 C1.23 19.8, 2.38 12.38, 6.13 8.2 C9.88 4.02, 21.05 2.31, 23.83 0.93 C26.62 -0.45, 23.02 -0.28, 22.85 -0.11" stroke="#ffffff" stroke-width="4" fill="none"></path></g><g stroke-linecap="round"><g transform="translate(66.91610505838162 43.99156274320012) rotate(0 31.224807636195237 13.833775535023335)"><path d="M-0.7 0.83 C9.9 5.4, 52.69 22, 63.07 26.67 M1.14 0.22 C11.68 4.97, 51.96 23.2, 62.44 27.69" stroke="#ffffff" stroke-width="4" fill="none"></path></g></g><mask></mask><g stroke-linecap="round"><g transform="translate(68.93293133871884 45.84625771844253) rotate(0 33.59631201362777 53.75409922180495)"><path d="M1.06 0.18 C12.28 18.27, 56.51 89.55, 67.34 107.5 M0.15 -0.77 C11.23 17.62, 55.11 91.29, 66.48 109.04" stroke="#ffffff" stroke-width="4" fill="none"></path></g></g><mask></mask><g stroke-linecap="round"><g transform="translate(65.972827916607 45.18988799213105) rotate(0 37.54881930934903 92.09341999029817)"><path d="M-0.34 0.5 C12.21 31.21, 62.25 152.63, 74.84 183.3 M1.68 -0.29 C14.08 30.64, 61.62 153.32, 73.75 184.37" stroke="#ffffff" stroke-width="4" fill="none"></path></g></g><mask></mask><g stroke-linecap="round"><g transform="translate(73.30058542798588 124.21973615598188) rotate(0 31.224807636195237 13.833775535023335)"><path d="M-0.2 -0.14 C10.21 4.24, 52.58 22.68, 62.85 27.16 M-1.76 -1.26 C8.49 3.2, 51.19 23.63, 62.11 28.44" stroke="#ffffff" stroke-width="4" fill="none"></path></g></g><mask></mask><g stroke-linecap="round"><g transform="translate(75.31741170832402 126.07443113122429) rotate(0 32.805810554483514 50.98734411480024)"><path d="M0.4 -0.5 C11.2 16.36, 53.9 84, 64.58 101.04 M-0.85 -1.82 C10.33 15.18, 55.48 84.62, 66.75 102.09" stroke="#ffffff" stroke-width="4" fill="none"></path></g></g><mask></mask><g stroke-linecap="round"><g transform="translate(72.35730828621172 125.41806140491292) rotate(0 28.853303258762935 -21.738790126465233)"><path d="M-1.03 -0.93 C8.33 -8.13, 46.72 -36.51, 56.59 -43.68 M0.63 1.19 C10.31 -5.77, 49.21 -34.9, 58.71 -42.25" stroke="#ffffff" stroke-width="4" fill="none"></path></g></g><mask></mask><g stroke-linecap="round"><g transform="translate(76.46259126456289 200.1078762338242) rotate(0 31.224807636195237 13.833775535023335)"><path d="M0.58 0.41 C10.71 5.36, 51.08 24.01, 61.26 28.55 M-0.58 -0.42 C9.85 4.3, 52.56 21.99, 63.35 26.88" stroke="#ffffff" stroke-width="4" fill="none"></path></g></g><mask></mask><g stroke-linecap="round"><g transform="translate(78.47941754490012 201.9625712090666) rotate(0 28.45805252919058 -20.55303793774891)"><path d="M-1.19 0.88 C8.08 -6.05, 46.37 -34.01, 56.16 -41.14 M0.39 0.29 C9.99 -6.47, 49.01 -32.73, 58.47 -39.62" stroke="#ffffff" stroke-width="4" fill="none"></path></g></g><mask></mask><g stroke-linecap="round"><g transform="translate(75.51931412278873 201.306201482755) rotate(0 30.829556906623566 -54.14934995137702)"><path d="M-0.76 -0.03 C9.83 -18.36, 52.08 -90.87, 62.31 -109.09 M1.05 -1.09 C11.63 -19.36, 51.39 -90.06, 61.71 -107.96" stroke="#ffffff" stroke-width="4" fill="none"></path></g></g><mask></mask><g stroke-linecap="round"><g transform="translate(79.62459710113899 256.23347983306155) rotate(0 30.03905544747886 -10.671769698446553)"><path d="M-1.06 -1.14 C8.88 -4.52, 48.75 -17.16, 58.92 -20.46 M0.58 0.88 C10.94 -2.81, 51.27 -18.13, 61.03 -22.11" stroke="#ffffff" stroke-width="4" fill="none"></path></g></g><mask></mask><g stroke-linecap="round"><g transform="translate(81.64142338147713 258.08817480830396) rotate(0 29.248553988334606 -42.291828064214144)"><path d="M-1.16 0.89 C8.75 -12.95, 48.36 -69.93, 58.36 -84.14 M0.44 0.31 C10.26 -13.79, 47.71 -72.15, 57.34 -86.03" stroke="#ffffff" stroke-width="4" fill="none"></path></g></g><mask></mask><g stroke-linecap="round"><g transform="translate(78.68131995936483 257.4318050819926) rotate(0 29.643804717907187 -81.02639956227944)"><path d="M-0.14 0.44 C9.99 -26.69, 49.86 -135, 59.6 -161.89 M-1.67 -0.37 C8.43 -27.36, 48.43 -133.22, 58.82 -160.26" stroke="#ffffff" stroke-width="4" fill="none"></path></g></g><mask></mask><g stroke-linecap="round"><g transform="translate(186.87526880490395 85.59971556391179) rotate(0 29.643804717906733 27.2723003404746)"><path d="M0.83 0.88 C10.8 10.21, 50.66 46.49, 60.31 55.59 M-0.19 0.3 C9.67 9.35, 50.25 45.13, 59.9 54.01" stroke="#ffffff" stroke-width="4" fill="none"></path></g></g><mask></mask><g stroke-linecap="round"><g transform="translate(188.8920950852421 87.45441053915397) rotate(0 32.410559824911616 60.078110894958456)"><path d="M1.02 1.04 C11.59 21.07, 53.66 101.37, 64.26 121.07 M0.1 0.55 C10.39 20.17, 52.4 99.5, 63.02 119.42" stroke="#ffffff" stroke-width="4" fill="none"></path></g></g><mask></mask><g stroke-linecap="round"><g transform="translate(185.9319916631298 86.7980408128426) rotate(0 28.458052529191036 -1.581002918288391)"><path d="M-0.56 0.91 C8.73 0.06, 47.1 -3.36, 56.76 -4.06 M1.35 0.34 C10.38 0.14, 46.47 -2.6, 55.73 -3" stroke="#ffffff" stroke-width="4" fill="none"></path></g></g><mask></mask><g stroke-linecap="round"><g transform="translate(190.03727464148096 161.4878556417541) rotate(0 30.03905544747886 29.64380471790713)"><path d="M-0.16 -0.9 C10.03 8.81, 50.71 49.03, 60.57 59.15 M-1.7 1.24 C8.42 11.06, 49.37 51.2, 59.88 60.62" stroke="#ffffff" stroke-width="4" fill="none"></path></g></g><mask></mask><g stroke-linecap="round"><g transform="translate(191.26359946267303 163.34255061699628) rotate(0 26.086548151758052 -3.162005836576725)"><path d="M0.49 -0.14 C9.04 -0.95, 42.44 -4.65, 51.13 -5.79 M-0.71 -1.25 C8.22 -2.35, 44.5 -6.84, 53.29 -7.63" stroke="#ffffff" stroke-width="4" fill="none"></path></g></g><mask></mask><g stroke-linecap="round"><g transform="translate(189.0939974997068 162.6861808906849) rotate(0 30.829556906623566 -34.3868134727723)"><path d="M-1.04 0.54 C9.22 -11.01, 51.49 -57.81, 62.1 -69.4 M0.61 -0.23 C10.71 -11.61, 51.09 -56.93, 61.38 -68.19" stroke="#ffffff" stroke-width="4" fill="none"></path></g></g><mask></mask><g stroke-linecap="round"><g transform="translate(193.19928047805615 217.61345924099146) rotate(0 26.87704961090185 5.138259484437242)"><path d="M0.44 -0.63 C9.73 0.96, 45.75 8.41, 54.72 10.05 M-0.79 1.66 C8.52 3.38, 45.18 10.08, 54.28 11.47" stroke="#ffffff" stroke-width="4" fill="none"></path></g></g><mask></mask><g stroke-linecap="round"><g transform="translate(195.2161067583943 219.46815421623364) rotate(0 25.69129742218547 -24.50554523346983)"><path d="M0.97 -0.22 C9.55 -8.46, 43.41 -41.82, 51.93 -50.06 M0.02 -1.39 C8.45 -9.46, 42.65 -41.19, 51.27 -49.08" stroke="#ffffff" stroke-width="4" fill="none"></path></g></g><mask></mask><g stroke-linecap="round"><g transform="translate(192.256003336282 218.81178448992227) rotate(0 29.643804717907187 -61.659113813246734)"><path d="M0.55 -1.05 C10.39 -21.68, 50.06 -103.55, 60 -124 M-0.62 1.01 C9.03 -19.45, 49.34 -102.21, 59.43 -122.82" stroke="#ffffff" stroke-width="4" fill="none"></path></g></g><mask></mask></svg>