<svg version="1.1" xmlns="http://www.w3.org/2000/svg" viewBox="0 0 407.60151687321513 415.65510796368847" width="407.60151687321513" height="415.65510796368847">
  <!-- svg-source:excalidraw -->
  
  <defs>
    <style class="style-fonts">
      @font-face {
        font-family: "Virgil";
        src: url("https://excalidraw.com/Virgil.woff2");
      }
      @font-face {
        font-family: "Cascadia";
        src: url("https://excalidraw.com/Cascadia.woff2");
      }
      @font-face {
        font-family: "Assistant";
        src: url("https://excalidraw.com/Assistant-Regular.woff2");
      }
    </style>
    
  </defs>
  <g stroke-linecap="round"><g transform="translate(59.930167378706756 243.7957711707057) rotate(383.56854302499954 3.162005836576782 -122.52772616734948)"><path d="M0.32 -1.19 C1.13 -41.98, 4.18 -203.44, 5.21 -244.12 M-0.96 0.8 C0.17 -40.37, 6.2 -204.94, 7.34 -245.75" stroke="#ffffff" stroke-width="4" fill="none"></path></g><g transform="translate(59.930167378706756 243.7957711707057) rotate(383.56854302499954 3.162005836576782 -122.52772616734948)"><path d="M15.12 -221.99 C10.43 -231.68, 11.41 -237.33, 7.34 -245.75 M15.12 -221.99 C13.53 -228.54, 9.72 -235.84, 7.34 -245.75" stroke="#ffffff" stroke-width="4" fill="none"></path></g><g transform="translate(59.930167378706756 243.7957711707057) rotate(383.56854302499954 3.162005836576782 -122.52772616734948)"><path d="M-1.98 -222.55 C-1 -232.1, 5.63 -237.57, 7.34 -245.75 M-1.98 -222.55 C1.3 -228.94, 2.35 -236.08, 7.34 -245.75" stroke="#ffffff" stroke-width="4" fill="none"></path></g></g><mask></mask><g stroke-linecap="round"><g transform="translate(-5.398665984313084 314.37122127195437) rotate(383.56854302499954 207.11138229577773 3.9525072957209773)"><path d="M-1.11 0.94 C67.91 2.42, 345.05 6.55, 414.44 7.72 M0.51 0.39 C69.36 2.16, 344.52 7.68, 413.6 9.15" stroke="#ffffff" stroke-width="4" fill="none"></path></g><g transform="translate(-5.398665984313084 314.37122127195437) rotate(383.56854302499954 207.11138229577773 3.9525072957209773)"><path d="M389.94 17.22 C399.32 15.15, 405.18 13.82, 413.6 9.15 M389.94 17.22 C396.22 14.4, 403.28 11.53, 413.6 9.15" stroke="#ffffff" stroke-width="4" fill="none"></path></g><g transform="translate(-5.398665984313084 314.37122127195437) rotate(383.56854302499954 207.11138229577773 3.9525072957209773)"><path d="M390.29 0.12 C399.39 3.65, 405.13 7.91, 413.6 9.15 M390.29 0.12 C396.61 2.45, 403.56 4.73, 413.6 9.15" stroke="#ffffff" stroke-width="4" fill="none"></path></g></g><mask></mask><g stroke-linecap="round"><g transform="translate(68.84482221528287 229.86730322632505) rotate(383.56854302499954 33.59631201362822 -27.667551070046613)"><path d="M0.21 -0.19 C11.76 -9.57, 56.86 -46.17, 68.19 -55.32 M-1.13 -1.33 C10.44 -10.59, 56.25 -45.06, 67.76 -53.78" stroke="#ffffff" stroke-width="4" fill="none"></path></g></g><mask></mask><g stroke-linecap="round"><g transform="translate(132.47077104258142 202.38302885459828) rotate(383.56854302499954 35.572565661488625 22.924542315181554)"><path d="M1 0.01 C12.98 7.73, 60.59 38.52, 72.13 46.09 M0.06 -1.03 C11.96 6.32, 59.6 36.16, 71.7 44.09" stroke="#ffffff" stroke-width="4" fill="none"></path></g></g><mask></mask><g stroke-linecap="round"><g transform="translate(212.22265683693695 299.44985246713793) rotate(383.56854302499954 82.60740248056777 -65.6116211089678)"><path d="M0.98 0.24 C28.2 -21.7, 137.08 -109.57, 164.28 -131.64 M0.04 -0.68 C27.54 -22.46, 138.75 -108.54, 166.51 -130.32" stroke="#ffffff" stroke-width="4" fill="none"></path></g><g transform="translate(212.22265683693695 299.44985246713793) rotate(383.56854302499954 82.60740248056777 -65.6116211089678)"><path d="M153.23 -109.14 C158.71 -118.91, 162.71 -127.16, 166.51 -130.32 M153.23 -109.14 C156.82 -114.5, 158.62 -117.72, 166.51 -130.32" stroke="#ffffff" stroke-width="4" fill="none"></path></g><g transform="translate(212.22265683693695 299.44985246713793) rotate(383.56854302499954 82.60740248056777 -65.6116211089678)"><path d="M142.72 -122.63 C152.23 -127.32, 160.25 -130.4, 166.51 -130.32 M142.72 -122.63 C148.71 -125.07, 152.83 -125.3, 166.51 -130.32" stroke="#ffffff" stroke-width="4" fill="none"></path></g></g><mask></mask><g stroke-linecap="round" transform="translate(313.1751498124795 177.22701400748426) rotate(383.56854302499954 2.371504377432302 1.976253647860517)"><path d="M2.22 0.28 C2.7 0.15, 2.97 0, 3.42 0.18 C3.87 0.35, 4.69 0.9, 4.91 1.32 C5.14 1.75, 5 2.38, 4.78 2.74 C4.55 3.1, 4.02 3.29, 3.55 3.49 C3.07 3.68, 2.47 3.92, 1.93 3.9 C1.4 3.88, 0.61 3.69, 0.33 3.36 C0.04 3.04, 0.22 2.42, 0.21 1.95 C0.21 1.47, -0.03 0.84, 0.28 0.51 C0.6 0.19, 1.76 0.11, 2.1 -0.01 C2.43 -0.13, 2.3 -0.21, 2.3 -0.21 M1.6 -0.37 C2.02 -0.44, 3.17 0.38, 3.71 0.72 C4.26 1.05, 4.71 1.36, 4.86 1.67 C5.01 1.97, 4.88 2.17, 4.6 2.56 C4.31 2.94, 3.62 3.74, 3.13 3.98 C2.65 4.22, 2.1 4.17, 1.67 4 C1.24 3.82, 0.79 3.26, 0.56 2.96 C0.33 2.65, 0.28 2.6, 0.3 2.18 C0.31 1.76, 0.38 0.75, 0.64 0.43 C0.89 0.11, 1.5 0.3, 1.82 0.24 C2.13 0.17, 2.51 -0.05, 2.51 0.02" stroke="#ffffff" stroke-width="4" fill="none"></path></g><g stroke-linecap="round" transform="translate(340.5459268930613 270.66812790287986) rotate(383.56854302499954 2.371504377432302 1.976253647860517)"><path d="M2.38 -0.12 C2.88 -0.16, 3.91 0.21, 4.33 0.54 C4.76 0.86, 4.93 1.44, 4.94 1.83 C4.95 2.22, 4.69 2.53, 4.38 2.88 C4.06 3.22, 3.57 3.7, 3.04 3.88 C2.51 4.05, 1.62 4.11, 1.19 3.94 C0.76 3.76, 0.67 3.29, 0.43 2.85 C0.2 2.42, -0.34 1.74, -0.24 1.32 C-0.14 0.9, 0.53 0.59, 1.04 0.33 C1.54 0.06, 2.54 -0.17, 2.8 -0.25 C3.05 -0.33, 2.66 -0.28, 2.58 -0.16 M2.75 0.43 C3.34 0.57, 4 0.72, 4.34 0.93 C4.67 1.15, 4.83 1.3, 4.76 1.72 C4.69 2.13, 4.25 3.05, 3.91 3.43 C3.56 3.8, 3.12 3.97, 2.69 3.99 C2.27 4, 1.72 3.66, 1.35 3.5 C0.98 3.34, 0.69 3.41, 0.49 3.02 C0.28 2.63, 0.07 1.59, 0.13 1.17 C0.2 0.76, 0.36 0.73, 0.86 0.53 C1.36 0.34, 2.87 -0.01, 3.13 -0.02 C3.39 -0.03, 2.59 0.5, 2.44 0.48" stroke="#ffffff" stroke-width="4" fill="none"></path></g><g stroke-linecap="round" transform="translate(261.6128920757528 277.63206546375375) rotate(383.56854302499954 2.371504377432302 1.976253647860517)"><path d="M2.96 -0.03 C3.51 0.03, 4.02 0.38, 4.32 0.66 C4.63 0.94, 4.8 1.23, 4.8 1.65 C4.8 2.07, 4.66 2.76, 4.31 3.17 C3.96 3.57, 3.18 3.97, 2.71 4.07 C2.24 4.17, 1.97 4.02, 1.49 3.77 C1.02 3.52, 0.09 3, -0.14 2.59 C-0.37 2.19, -0.1 1.78, 0.13 1.36 C0.37 0.93, 0.85 0.31, 1.28 0.05 C1.71 -0.21, 2.49 -0.23, 2.69 -0.19 C2.9 -0.14, 2.47 0.31, 2.51 0.33 M2.3 0.32 C2.76 0.15, 3.34 -0.07, 3.67 0.16 C4 0.38, 4.16 1.2, 4.28 1.65 C4.39 2.09, 4.48 2.51, 4.35 2.82 C4.22 3.13, 3.88 3.26, 3.51 3.49 C3.15 3.71, 2.65 4.26, 2.15 4.17 C1.65 4.08, 0.91 3.29, 0.52 2.95 C0.12 2.6, -0.31 2.49, -0.22 2.1 C-0.12 1.71, 0.75 0.88, 1.09 0.6 C1.44 0.33, 1.76 0.59, 1.85 0.44 C1.94 0.3, 1.57 -0.24, 1.64 -0.26" stroke="#ffffff" stroke-width="4" fill="none"></path></g><g stroke-linecap="round" transform="translate(262.85744615301655 213.49164556372645) rotate(383.56854302499954 2.371504377432302 1.976253647860517)"><path d="M2.43 0.03 C2.87 -0.06, 3.46 -0.09, 3.84 0.15 C4.23 0.4, 4.65 1.03, 4.73 1.5 C4.81 1.98, 4.52 2.64, 4.32 3.03 C4.12 3.41, 4.02 3.71, 3.53 3.83 C3.04 3.95, 1.89 3.86, 1.37 3.73 C0.86 3.6, 0.62 3.41, 0.42 3.04 C0.22 2.66, 0.16 1.94, 0.2 1.49 C0.25 1.04, 0.39 0.54, 0.69 0.33 C0.99 0.12, 1.67 0.35, 1.98 0.26 C2.29 0.16, 2.54 -0.25, 2.55 -0.25 M2.72 -0.14 C3.11 -0.11, 3.48 0.56, 3.78 0.92 C4.08 1.27, 4.44 1.65, 4.53 1.99 C4.61 2.33, 4.52 2.59, 4.29 2.95 C4.06 3.32, 3.66 4.09, 3.16 4.18 C2.66 4.27, 1.82 3.7, 1.29 3.49 C0.76 3.29, 0.07 3.29, -0.05 2.93 C-0.16 2.57, 0.43 1.7, 0.59 1.33 C0.74 0.96, 0.62 1, 0.9 0.73 C1.18 0.46, 1.94 -0.2, 2.27 -0.3 C2.59 -0.39, 2.82 0.08, 2.86 0.16" stroke="#ffffff" stroke-width="4" fill="none"></path></g><g stroke-linecap="round" transform="translate(202.7483058345165 214.86812363834073) rotate(383.56854302499954 2.371504377432302 1.976253647860517)"><path d="M2.38 -0.23 C2.84 -0.27, 3.55 0.09, 3.91 0.43 C4.27 0.76, 4.39 1.34, 4.52 1.76 C4.65 2.18, 4.93 2.65, 4.66 2.97 C4.39 3.29, 3.41 3.53, 2.9 3.68 C2.4 3.82, 2.03 3.97, 1.63 3.82 C1.24 3.66, 0.81 3.13, 0.53 2.74 C0.25 2.35, -0.02 1.79, -0.02 1.46 C-0.02 1.13, 0.08 1.04, 0.52 0.74 C0.96 0.45, 2.34 -0.18, 2.62 -0.29 C2.89 -0.4, 2.16 -0.01, 2.17 0.1 M2.26 0.27 C2.7 0.33, 3.44 0.47, 3.86 0.69 C4.28 0.91, 4.67 1.14, 4.79 1.59 C4.91 2.05, 4.89 3.06, 4.59 3.4 C4.29 3.75, 3.56 3.57, 2.98 3.66 C2.4 3.76, 1.5 4.12, 1.12 3.97 C0.73 3.82, 0.88 3.1, 0.68 2.75 C0.47 2.4, -0.11 2.32, -0.12 1.86 C-0.14 1.41, 0.12 0.31, 0.61 0.02 C1.09 -0.27, 2.47 0.11, 2.78 0.11 C3.08 0.11, 2.45 -0.02, 2.44 0.01" stroke="#ffffff" stroke-width="4" fill="none"></path></g><g stroke-linecap="round" transform="translate(213.71420653306313 268.81117722563613) rotate(383.56854302499954 2.371504377432302 1.976253647860517)"><path d="M2.45 -0.01 C2.89 0.04, 3.32 0.36, 3.74 0.64 C4.15 0.93, 4.87 1.33, 4.92 1.69 C4.98 2.06, 4.38 2.49, 4.09 2.84 C3.8 3.19, 3.58 3.69, 3.18 3.81 C2.79 3.93, 2.21 3.74, 1.72 3.56 C1.24 3.38, 0.58 3.02, 0.26 2.73 C-0.07 2.45, -0.39 2.3, -0.24 1.87 C-0.1 1.44, 0.7 0.46, 1.11 0.16 C1.52 -0.14, 1.91 0.05, 2.19 0.06 C2.47 0.07, 2.71 0.17, 2.78 0.2 M2.04 0.09 C2.58 -0.04, 3.36 -0.13, 3.85 0.16 C4.34 0.44, 4.87 1.39, 4.98 1.8 C5.09 2.22, 4.83 2.28, 4.52 2.65 C4.2 3.01, 3.47 3.81, 3.08 4.01 C2.68 4.21, 2.63 3.92, 2.15 3.83 C1.66 3.74, 0.6 3.88, 0.17 3.48 C-0.26 3.08, -0.54 1.89, -0.42 1.42 C-0.29 0.94, 0.5 0.87, 0.92 0.63 C1.33 0.39, 1.84 0.05, 2.08 -0.03 C2.31 -0.11, 2.29 0.19, 2.33 0.15" stroke="#ffffff" stroke-width="4" fill="none"></path></g><g stroke-linecap="round" transform="translate(155.24854570665775 240.71904149691167) rotate(383.56854302499954 2.371504377432302 1.976253647860517)"><path d="M1.92 0.18 C2.42 0.12, 3.49 0.18, 3.89 0.36 C4.29 0.55, 4.2 0.87, 4.32 1.27 C4.43 1.66, 4.69 2.36, 4.57 2.73 C4.46 3.1, 4.09 3.32, 3.62 3.48 C3.16 3.64, 2.35 3.7, 1.78 3.69 C1.2 3.68, 0.44 3.76, 0.18 3.41 C-0.07 3.06, 0.21 2.03, 0.25 1.57 C0.28 1.12, 0.02 0.92, 0.39 0.68 C0.75 0.45, 2.09 0.27, 2.42 0.16 C2.76 0.06, 2.46 0.09, 2.4 0.06 M2.63 -0.23 C3.2 -0.19, 3.99 0.55, 4.34 0.85 C4.7 1.15, 4.81 1.16, 4.77 1.58 C4.72 1.99, 4.31 2.95, 4.1 3.32 C3.88 3.7, 3.95 3.7, 3.46 3.85 C2.97 3.99, 1.77 4.42, 1.16 4.19 C0.54 3.97, -0.06 2.93, -0.21 2.49 C-0.36 2.05, 0.07 1.93, 0.24 1.56 C0.42 1.2, 0.44 0.56, 0.84 0.32 C1.24 0.08, 2.35 0.24, 2.66 0.11 C2.96 -0.01, 2.67 -0.44, 2.65 -0.42" stroke="#ffffff" stroke-width="4" fill="none"></path></g><g stroke-linecap="round" transform="translate(139.0163669158751 214.6642080197466) rotate(383.56854302499954 2.371504377432302 1.976253647860517)"><path d="M2.57 0.04 C3.03 -0.04, 3.2 0.05, 3.56 0.31 C3.92 0.57, 4.55 1.2, 4.73 1.59 C4.91 1.99, 4.88 2.36, 4.62 2.69 C4.35 3.03, 3.7 3.38, 3.14 3.62 C2.59 3.85, 1.72 4.25, 1.29 4.09 C0.86 3.94, 0.82 3.08, 0.57 2.68 C0.31 2.28, -0.32 2.05, -0.23 1.7 C-0.13 1.36, 0.65 0.91, 1.12 0.62 C1.59 0.34, 2.4 0.15, 2.6 0.02 C2.8 -0.12, 2.34 -0.2, 2.33 -0.2 M2.73 0.27 C3.21 0.26, 3.68 0, 3.98 0.27 C4.27 0.54, 4.35 1.45, 4.5 1.9 C4.65 2.35, 5.13 2.58, 4.86 2.98 C4.6 3.37, 3.54 4.19, 2.91 4.28 C2.27 4.37, 1.47 3.71, 1.06 3.5 C0.65 3.28, 0.65 3.34, 0.45 3.01 C0.25 2.69, -0.21 1.95, -0.12 1.54 C-0.04 1.13, 0.54 0.87, 0.98 0.53 C1.42 0.2, 2.27 -0.39, 2.52 -0.47 C2.76 -0.55, 2.39 -0.01, 2.45 0.06" stroke="#ffffff" stroke-width="4" fill="none"></path></g><g stroke-linecap="round" transform="translate(180.07283358428867 173.92827300114558) rotate(383.56854302499954 2.371504377432302 1.976253647860517)"><path d="M2.25 -0.14 C2.7 -0.14, 3.62 0.27, 4.07 0.54 C4.51 0.82, 4.89 1.14, 4.92 1.54 C4.95 1.93, 4.64 2.46, 4.27 2.89 C3.9 3.33, 3.15 4.04, 2.71 4.14 C2.27 4.24, 2.08 3.69, 1.62 3.48 C1.16 3.27, 0.18 3.19, -0.03 2.88 C-0.24 2.57, 0.15 2.04, 0.36 1.63 C0.56 1.21, 0.85 0.69, 1.21 0.38 C1.57 0.07, 2.24 -0.15, 2.5 -0.23 C2.77 -0.31, 2.79 -0.17, 2.81 -0.09 M2.21 -0.22 C2.6 -0.29, 3.04 0.3, 3.53 0.58 C4.01 0.86, 5.01 1, 5.14 1.44 C5.27 1.89, 4.67 2.92, 4.3 3.25 C3.93 3.59, 3.32 3.33, 2.92 3.45 C2.53 3.58, 2.35 4.05, 1.9 3.98 C1.46 3.91, 0.55 3.41, 0.25 3.06 C-0.06 2.71, 0 2.39, 0.09 1.9 C0.18 1.4, 0.43 0.41, 0.79 0.1 C1.14 -0.21, 1.89 0.07, 2.19 0.03 C2.5 -0.01, 2.68 -0.21, 2.64 -0.16" stroke="#ffffff" stroke-width="4" fill="none"></path></g><g stroke-linecap="round" transform="translate(124.33526537444277 157.37556256054356) rotate(383.56854302499954 2.371504377432302 1.976253647860517)"><path d="M2.44 -0.03 C3.01 -0.07, 3.75 -0.02, 4.12 0.23 C4.49 0.47, 4.67 0.95, 4.67 1.46 C4.66 1.96, 4.33 2.9, 4.12 3.25 C3.9 3.6, 3.86 3.45, 3.38 3.55 C2.9 3.66, 1.72 3.96, 1.26 3.88 C0.79 3.8, 0.74 3.46, 0.57 3.09 C0.41 2.71, 0.22 2.09, 0.25 1.61 C0.28 1.13, 0.38 0.49, 0.78 0.2 C1.18 -0.09, 2.36 -0.12, 2.66 -0.14 C2.97 -0.16, 2.67 -0.01, 2.61 0.08 M2.37 0.22 C2.92 0.27, 4.16 0.21, 4.52 0.55 C4.88 0.88, 4.63 1.86, 4.52 2.24 C4.41 2.61, 4.11 2.5, 3.88 2.8 C3.65 3.09, 3.59 3.83, 3.14 3.98 C2.69 4.14, 1.67 3.91, 1.19 3.73 C0.72 3.55, 0.47 3.37, 0.3 2.91 C0.13 2.46, 0.04 1.41, 0.16 0.99 C0.28 0.57, 0.55 0.57, 1.03 0.38 C1.51 0.18, 2.82 -0.16, 3.04 -0.2 C3.26 -0.24, 2.35 0.1, 2.34 0.15" stroke="#ffffff" stroke-width="4" fill="none"></path></g><g stroke-linecap="round" transform="translate(81.12933333441924 177.33760041614428) rotate(383.56854302499954 2.371504377432302 1.976253647860517)"><path d="M2.39 -0.26 C2.86 -0.34, 3.38 -0.17, 3.71 0.16 C4.05 0.5, 4.21 1.35, 4.39 1.75 C4.56 2.15, 4.96 2.2, 4.75 2.55 C4.53 2.9, 3.54 3.59, 3.08 3.84 C2.62 4.09, 2.41 4.16, 2 4.03 C1.59 3.91, 0.96 3.52, 0.61 3.1 C0.26 2.68, -0.14 1.98, -0.09 1.53 C-0.04 1.09, 0.5 0.66, 0.9 0.41 C1.29 0.16, 2.09 0.07, 2.29 0.04 C2.49 0.01, 2.08 0.21, 2.1 0.24 M2.66 -0.03 C3.14 -0.05, 3.28 0.6, 3.54 0.8 C3.8 1, 4.05 0.81, 4.23 1.17 C4.42 1.52, 4.85 2.5, 4.67 2.93 C4.5 3.36, 3.65 3.56, 3.18 3.74 C2.7 3.92, 2.26 4.17, 1.81 3.99 C1.36 3.8, 0.79 2.98, 0.49 2.62 C0.2 2.26, -0.09 2.18, 0.03 1.8 C0.14 1.43, 0.85 0.64, 1.17 0.36 C1.49 0.07, 1.71 0.18, 1.95 0.1 C2.19 0.03, 2.49 -0.16, 2.61 -0.1" stroke="#ffffff" stroke-width="4" fill="none"></path></g><g stroke-linecap="round" transform="translate(101.2226454431734 216.28857637873924) rotate(383.56854302499954 2.371504377432302 1.976253647860517)"><path d="M2.29 -0.21 C2.69 -0.16, 3.14 0.44, 3.58 0.7 C4.03 0.95, 4.84 0.93, 4.94 1.31 C5.04 1.7, 4.42 2.55, 4.18 3 C3.94 3.44, 3.89 3.83, 3.49 3.98 C3.1 4.12, 2.34 4.06, 1.8 3.86 C1.26 3.65, 0.5 3.14, 0.23 2.75 C-0.03 2.36, 0.1 1.89, 0.2 1.52 C0.31 1.15, 0.54 0.74, 0.88 0.52 C1.21 0.29, 1.93 0.27, 2.22 0.2 C2.5 0.12, 2.59 0.08, 2.6 0.06 M2.33 0.43 C2.66 0.39, 3.16 0, 3.59 0.24 C4.01 0.48, 4.8 1.4, 4.89 1.87 C4.99 2.34, 4.46 2.69, 4.16 3.05 C3.86 3.4, 3.55 3.94, 3.1 3.98 C2.65 4.03, 1.96 3.5, 1.48 3.31 C1.01 3.12, 0.41 3.2, 0.25 2.86 C0.09 2.52, 0.45 1.69, 0.53 1.29 C0.61 0.89, 0.34 0.71, 0.74 0.47 C1.15 0.24, 2.58 -0.11, 2.95 -0.14 C3.32 -0.17, 3.08 0.18, 2.96 0.32" stroke="#ffffff" stroke-width="4" fill="none"></path></g><g stroke-linecap="round" transform="translate(174.5293487638187 196.52089857518158) rotate(383.56854302499954 2.371504377432302 1.976253647860517)"><path d="M1.78 0.27 C2.3 0.18, 3.46 -0.18, 3.89 0.02 C4.32 0.21, 4.22 0.96, 4.37 1.44 C4.53 1.92, 4.96 2.5, 4.84 2.89 C4.72 3.27, 4.19 3.62, 3.67 3.75 C3.16 3.87, 2.26 3.79, 1.75 3.67 C1.25 3.55, 0.95 3.33, 0.66 3.04 C0.38 2.75, 0.09 2.29, 0.06 1.92 C0.03 1.56, 0.09 1.15, 0.46 0.84 C0.83 0.52, 2.04 0.19, 2.3 0.03 C2.56 -0.12, 2.02 -0.18, 2.02 -0.1 M1.91 -0.32 C2.45 -0.4, 3.6 0.23, 4.04 0.54 C4.47 0.86, 4.45 1.15, 4.53 1.57 C4.61 1.99, 4.72 2.75, 4.52 3.05 C4.31 3.35, 3.78 3.22, 3.29 3.35 C2.8 3.49, 2.02 3.96, 1.6 3.86 C1.18 3.77, 1.09 3.13, 0.79 2.78 C0.49 2.43, -0.28 2.16, -0.21 1.75 C-0.13 1.35, 0.74 0.58, 1.24 0.33 C1.73 0.09, 2.63 0.24, 2.76 0.28 C2.9 0.31, 2.04 0.52, 2.04 0.54" stroke="#ffffff" stroke-width="4" fill="none"></path></g><g stroke-linecap="round" transform="translate(242.6379624464862 226.23230000751968) rotate(383.56854302499954 2.371504377432302 1.976253647860517)"><path d="M2.36 -0.28 C2.84 -0.38, 3.01 0.09, 3.44 0.4 C3.86 0.71, 4.71 1.18, 4.93 1.58 C5.15 1.98, 5.01 2.47, 4.74 2.79 C4.47 3.11, 3.77 3.35, 3.31 3.51 C2.85 3.67, 2.44 3.81, 1.98 3.75 C1.51 3.7, 0.87 3.46, 0.51 3.17 C0.16 2.89, -0.21 2.46, -0.16 2.04 C-0.1 1.61, 0.48 0.99, 0.84 0.63 C1.2 0.26, 1.75 -0.09, 2 -0.14 C2.25 -0.18, 2.31 0.33, 2.33 0.36 M2.87 0.12 C3.4 0.2, 3.64 0.3, 3.97 0.62 C4.29 0.94, 4.76 1.67, 4.82 2.02 C4.88 2.37, 4.64 2.41, 4.32 2.73 C3.99 3.05, 3.31 3.8, 2.87 3.93 C2.44 4.06, 2.2 3.7, 1.71 3.51 C1.22 3.33, 0.13 3.19, -0.07 2.81 C-0.27 2.43, 0.26 1.59, 0.53 1.22 C0.8 0.84, 1.23 0.69, 1.54 0.58 C1.86 0.46, 2.14 0.57, 2.41 0.52 C2.67 0.46, 3.01 0.27, 3.12 0.25" stroke="#ffffff" stroke-width="4" fill="none"></path></g><g stroke-linecap="round" transform="translate(318.4732956762641 200.66814444373458) rotate(383.56854302499954 2.371504377432302 1.976253647860517)"><path d="M2.41 0.08 C2.9 0.18, 3.97 0.49, 4.39 0.79 C4.82 1.1, 4.99 1.54, 4.95 1.9 C4.91 2.26, 4.47 2.62, 4.15 2.94 C3.84 3.25, 3.54 3.62, 3.07 3.76 C2.6 3.9, 1.85 3.9, 1.34 3.77 C0.83 3.63, 0.2 3.33, 0.02 2.94 C-0.15 2.54, 0.13 1.87, 0.29 1.41 C0.44 0.95, 0.51 0.35, 0.94 0.17 C1.36 -0.01, 2.55 0.37, 2.85 0.33 C3.14 0.29, 2.68 -0.01, 2.7 -0.08 M1.95 -0.03 C2.41 -0.09, 3.31 0.28, 3.77 0.44 C4.24 0.61, 4.6 0.57, 4.73 0.96 C4.86 1.35, 4.7 2.37, 4.55 2.8 C4.41 3.23, 4.37 3.35, 3.87 3.55 C3.37 3.74, 2.06 4.08, 1.56 3.99 C1.06 3.9, 1.05 3.31, 0.87 2.99 C0.68 2.68, 0.51 2.43, 0.43 2.12 C0.34 1.8, 0.01 1.42, 0.36 1.1 C0.71 0.78, 2.18 0.34, 2.54 0.2 C2.9 0.06, 2.51 0.22, 2.52 0.25" stroke="#ffffff" stroke-width="4" fill="none"></path></g><g stroke-linecap="round" transform="translate(300.51033780600983 249.75340092017578) rotate(383.56854302499954 2.371504377432302 1.976253647860517)"><path d="M2.31 0.18 C2.86 0.09, 3.45 0.15, 3.82 0.31 C4.19 0.47, 4.36 0.74, 4.52 1.12 C4.67 1.49, 4.91 2.12, 4.75 2.56 C4.59 3, 4.06 3.49, 3.55 3.75 C3.05 4.01, 2.21 4.2, 1.73 4.11 C1.25 4.02, 1.01 3.61, 0.69 3.22 C0.38 2.83, -0.16 2.15, -0.15 1.77 C-0.14 1.4, 0.37 1.29, 0.74 0.98 C1.11 0.66, 1.79 0.07, 2.08 -0.13 C2.37 -0.33, 2.5 -0.32, 2.47 -0.24 M2.53 0.11 C3.05 0.02, 3.67 -0.23, 4.03 0.03 C4.4 0.3, 4.6 1.26, 4.73 1.72 C4.87 2.18, 5.15 2.44, 4.84 2.81 C4.53 3.19, 3.36 3.81, 2.87 3.95 C2.38 4.09, 2.26 3.79, 1.9 3.67 C1.54 3.54, 1.06 3.45, 0.7 3.19 C0.34 2.92, -0.35 2.5, -0.25 2.07 C-0.15 1.64, 0.81 0.92, 1.32 0.61 C1.84 0.3, 2.58 0.27, 2.84 0.2 C3.11 0.13, 3.01 0.17, 2.92 0.19" stroke="#ffffff" stroke-width="4" fill="none"></path></g></svg>