<svg version="1.1" xmlns="http://www.w3.org/2000/svg" viewBox="0 0 478.7369875967843 434.8590185543188" width="478.7369875967843" height="434.8590185543188">
  <!-- svg-source:excalidraw -->
  
  <defs>
    <style class="style-fonts">
      @font-face {
        font-family: "Virgil";
        src: url("https://excalidraw.com/Virgil.woff2");
      }
      @font-face {
        font-family: "Cascadia";
        src: url("https://excalidraw.com/Cascadia.woff2");
      }
      @font-face {
        font-family: "Assistant";
        src: url("https://excalidraw.com/Assistant-Regular.woff2");
      }
    </style>
    
  </defs>
  <g stroke-linecap="round"><g transform="translate(51.0623334631814 -2.0725929173943882) rotate(33.35388687862152 20.157787208176842 139.9187582685216)"><path d="M-0.52 0.47 C5.9 47.05, 32.51 233.8, 39.3 280.35 M1.41 -0.32 C8.12 45.81, 35.15 231.59, 41.48 278.5" stroke="#ffffff" stroke-width="4" fill="none"></path></g></g><mask></mask><g stroke-linecap="round"><g transform="translate(162.76312267891626 51.8020585910287) rotate(33.35388687862152 20.157787208176842 139.9187582685216)"><path d="M0.83 -0.39 C7.48 46.39, 33.36 233.25, 39.79 280.09 M-0.19 -1.65 C6.26 44.81, 31.57 231.36, 38.57 278.1" stroke="#ffffff" stroke-width="4" fill="none"></path></g></g><mask></mask><g stroke-linecap="round"><g transform="translate(272.90765346397166 109.64043856116348) rotate(33.35388687862152 20.157787208176842 139.91875826852163)"><path d="M-1.07 -0.02 C5.61 46.86, 32.5 233.87, 39.51 280.57 M0.57 -1.08 C7.67 45.52, 35.13 232.31, 41.8 278.84" stroke="#ffffff" stroke-width="4" fill="none"></path></g></g><mask></mask><g stroke-linecap="round"><g transform="translate(370.73335876929013 156.8290225322927) rotate(33.35388687862152 20.157787208176842 139.91875826852163)"><path d="M0.32 -0.19 C6.87 46.42, 33.49 232.79, 40.27 279.39 M-0.96 -1.34 C5.33 45.47, 32.37 233.72, 39.3 280.69" stroke="#ffffff" stroke-width="4" fill="none"></path></g></g><mask></mask><g stroke-linecap="round"><g transform="translate(487.84659543951966 108.16664243824317) rotate(33.35388687862152 -224.10716366737825 30.829556906623452)"><path d="M0.64 -0.57 C-73.77 9.43, -372.62 50.43, -447.53 61 M-0.48 1.74 C-74.89 12.41, -373.22 52.3, -448.12 62.2" stroke="#ffffff" stroke-width="4" fill="none"></path></g></g><mask></mask><g stroke-linecap="round"><g transform="translate(93.15587666028796 108.24990779698504) rotate(33.35388687862152 13.438524805451152 86.55990977628889)"><path d="M0.57 -1.18 C4.97 6.22, 23.66 14.76, 27.54 43.68 C31.42 72.6, 24.65 150.96, 23.88 172.34 M-0.58 0.82 C3.61 7.95, 22.98 13.35, 26.94 42.09 C30.91 70.82, 23.9 151.52, 23.2 173.25" stroke="#ffffff" stroke-width="4" fill="none"></path></g></g><mask></mask><g stroke-linecap="round"><g transform="translate(205.9231974791296 161.68387124587315) rotate(33.35388687862152 11.857521887162875 86.55990977628889)"><path d="M-0.59 0.5 C0.09 24.32, 0.36 112.85, 4.24 141.73 C8.12 170.61, 19.29 168.62, 22.7 173.76 M1.3 -0.28 C1.91 23.8, -0.1 114.3, 3.86 142.97 C7.82 171.65, 21.46 166.69, 25.06 171.75" stroke="#ffffff" stroke-width="4" fill="none"></path></g></g><mask></mask><g stroke-linecap="round"><g transform="translate(313.122312048873 214.79734760985576) rotate(33.35388687862152 19.762536478604943 86.55990977628883)"><path d="M-0.31 -1.08 C6.38 15.12, 36.3 67.38, 40.13 96.36 C43.97 125.33, 25.52 159.79, 22.7 172.77 M1.73 0.96 C8.32 17.43, 35.61 69.03, 39.5 97.85 C43.39 126.67, 27.78 161.49, 25.07 173.9" stroke="#ffffff" stroke-width="4" fill="none"></path></g></g><mask></mask><g stroke-linecap="round"><g transform="translate(139.201183049498 56.96738257198922) rotate(33.35388687862152 16.600530642027934 -5.53351021400934)"><path d="M0.47 -0.75 C5.11 0.17, 21.35 7.59, 26.95 5.1 C32.54 2.6, 32.99 -12.28, 34.05 -15.73 M-0.74 1.47 C3.9 2.6, 20.7 9.59, 26.45 6.4 C32.19 3.22, 32.53 -13.61, 33.74 -17.61" stroke="#ffffff" stroke-width="4" fill="none"></path></g></g><mask></mask><g stroke-linecap="round"><g transform="translate(176.05689767699823 64.63209474824544) rotate(33.35388687862152 15.01952772373943 -10.276518968874456)"><path d="M1.12 0.7 C2.36 -2.54, 3.3 -14.91, 8.3 -18.57 C13.29 -22.24, 27.3 -20.95, 31.09 -21.29 M0.25 0.02 C1.29 -3.13, 2.45 -13.85, 7.55 -17.24 C12.66 -20.64, 26.83 -19.98, 30.87 -20.35" stroke="#ffffff" stroke-width="4" fill="none"></path></g></g><mask></mask><g stroke-linecap="round"><g transform="translate(256.6666765036384 123.10353689995236) rotate(33.35388687862152 16.600530642027934 -9.881268239302386)"><path d="M-0.07 0.24 C1.88 -3.27, 7.08 -17.77, 12.46 -20.71 C17.84 -23.66, 28.83 -18.08, 32.21 -17.44 M-1.56 -0.68 C0.15 -4.09, 5.39 -17.03, 11.41 -19.67 C17.44 -22.32, 31.03 -17.19, 34.59 -16.57" stroke="#ffffff" stroke-width="4" fill="none"></path></g></g><mask></mask><g stroke-linecap="round"><g transform="translate(280.16290709974965 119.14214256383968) rotate(33.35388687862152 23.319793044753396 -4.743008754865059)"><path d="M-0.19 -0.95 C5.85 -0.08, 28.44 8.01, 36.17 5.48 C43.89 2.96, 44.59 -12.58, 46.17 -16.11 M-1.75 1.16 C4.66 2.15, 30.54 9.26, 38.36 6.58 C46.18 3.89, 43.99 -11.43, 45.16 -14.95" stroke="#ffffff" stroke-width="4" fill="none"></path></g></g><mask></mask><g stroke-linecap="round"><g transform="translate(357.78232921828567 173.24060508380097) rotate(33.35388687862152 16.600530642027934 -8.300265321013995)"><path d="M0.51 0.19 C2.97 -1.28, 9.27 -7.07, 14.63 -9.9 C20 -12.72, 29.57 -15.79, 32.7 -16.75 M-0.68 -0.76 C1.74 -2.5, 8.92 -9.36, 14.31 -11.82 C19.71 -14.28, 28.42 -14.52, 31.67 -15.51" stroke="#ffffff" stroke-width="4" fill="none"></path></g></g><mask></mask><g stroke-linecap="round"><g transform="translate(394.43691639064036 177.0422678882219) rotate(33.35388687862152 15.01952772373943 -10.276518968874456)"><path d="M1.2 0.38 C4.06 -1.26, 12.83 -6.3, 17.68 -9.64 C22.52 -12.97, 28.24 -17.63, 30.26 -19.65 M0.36 -0.47 C2.98 -1.93, 11.59 -4.67, 16.47 -8.18 C21.34 -11.69, 27.37 -19.34, 29.62 -21.51" stroke="#ffffff" stroke-width="4" fill="none"></path></g></g><mask></mask></svg>