<svg version="1.1" xmlns="http://www.w3.org/2000/svg" viewBox="0 0 671.8029199461207 444.72514112018564" width="671.8029199461207" height="444.72514112018564">
  <!-- svg-source:excalidraw -->
  
  <defs>
    <style class="style-fonts">
      @font-face {
        font-family: "Virgil";
        src: url("https://excalidraw.com/Virgil.woff2");
      }
      @font-face {
        font-family: "Cascadia";
        src: url("https://excalidraw.com/Cascadia.woff2");
      }
      @font-face {
        font-family: "Assistant";
        src: url("https://excalidraw.com/Assistant-Regular.woff2");
      }
    </style>
    
  </defs>
  <g stroke-linecap="round" transform="translate(298.7681181713724 10) rotate(0 32.015309095339944 32.01530909533972)"><path d="M42.31 2.54 C47.93 4.3, 54.59 9.58, 58.24 14.74 C61.88 19.9, 64.22 27.48, 64.17 33.49 C64.13 39.49, 61.85 45.93, 57.97 50.77 C54.08 55.62, 47.01 60.78, 40.87 62.58 C34.73 64.37, 27.09 63.7, 21.13 61.54 C15.17 59.38, 8.47 54.54, 5.11 49.59 C1.76 44.65, 0.85 38.15, 0.99 31.86 C1.14 25.57, 2.47 17.05, 5.96 11.88 C9.45 6.7, 14.89 2.02, 21.92 0.8 C28.94 -0.43, 42.98 3.15, 48.11 4.54 C53.23 5.93, 52.89 8.57, 52.68 9.12 M45.99 1.73 C51.56 3.5, 57.56 9.75, 60.34 15.31 C63.13 20.86, 63.48 28.73, 62.71 35.06 C61.93 41.39, 59.77 48.72, 55.67 53.28 C51.58 57.83, 44.25 61.29, 38.14 62.41 C32.02 63.52, 24.67 62.41, 18.98 59.96 C13.3 57.51, 7.34 53.1, 4.02 47.7 C0.69 42.3, -1.82 33.93, -0.95 27.53 C-0.08 21.14, 4.66 13.69, 9.26 9.35 C13.85 5, 20.72 2.54, 26.61 1.45 C32.49 0.35, 41.34 2.56, 44.56 2.78 C47.78 2.99, 46.18 2.3, 45.91 2.76" stroke="#ffffff" stroke-width="4" fill="none"></path></g><g stroke-linecap="round" transform="translate(403.5095615079781 145.57100024322864) rotate(0 32.015309095339944 32.015309095339745)"><path d="M24.75 0.64 C30.5 -1.07, 38.24 -0.29, 43.93 2.23 C49.62 4.76, 55.45 10.24, 58.86 15.81 C62.28 21.38, 65.03 29.61, 64.42 35.67 C63.81 41.73, 59.58 47.44, 55.18 52.19 C50.79 56.93, 43.91 62.52, 38.05 64.14 C32.19 65.76, 25.74 64.52, 20.03 61.91 C14.31 59.3, 7.17 53.85, 3.77 48.49 C0.37 43.13, -0.99 36.15, -0.37 29.73 C0.24 23.31, 2.35 14.75, 7.47 9.97 C12.6 5.19, 25.62 2.53, 30.36 1.03 C35.1 -0.47, 35.75 0.78, 35.91 0.98 M28.38 1.25 C34.34 0.25, 43.72 0.9, 49.21 3.71 C54.7 6.52, 58.83 12.36, 61.32 18.1 C63.81 23.85, 65.42 31.84, 64.15 38.17 C62.89 44.51, 58.71 51.83, 53.74 56.12 C48.77 60.41, 40.84 63.48, 34.33 63.93 C27.82 64.39, 20.11 61.84, 14.67 58.84 C9.24 55.83, 3.9 51.47, 1.72 45.88 C-0.47 40.29, 0.04 31.82, 1.57 25.3 C3.09 18.78, 6.24 10.9, 10.86 6.78 C15.48 2.66, 26.24 1.56, 29.28 0.56 C32.32 -0.45, 29.19 0.12, 29.09 0.76" stroke="#ffffff" stroke-width="4" fill="none"></path></g><g stroke-linecap="round" transform="translate(227.2277361188235 111.5794375000284) rotate(0 32.015309095339944 32.01530909533969)"><path d="M19.6 2.73 C24.77 -0.2, 31.86 -0.65, 37.77 0.52 C43.69 1.7, 50.67 5.15, 55.07 9.79 C59.47 14.43, 63.46 22, 64.17 28.37 C64.89 34.74, 62.45 42.66, 59.37 48.02 C56.29 53.39, 51.38 58.03, 45.69 60.56 C40.01 63.09, 31.7 64.3, 25.28 63.22 C18.87 62.15, 11.49 58.82, 7.19 54.13 C2.9 49.44, -0.09 41.5, -0.49 35.1 C-0.9 28.7, 0.97 21.21, 4.79 15.75 C8.61 10.3, 19.21 4.58, 22.45 2.38 C25.69 0.18, 24.08 2.03, 24.23 2.53 M40.48 -0.16 C46.04 0.95, 51.71 5.65, 55.44 10.52 C59.17 15.39, 62.3 22.53, 62.85 29.05 C63.4 35.58, 62.05 44.3, 58.74 49.67 C55.43 55.04, 48.79 58.93, 42.98 61.27 C37.16 63.62, 29.74 65.34, 23.85 63.75 C17.96 62.16, 11.44 56.65, 7.62 51.71 C3.8 46.77, 1.17 40.29, 0.93 34.13 C0.7 27.98, 3.05 19.97, 6.21 14.77 C9.37 9.56, 14.26 5.1, 19.87 2.88 C25.47 0.66, 36.27 1.48, 39.84 1.45 C43.41 1.42, 41.3 2.43, 41.28 2.71" stroke="#ffffff" stroke-width="4" fill="none"></path></g><g stroke-linecap="round"><g transform="translate(314.57814735425654 69.28760943581426) rotate(0 -20.948288667321094 21.343539396893163)"><path d="M0.5 0.48 C-6.28 7.56, -34.44 36.13, -41.57 43.32 M-0.69 -0.31 C-7.53 6.34, -35.26 34.52, -42.35 41.52" stroke="#ffffff" stroke-width="4" fill="none"></path></g></g><mask></mask><g stroke-linecap="round"><g transform="translate(353.28630758104055 65.5729462399317) rotate(0 30.43430617705144 42.6870787937863)"><path d="M0.35 0.69 C10.62 14.89, 51.83 71.49, 61.77 85.41 M-0.93 0.01 C9.25 14.4, 50.74 72.82, 61.29 86.97" stroke="#ffffff" stroke-width="4" fill="none"></path></g></g><mask></mask><g stroke-linecap="round" transform="translate(82.78319771125007 232.97651660218514) rotate(19.80277047685059 18.294462340194286 18.294462340194173)"><path d="M17.74 -0.36 C21.51 -0.72, 26.94 1.1, 29.99 3.74 C33.03 6.39, 35.24 11.51, 36 15.5 C36.75 19.5, 36.37 24.31, 34.51 27.72 C32.64 31.12, 28.52 34.57, 24.8 35.95 C21.08 37.33, 15.91 37.33, 12.19 35.99 C8.47 34.64, 4.49 31.43, 2.47 27.88 C0.46 24.34, -0.58 18.68, 0.12 14.73 C0.82 10.79, 3.52 6.72, 6.67 4.19 C9.83 1.66, 16.81 0.12, 19.07 -0.45 C21.32 -1.02, 20.18 0.33, 20.21 0.77 M20.29 -0.57 C23.92 -0.54, 28.32 2.17, 31.11 4.97 C33.91 7.78, 36.62 12.27, 37.08 16.24 C37.54 20.22, 36.17 25.48, 33.86 28.81 C31.56 32.14, 27.25 35.09, 23.25 36.22 C19.26 37.34, 13.49 37.38, 9.88 35.58 C6.27 33.77, 3.05 28.94, 1.6 25.4 C0.14 21.85, 0.02 17.98, 1.16 14.31 C2.29 10.64, 5.2 5.78, 8.42 3.36 C11.65 0.93, 18.57 0.32, 20.53 -0.25 C22.49 -0.83, 20.23 -0.39, 20.21 -0.08" stroke="#ffffff" stroke-width="4" fill="none"></path></g><g stroke-linecap="round" transform="translate(112.8507906157065 326.141425246955) rotate(19.80277047685059 18.294462340194286 18.294462340194173)"><path d="M20.14 -0.39 C23.89 -0.11, 28.32 3.06, 31.11 6.01 C33.89 8.95, 36.5 13.39, 36.87 17.3 C37.23 21.21, 35.63 26.29, 33.3 29.49 C30.96 32.69, 26.69 35.56, 22.86 36.5 C19.03 37.44, 13.88 37, 10.31 35.13 C6.75 33.27, 3.03 28.99, 1.46 25.33 C-0.11 21.67, -0.2 16.94, 0.89 13.17 C1.99 9.4, 4.7 4.82, 8.06 2.7 C11.42 0.59, 18.83 0.79, 21.04 0.49 C23.26 0.2, 21.44 0.66, 21.36 0.96 M17.98 -0.37 C21.73 -0.61, 27.32 1.15, 30.46 3.71 C33.6 6.26, 36.18 10.98, 36.85 14.95 C37.51 18.92, 36.58 23.99, 34.45 27.52 C32.32 31.04, 27.77 34.88, 24.05 36.11 C20.32 37.34, 15.6 36.2, 12.11 34.91 C8.62 33.62, 4.96 31.61, 3.09 28.36 C1.22 25.1, 0.22 19.4, 0.88 15.36 C1.54 11.32, 4.11 6.74, 7.04 4.09 C9.96 1.45, 16.49 0.16, 18.46 -0.51 C20.42 -1.19, 18.79 -0.36, 18.81 0.05" stroke="#ffffff" stroke-width="4" fill="none"></path></g><g stroke-linecap="round" transform="translate(9.999999999999545 287.5176010150416) rotate(19.80277047685059 18.294462340194286 18.294462340194173)"><path d="M14.76 0.76 C18.44 0.01, 24.24 0.82, 27.72 2.77 C31.2 4.73, 34.32 8.78, 35.63 12.48 C36.94 16.18, 36.94 21.3, 35.58 24.97 C34.22 28.64, 30.89 32.66, 27.47 34.48 C24.04 36.29, 18.85 36.61, 15.03 35.85 C11.2 35.1, 7.02 32.95, 4.52 29.95 C2.03 26.96, 0.03 21.73, 0.05 17.89 C0.07 14.05, 2.05 9.8, 4.65 6.92 C7.26 4.04, 13.82 1.61, 15.7 0.6 C17.59 -0.41, 15.99 0.58, 15.98 0.87 M14.99 -0.03 C18.7 -0.97, 23.99 0.21, 27.4 2.15 C30.81 4.09, 34.17 7.9, 35.44 11.64 C36.71 15.38, 36.27 21, 35.02 24.58 C33.76 28.16, 31.03 31.04, 27.92 33.13 C24.81 35.23, 20.11 37.57, 16.35 37.15 C12.59 36.74, 7.99 33.7, 5.38 30.62 C2.77 27.54, 0.87 22.69, 0.67 18.68 C0.48 14.67, 1.79 9.66, 4.21 6.57 C6.62 3.47, 13.35 1.04, 15.15 0.1 C16.94 -0.84, 15.1 0.51, 15 0.91" stroke="#ffffff" stroke-width="4" fill="none"></path></g><g stroke-linecap="round"><g transform="translate(81.27289171703205 257.49419887978524) rotate(19.80277047685059 -16.71345942190578 22.81161353530382)"><path d="M-0.85 0 C-6.7 7.67, -29.34 37.17, -34.58 44.9 M0.9 -1.05 C-4.64 6.86, -26.91 38.47, -32.48 46.06" stroke="#ffffff" stroke-width="4" fill="none"></path></g></g><mask></mask><g stroke-linecap="round"><g transform="translate(99.31348814592957 272.7349327787156) rotate(19.80277047685059 17.391032101172414 24.392616453592268)"><path d="M-1.16 -0.72 C4.97 7.54, 29.78 41.25, 35.91 49.57 M0.44 1.51 C6.58 9.44, 29.74 40.27, 35.55 47.86" stroke="#ffffff" stroke-width="4" fill="none"></path></g></g><mask></mask><g stroke-linecap="round" transform="translate(233.15649706240447 279.3351400084133) rotate(0 18.294462340194286 18.294462340194173)"><path d="M15.68 0.35 C19.3 -0.43, 24.06 0.62, 27.43 2.63 C30.8 4.63, 34.53 8.64, 35.89 12.37 C37.26 16.11, 37.09 21.44, 35.6 25.05 C34.12 28.66, 30.45 32.1, 26.98 34.02 C23.51 35.95, 18.57 37.3, 14.79 36.6 C11.01 35.9, 6.75 32.89, 4.3 29.82 C1.85 26.75, 0.03 22.15, 0.08 18.16 C0.13 14.18, 1.88 8.98, 4.62 5.9 C7.36 2.82, 14.55 0.67, 16.53 -0.32 C18.5 -1.31, 16.56 -0.37, 16.48 -0.05 M18.18 -0.02 C22.01 -0.24, 26.71 1.49, 29.74 3.83 C32.77 6.18, 35.61 10.22, 36.35 14.06 C37.09 17.9, 36.18 23.34, 34.19 26.88 C32.19 30.43, 28.04 33.87, 24.37 35.34 C20.69 36.81, 15.83 36.96, 12.15 35.7 C8.48 34.44, 4.25 31.12, 2.3 27.78 C0.34 24.45, -0.33 19.56, 0.44 15.7 C1.2 11.84, 3.83 7.19, 6.87 4.63 C9.91 2.07, 16.8 1.1, 18.67 0.35 C20.55 -0.41, 18.11 -0.23, 18.11 0.11" stroke="#ffffff" stroke-width="4" fill="none"></path></g><g stroke-linecap="round" transform="translate(293.00875039760786 356.8042830045441) rotate(0 18.294462340194286 18.294462340194173)"><path d="M16.38 0.06 C20.08 -0.52, 25.77 1.03, 29.08 3.31 C32.38 5.58, 35.27 9.98, 36.21 13.72 C37.15 17.46, 36.42 22.15, 34.73 25.74 C33.03 29.32, 29.54 33.52, 26.05 35.23 C22.56 36.94, 17.59 37.04, 13.81 36.01 C10.03 34.97, 5.66 32.3, 3.39 29.02 C1.11 25.74, -0.23 20.36, 0.18 16.34 C0.58 12.32, 3.02 7.7, 5.82 4.9 C8.62 2.1, 15.03 0.35, 16.96 -0.45 C18.89 -1.26, 17.35 -0.24, 17.4 0.06 M13.92 0.3 C17.46 -0.93, 23 -0.55, 26.5 1.18 C30 2.91, 33.45 6.98, 34.92 10.68 C36.4 14.39, 36.46 19.58, 35.34 23.4 C34.23 27.22, 31.47 31.42, 28.24 33.61 C25.01 35.8, 19.78 36.93, 15.96 36.52 C12.13 36.11, 7.84 34, 5.29 31.18 C2.73 28.36, 0.8 23.5, 0.64 19.6 C0.47 15.71, 2.03 11.03, 4.28 7.81 C6.52 4.59, 12.37 1.32, 14.11 0.26 C15.86 -0.79, 14.8 1.2, 14.75 1.47" stroke="#ffffff" stroke-width="4" fill="none"></path></g><g stroke-linecap="round" transform="translate(180.98340075888746 358.61114348258786) rotate(0 18.294462340194286 18.294462340194173)"><path d="M19.75 0.04 C23.58 0.07, 28.41 2.56, 31.17 5.22 C33.93 7.88, 35.93 12.06, 36.33 15.99 C36.72 19.92, 35.65 25.47, 33.54 28.79 C31.44 32.11, 27.44 34.81, 23.69 35.89 C19.94 36.97, 14.64 36.92, 11.03 35.28 C7.41 33.64, 3.68 29.68, 2 26.05 C0.33 22.42, 0.11 17.35, 0.98 13.52 C1.86 9.69, 4.09 5.36, 7.25 3.07 C10.42 0.78, 17.71 0.28, 19.98 -0.21 C22.26 -0.71, 20.97 -0.28, 20.9 0.1 M18.28 -0.71 C21.98 -0.98, 26.92 1.34, 29.84 3.95 C32.75 6.56, 35.09 11.06, 35.78 14.97 C36.47 18.89, 35.89 24.02, 33.99 27.44 C32.08 30.85, 27.94 34.1, 24.33 35.48 C20.73 36.87, 15.9 37.07, 12.37 35.77 C8.83 34.46, 5.01 31.03, 3.11 27.67 C1.21 24.3, 0.41 19.51, 0.99 15.58 C1.57 11.65, 3.62 6.6, 6.6 4.1 C9.58 1.6, 17.05 1.29, 18.88 0.59 C20.71 -0.1, 17.67 -0.35, 17.57 -0.07" stroke="#ffffff" stroke-width="4" fill="none"></path></g><g stroke-linecap="round"><g transform="translate(243.54594481115737 314.5689193302686) rotate(0 -16.71345942190578 22.811613535303877)"><path d="M0.31 -0.77 C-5.2 6.87, -27.82 38.49, -33.44 46.32 M-0.99 1.44 C-6.62 8.69, -28.86 37.44, -34.4 44.56" stroke="#ffffff" stroke-width="4" fill="none"></path></g></g><mask></mask><g stroke-linecap="round"><g transform="translate(264.3097481536438 311.09110928837424) rotate(0 17.391032101172414 24.392616453592268)"><path d="M-0.01 0.7 C5.73 9.05, 28.91 41.41, 34.78 49.36 M-1.48 0.01 C4.08 8.08, 27.81 39.29, 33.83 47.55" stroke="#ffffff" stroke-width="4" fill="none"></path></g></g><mask></mask><g stroke-linecap="round" transform="translate(396.7902991052515 318.86021296562296) rotate(0 18.294462340194286 18.294462340194173)"><path d="M22.6 0.4 C26.31 0.87, 30.56 3.63, 32.9 6.67 C35.25 9.71, 36.82 14.71, 36.68 18.65 C36.55 22.59, 34.77 27.34, 32.09 30.31 C29.4 33.29, 24.48 35.89, 20.56 36.51 C16.63 37.14, 11.91 36.15, 8.56 34.06 C5.21 31.96, 1.62 27.74, 0.45 23.94 C-0.72 20.15, -0.01 14.92, 1.52 11.29 C3.05 7.66, 6.07 3.95, 9.62 2.15 C13.18 0.35, 20.56 0.63, 22.85 0.46 C25.15 0.3, 23.44 0.91, 23.39 1.15 M17.59 0.64 C21.28 0.31, 27.22 1.24, 30.33 3.59 C33.44 5.93, 35.6 10.8, 36.27 14.69 C36.94 18.58, 36.31 23.57, 34.35 26.91 C32.4 30.25, 28.29 33.38, 24.54 34.73 C20.79 36.09, 15.61 36.2, 11.86 35.03 C8.11 33.86, 3.97 30.98, 2.03 27.73 C0.09 24.47, -0.55 19.47, 0.21 15.49 C0.98 11.52, 3.74 6.5, 6.61 3.88 C9.48 1.25, 15.5 0.23, 17.44 -0.24 C19.39 -0.71, 18.12 0.79, 18.27 1.06" stroke="#ffffff" stroke-width="4" fill="none"></path></g><g stroke-linecap="round" transform="translate(456.642552440454 396.32935596175355) rotate(0 18.294462340194286 18.294462340194173)"><path d="M19.21 -0.36 C22.88 -0.49, 27.81 1.81, 30.71 4.47 C33.61 7.13, 36.17 11.66, 36.63 15.61 C37.09 19.56, 35.62 24.77, 33.49 28.17 C31.36 31.57, 27.6 34.8, 23.83 35.98 C20.07 37.16, 14.5 36.79, 10.91 35.23 C7.32 33.68, 4.05 30.13, 2.28 26.66 C0.52 23.19, -0.46 18.24, 0.33 14.41 C1.11 10.58, 3.76 6.07, 7 3.68 C10.24 1.28, 17.41 0.63, 19.75 0.04 C22.09 -0.56, 21.02 -0.29, 21.03 0.09 M17.52 -0.56 C21.31 -1.19, 26.01 0.92, 29.12 3.28 C32.24 5.63, 35.31 9.83, 36.21 13.57 C37.12 17.31, 36.36 22.22, 34.54 25.71 C32.72 29.21, 28.97 32.83, 25.32 34.55 C21.67 36.26, 16.37 36.99, 12.65 36.01 C8.94 35.03, 5.09 32.04, 3.03 28.66 C0.97 25.29, -0.03 19.75, 0.3 15.77 C0.62 11.8, 2.14 7.32, 4.96 4.81 C7.79 2.31, 15.19 1.54, 17.25 0.73 C19.3 -0.07, 17.34 -0.31, 17.3 -0.03" stroke="#ffffff" stroke-width="4" fill="none"></path></g><g stroke-linecap="round" transform="translate(344.6172028017345 398.1362164397973) rotate(0 18.294462340194286 18.294462340194173)"><path d="M18.39 -0.3 C22.11 -0.51, 27.31 1.45, 30.25 4.04 C33.19 6.62, 35.39 11.26, 36.04 15.21 C36.68 19.15, 36.11 24.31, 34.12 27.69 C32.13 31.07, 27.77 34.21, 24.12 35.49 C20.48 36.77, 15.86 36.69, 12.23 35.35 C8.61 34.02, 4.37 30.86, 2.36 27.47 C0.35 24.07, -0.48 18.86, 0.17 14.99 C0.81 11.12, 3 6.81, 6.22 4.24 C9.44 1.67, 17.1 0.11, 19.49 -0.44 C21.88 -1, 20.63 0.61, 20.58 0.93 M22.17 0.13 C25.81 0.73, 30.53 3.66, 32.9 6.69 C35.28 9.72, 36.66 14.42, 36.43 18.31 C36.2 22.21, 34.21 27.05, 31.52 30.09 C28.83 33.14, 24.1 35.93, 20.27 36.58 C16.43 37.23, 11.69 36.2, 8.49 34 C5.29 31.79, 2.36 27.18, 1.05 23.37 C-0.25 19.56, -0.82 14.55, 0.66 11.12 C2.13 7.69, 6.28 4.66, 9.9 2.8 C13.51 0.94, 20.33 0.23, 22.33 -0.02 C24.33 -0.27, 22.1 1.05, 21.91 1.32" stroke="#ffffff" stroke-width="4" fill="none"></path></g><g stroke-linecap="round"><g transform="translate(407.1797468540035 354.0939922874783) rotate(0 -16.71345942190578 22.811613535303877)"><path d="M0 0.44 C-5.76 7.89, -28.64 38.26, -34.33 45.88 M-1.46 -0.37 C-6.86 7.2, -27.06 36.48, -32.09 43.89" stroke="#ffffff" stroke-width="4" fill="none"></path></g></g><mask></mask><g stroke-linecap="round"><g transform="translate(427.9435501964899 350.6161822455839) rotate(0 17.391032101172414 24.392616453592268)"><path d="M-0.9 0.25 C4.78 8.39, 28.22 41.3, 34.07 49.28 M0.83 -0.66 C6.9 7.08, 31.02 39.12, 36.41 47.42" stroke="#ffffff" stroke-width="4" fill="none"></path></g></g><mask></mask><g stroke-linecap="round" transform="translate(535.6620230345106 277.268231879052) rotate(331.5178142529602 18.294462340194286 18.294462340194173)"><path d="M16.42 0.02 C20.07 -0.56, 25.49 1.2, 28.7 3.51 C31.91 5.83, 34.59 10.12, 35.69 13.93 C36.78 17.73, 36.9 22.89, 35.26 26.35 C33.62 29.81, 29.53 33.05, 25.85 34.69 C22.17 36.34, 17.01 37.21, 13.18 36.21 C9.34 35.21, 5.12 31.99, 2.85 28.7 C0.58 25.41, -0.85 20.4, -0.42 16.48 C0.01 12.55, 2.39 7.96, 5.44 5.15 C8.49 2.34, 15.78 0.43, 17.87 -0.38 C19.95 -1.19, 17.95 -0.1, 17.95 0.28 M20.48 0.19 C24.2 0.48, 29.35 2.76, 32.06 5.7 C34.77 8.65, 36.71 13.99, 36.74 17.88 C36.78 21.76, 34.54 26.06, 32.28 29.03 C30.02 32, 26.92 34.67, 23.17 35.69 C19.42 36.72, 13.27 36.99, 9.78 35.19 C6.3 33.39, 3.86 28.7, 2.24 24.91 C0.63 21.11, -0.88 16.2, 0.08 12.44 C1.05 8.68, 4.76 4.52, 8.02 2.36 C11.29 0.19, 17.75 -0.26, 19.67 -0.57 C21.6 -0.88, 19.51 0.14, 19.58 0.48" stroke="#ffffff" stroke-width="4" fill="none"></path></g><g stroke-linecap="round" transform="translate(625.2139952657321 316.81825862183325) rotate(331.5178142529602 18.294462340194286 18.294462340194173)"><path d="M20.71 0.41 C24.43 0.76, 28.86 3.5, 31.57 6.42 C34.27 9.34, 36.77 14.13, 36.93 17.95 C37.09 21.76, 35.06 26.25, 32.53 29.33 C30 32.41, 25.61 35.56, 21.74 36.4 C17.87 37.24, 12.77 36.25, 9.29 34.34 C5.81 32.43, 2.27 28.59, 0.88 24.94 C-0.5 21.3, -0.36 16.22, 0.99 12.47 C2.35 8.72, 5.62 4.48, 9 2.43 C12.38 0.39, 19.02 0.46, 21.28 0.2 C23.54 -0.07, 22.52 0.46, 22.54 0.84 M15.28 0.38 C18.89 -0.46, 24.09 1.14, 27.31 3.01 C30.53 4.88, 33.13 8.11, 34.61 11.58 C36.09 15.05, 37.38 20.01, 36.17 23.82 C34.97 27.63, 30.71 32.48, 27.38 34.46 C24.04 36.43, 20.11 36.45, 16.19 35.65 C12.27 34.85, 6.58 32.58, 3.86 29.63 C1.14 26.69, -0.06 21.87, -0.14 17.96 C-0.21 14.04, 1.03 9.08, 3.4 6.14 C5.76 3.2, 12.15 1.34, 14.05 0.35 C15.96 -0.64, 14.61 -0.14, 14.81 0.21" stroke="#ffffff" stroke-width="4" fill="none"></path></g><g stroke-linecap="round" transform="translate(527.6092515297178 371.8296911308263) rotate(331.5178142529602 18.294462340194286 18.294462340194173)"><path d="M17.51 0.44 C21.29 0.12, 26.93 2, 30.01 4.33 C33.08 6.67, 35.32 10.64, 35.97 14.45 C36.63 18.27, 35.85 23.77, 33.94 27.22 C32.04 30.67, 28.19 33.79, 24.54 35.15 C20.89 36.51, 15.66 36.62, 12.05 35.37 C8.43 34.11, 4.74 30.99, 2.85 27.63 C0.95 24.28, 0.16 19.08, 0.67 15.23 C1.19 11.39, 2.92 7.07, 5.95 4.54 C8.97 2.01, 16.61 0.69, 18.83 0.06 C21.04 -0.56, 19.36 0.47, 19.23 0.79 M18.97 0.75 C22.48 0.59, 26.68 2.07, 29.67 4.48 C32.67 6.89, 36.31 11.23, 36.95 15.21 C37.59 19.19, 35.53 25.08, 33.51 28.36 C31.48 31.65, 28.57 33.88, 24.81 34.92 C21.04 35.96, 14.72 36.05, 10.93 34.61 C7.14 33.18, 3.94 29.76, 2.08 26.32 C0.21 22.87, -0.97 17.69, -0.28 13.96 C0.41 10.24, 3.03 6.39, 6.21 3.98 C9.38 1.57, 16.64 0.07, 18.76 -0.49 C20.87 -1.05, 18.84 0.25, 18.88 0.62" stroke="#ffffff" stroke-width="4" fill="none"></path></g><g stroke-linecap="round"><g transform="translate(567.8581186575152 319.5111065168959) rotate(331.5178142529602 -16.71345942190578 22.811613535303877)"><path d="M-0.14 -0.08 C-5.72 7.5, -27.46 37.24, -32.84 45 M-1.67 -1.17 C-7.41 6.61, -28.32 38.58, -33.48 46.21" stroke="#ffffff" stroke-width="4" fill="none"></path></g></g><mask></mask><g stroke-linecap="round"><g transform="translate(581.2323489491073 289.8878066028418) rotate(331.5178142529602 17.391032101172414 24.392616453592268)"><path d="M0.59 -0.63 C6.58 7.66, 29.97 41.51, 35.82 49.64 M-0.56 1.66 C5.38 9.62, 29.43 40.05, 35.42 47.97" stroke="#ffffff" stroke-width="4" fill="none"></path></g></g><mask></mask><g stroke-linecap="round"><g transform="translate(227.59657557711398 155.69011258236918) rotate(0 -56.52085432880972 39.12982222763739)"><path d="M-0.55 0.86 C-19.47 13.77, -94.3 64.83, -113.01 77.58 M1.36 0.26 C-17.76 13.31, -94.8 65.78, -113.95 78.77" stroke="#ffffff" stroke-width="4" fill="none"></path></g></g><mask></mask><g stroke-linecap="round"><g transform="translate(272.45371717723447 174.43499973740984) rotate(0 -10.276518968874143 51.38259484437236)"><path d="M-0.82 -0.24 C-4.1 16.61, -17.41 84.74, -20.58 101.8 M0.95 -1.41 C-2.42 15.5, -18.01 85.41, -21.55 102.82" stroke="#ffffff" stroke-width="4" fill="none"></path></g></g><mask></mask><g stroke-linecap="round"><g transform="translate(428.83589254303297 209.09023388418586) rotate(0 -4.743008754864832 55.335102140093284)"><path d="M-0.21 1.13 C-1.58 19.36, -7.55 92.19, -9.08 110.47 M-1.79 0.68 C-3.19 19.61, -8.43 93.32, -9.82 111.9" stroke="#ffffff" stroke-width="4" fill="none"></path></g></g><mask></mask><g stroke-linecap="round"><g transform="translate(456.3503707387854 200.350555838353) rotate(0 43.08232952335834 38.73457149806518)"><path d="M0.39 0.03 C14.48 12.89, 71.52 65.39, 85.7 78.2 M-0.86 -0.99 C12.92 12.05, 70.31 63.31, 84.51 76.46" stroke="#ffffff" stroke-width="4" fill="none"></path></g></g><mask></mask></svg>